<svg width="33" height="33" viewBox="0 0 33 33" fill="none" xmlns="http://www.w3.org/2000/svg">
<ellipse cx="16.1809" cy="16.1875" rx="16.1809" ry="16.1875" fill="#CED4DA"/>
<g clip-path="url(#clip0_300_29394)">
<path d="M6.47266 21.9266V10.8736C6.47266 10.857 6.49896 10.8429 6.50135 10.8263C6.59603 10.3129 6.87489 9.85068 7.28664 9.5246C7.69838 9.19851 8.21529 9.03054 8.74226 9.05156C10.3159 9.08233 11.892 9.05156 13.468 9.05156H13.7072L13.8889 11.354C13.5039 11.425 13.3102 11.5906 13.2695 11.8485C13.2541 11.9378 13.2599 12.0294 13.2864 12.1161C13.3129 12.2028 13.3594 12.2822 13.4223 12.3481C13.4852 12.414 13.5626 12.4645 13.6486 12.4956C13.7345 12.5268 13.8266 12.5378 13.9176 12.5277H19.1312C19.2686 12.5205 19.3991 12.4659 19.5001 12.3734C19.601 12.2809 19.666 12.1563 19.6837 12.0213C19.7037 11.8792 19.6684 11.7349 19.5849 11.6176C19.5015 11.5003 19.376 11.4187 19.2341 11.3895L19.0619 11.3492C19.1217 10.5826 19.1838 9.82298 19.2436 9.05156H19.4015C21.0612 9.05156 22.721 9.05156 24.3807 9.05156C24.9328 9.06132 25.4595 9.283 25.8495 9.66977C26.2395 10.0566 26.4624 10.5782 26.471 11.1245C26.471 14.6345 26.471 18.1437 26.471 21.6522C26.4635 22.2021 26.2389 22.7274 25.8452 23.1156C25.4514 23.5038 24.9198 23.7243 24.364 23.7298C19.1025 23.7298 13.8451 23.7298 8.59159 23.7298C8.12659 23.7251 7.67587 23.5702 7.30804 23.2887C6.94021 23.0072 6.67541 22.6145 6.55397 22.1704C6.52527 22.0947 6.49896 22.0095 6.47266 21.9266ZM10.2035 17.4306C9.29949 17.9394 8.86901 18.4245 8.60833 19.2078C8.4589 19.762 8.41351 20.3387 8.4744 20.9091C8.47954 20.9837 8.49957 21.0565 8.53332 21.1233C8.56707 21.1902 8.61386 21.2498 8.67101 21.2986C8.72816 21.3475 8.79453 21.3846 8.86628 21.4079C8.93803 21.4312 9.01374 21.4403 9.08903 21.4345H15.2593C15.3428 21.4386 15.4262 21.4253 15.5041 21.3954C15.5821 21.3655 15.6528 21.3197 15.7117 21.261C15.7705 21.2023 15.8163 21.132 15.8459 21.0547C15.8755 20.9773 15.8883 20.8947 15.8835 20.8121C15.8835 20.5542 15.8835 20.2963 15.8835 20.0407C15.8808 19.6598 15.7999 19.2834 15.6458 18.9344C15.4916 18.5854 15.2673 18.2711 14.9866 18.0104C14.7256 17.7938 14.4534 17.5908 14.1711 17.4023C14.4684 17.0303 14.6533 16.5829 14.7046 16.1114C14.7559 15.64 14.6715 15.1639 14.4612 14.7378C14.2508 14.3118 13.923 13.9533 13.5156 13.7037C13.1082 13.454 12.6378 13.3233 12.1586 13.3268C11.6794 13.3302 11.2109 13.4676 10.8072 13.723C10.4035 13.9785 10.081 14.3417 9.87691 14.7707C9.67279 15.1996 9.59537 15.677 9.65358 16.1476C9.71179 16.6182 9.90326 17.063 10.2059 17.4306H10.2035ZM21.3506 14.0918H18.6792C18.5521 14.0833 18.4255 14.1147 18.3173 14.1814C18.2092 14.248 18.1249 14.3467 18.0766 14.4633C18.0412 14.5557 18.0302 14.6555 18.0446 14.7533C18.059 14.851 18.0983 14.9436 18.1589 15.0222C18.2194 15.1008 18.2991 15.1628 18.3906 15.2025C18.482 15.2421 18.5822 15.2581 18.6816 15.2489C19.6383 15.2489 20.5949 15.2489 21.5682 15.2489H24.0244C24.1516 15.2577 24.2784 15.2266 24.3866 15.1598C24.4948 15.0931 24.579 14.9943 24.6271 14.8774C24.6627 14.7868 24.6747 14.6887 24.6619 14.5923C24.649 14.4959 24.6117 14.4043 24.5535 14.3259C24.4953 14.2475 24.4181 14.185 24.3289 14.1441C24.2397 14.1031 24.1416 14.0852 24.0435 14.0918C23.1467 14.0776 22.2498 14.08 21.3506 14.08V14.0918ZM21.3506 17.9584C22.2498 17.9584 23.1467 17.9584 24.0435 17.9584C24.1235 17.9634 24.2036 17.9522 24.279 17.9254C24.3544 17.8986 24.4234 17.8568 24.4818 17.8026C24.5402 17.7484 24.5868 17.6829 24.6186 17.6102C24.6504 17.5374 24.6669 17.459 24.6669 17.3798C24.6669 17.3005 24.6504 17.2221 24.6186 17.1494C24.5868 17.0767 24.5402 17.0112 24.4818 16.957C24.4234 16.9027 24.3544 16.8609 24.279 16.8342C24.2036 16.8074 24.1235 16.7962 24.0435 16.8012C22.2498 16.8012 20.4554 16.8012 18.6601 16.8012C18.5319 16.8068 18.4071 16.8433 18.2966 16.9077C18.1923 16.9696 18.112 17.0644 18.0687 17.1768C18.0253 17.2892 18.0213 17.4128 18.0574 17.5277C18.0919 17.6563 18.1703 17.7692 18.2792 17.8473C18.3882 17.9253 18.521 17.9637 18.6553 17.956C19.5569 17.9489 20.4538 17.9465 21.3506 17.9465V17.9584ZM21.3506 19.5035H18.6649C18.5849 19.4985 18.5048 19.5097 18.4294 19.5365C18.354 19.5633 18.285 19.6051 18.2266 19.6593C18.1682 19.7135 18.1216 19.779 18.0898 19.8517C18.058 19.9245 18.0415 20.0029 18.0415 20.0821C18.0415 20.1614 18.058 20.2398 18.0898 20.3125C18.1216 20.3852 18.1682 20.4507 18.2266 20.5049C18.285 20.5592 18.354 20.601 18.4294 20.6277C18.5048 20.6545 18.5849 20.6657 18.6649 20.6607C20.4586 20.6607 22.2522 20.6607 24.0483 20.6607C24.2135 20.6476 24.371 20.5858 24.5003 20.4832C24.5881 20.4091 24.6484 20.308 24.6713 20.196C24.6943 20.0841 24.6787 19.9677 24.6271 19.8656C24.5808 19.7549 24.501 19.6611 24.3986 19.5971C24.2963 19.5331 24.1764 19.5021 24.0555 19.5083L21.3506 19.5035Z" fill="white"/>
<path d="M17.9921 6.42578C18.1453 6.46412 18.2727 6.53738 18.3512 6.63231C18.4298 6.72723 18.4542 6.83756 18.4201 6.94334C18.3125 7.76702 18.2145 8.59226 18.1164 9.41752C18.0447 10.0203 17.9777 10.6231 17.9083 11.2258C17.9083 11.2716 17.894 11.3173 17.8844 11.3678H15.0528C15.0169 11.0948 14.9835 10.8266 14.9524 10.5584C14.8615 9.81462 14.773 9.07091 14.6869 8.32719C14.6319 7.85381 14.5841 7.3962 14.5195 6.93071C14.4879 6.82669 14.5137 6.71867 14.5922 6.62608C14.6707 6.5335 14.7967 6.46246 14.9476 6.42578H17.9921Z" fill="white"/>
<path d="M9.64603 20.2487C9.61907 20.0039 9.64524 19.7563 9.72278 19.5223C9.80032 19.2884 9.92744 19.0735 10.0957 18.892C10.2639 18.7106 10.4693 18.5668 10.6982 18.4702C10.9271 18.3736 11.1742 18.3265 11.423 18.332H12.9249C13.1737 18.3265 13.4207 18.3736 13.6496 18.4702C13.8785 18.5668 14.084 18.7106 14.2522 18.892C14.4204 19.0735 14.5475 19.2884 14.6251 19.5223C14.7026 19.7563 14.7288 20.0039 14.7018 20.2487H9.64603Z" fill="white"/>
<path d="M13.5514 15.8309C13.549 16.0986 13.4664 16.3594 13.3139 16.5805C13.1614 16.8016 12.9461 16.9729 12.6951 17.0726C12.4441 17.1724 12.1688 17.1962 11.9042 17.141C11.6395 17.0858 11.3974 16.9541 11.2085 16.7625C11.0196 16.571 10.8924 16.3282 10.8432 16.0651C10.7939 15.8019 10.8247 15.5302 10.9317 15.2844C11.0387 15.0386 11.2171 14.8298 11.4442 14.6844C11.6713 14.5391 11.9369 14.4637 12.2074 14.4679C12.3862 14.4698 12.5628 14.5065 12.7272 14.5761C12.8917 14.6456 13.0406 14.7467 13.1654 14.8733C13.2903 14.9999 13.3887 15.1497 13.4549 15.314C13.5212 15.4784 13.554 15.654 13.5514 15.8309Z" fill="white"/>
</g>
<defs>
<clipPath id="clip0_300_29394">
<rect width="20.4958" height="17.8063" fill="white" transform="translate(6.47266 5.93555)"/>
</clipPath>
</defs>
</svg>
