<svg width="28" height="28" viewBox="0 0 28 28" fill="none" xmlns="http://www.w3.org/2000/svg">
<circle cx="14" cy="14" r="14" fill="#CED4DA"/>
<g clip-path="url(#clip0_350_40291)">
<path d="M19.0607 12.3754C19.0597 13.7171 18.6498 15.0282 17.8828 16.1429C17.1157 17.2576 16.0261 18.1256 14.7519 18.6371C13.4777 19.1486 12.0763 19.2805 10.7251 19.0161C9.37383 18.7517 8.13356 18.103 7.16135 17.152C6.18915 16.201 5.52872 14.9905 5.26372 13.6739C4.99872 12.3573 5.14105 10.9938 5.6727 9.75599C6.20435 8.51818 7.1014 7.46178 8.25025 6.72058C9.3991 5.97939 10.7481 5.58674 12.1263 5.59234C13.9689 5.59983 15.7334 6.31794 17.0332 7.58933C18.3329 8.86073 19.062 10.5818 19.0607 12.3754ZM12.0876 17.9203C13.2147 17.9226 14.3171 17.5996 15.2556 16.992C16.1941 16.3844 16.9264 15.5195 17.3599 14.5068C17.7935 13.4941 17.9088 12.3789 17.6912 11.3024C17.4737 10.2259 16.9331 9.23639 16.1378 8.45895C15.3425 7.68151 14.3283 7.15108 13.2233 6.93476C12.1184 6.71843 10.9723 6.82592 9.93008 7.24362C8.88787 7.66132 7.9963 8.37047 7.36812 9.28141C6.73995 10.1923 6.40337 11.2641 6.40097 12.3613C6.40222 13.8318 7.00074 15.2422 8.06602 16.2849C9.13129 17.3276 10.5769 17.918 12.0876 17.9274V17.9203Z" fill="white"/>
<path d="M16.2695 18.5523C17.1336 17.9923 17.8749 17.2708 18.4502 16.4297C18.7361 16.7104 19.0123 16.9745 19.2812 17.2458C19.3126 17.2886 19.3578 17.32 19.4096 17.3349C19.4614 17.3499 19.5168 17.3475 19.5671 17.3283C19.6677 17.2944 19.7763 17.2903 19.8793 17.3163C19.9823 17.3423 20.0752 17.3973 20.1462 17.4745C20.8997 18.2033 21.6653 18.9203 22.3898 19.6726C22.7131 20.0411 22.8814 20.5149 22.8608 20.9991C22.8402 21.4832 22.6322 21.9419 22.2787 22.283C21.9252 22.6242 21.4522 22.8226 20.9547 22.8384C20.4571 22.8542 19.9719 22.6864 19.5962 22.3684C18.8306 21.6609 18.0988 20.925 17.355 20.1963C17.2728 20.125 17.2148 20.0312 17.1884 19.9273C17.162 19.8233 17.1686 19.714 17.2072 19.6137C17.2231 19.5718 17.2243 19.526 17.2107 19.4834C17.1972 19.4407 17.1695 19.4036 17.1321 19.3778C16.8413 19.1113 16.57 18.8424 16.2695 18.5523Z" fill="white"/>
<path d="M8.93776 11.3214C8.91034 11.1623 8.93958 10.9988 9.02066 10.8581C9.10174 10.7175 9.22979 10.6079 9.38356 10.5478C10.1541 10.1862 10.9181 9.8143 11.6756 9.43222C11.8028 9.35989 11.9475 9.32178 12.0948 9.32178C12.2421 9.32178 12.3868 9.35989 12.514 9.43222C13.2627 9.81194 14.0138 10.1799 14.7746 10.5313C14.9365 10.5948 15.0721 10.709 15.1599 10.856C15.2476 11.0029 15.2826 11.1742 15.2591 11.3426C15.1986 12.9063 14.508 14.1728 13.345 15.2129C13.0785 15.4488 12.8047 15.6846 12.5261 15.9205C12.4208 16.0257 12.2782 16.088 12.1274 16.0945C11.9767 16.1011 11.829 16.0515 11.7144 15.9559C11.0171 15.4383 10.3974 14.8287 9.873 14.1445C9.27994 13.3149 8.95434 12.332 8.93776 11.3214ZM11.9131 12.5832C11.695 12.3615 11.5085 12.1634 11.3122 11.9747C11.2551 11.909 11.1847 11.8555 11.1053 11.8177C11.0258 11.78 10.9392 11.7587 10.8509 11.7552C10.7626 11.7518 10.6745 11.7663 10.5922 11.7978C10.51 11.8293 10.4353 11.8771 10.3731 11.9382C10.3108 11.9993 10.2623 12.0723 10.2306 12.1527C10.1989 12.233 10.1847 12.3189 10.189 12.4048C10.1932 12.4907 10.2158 12.5749 10.2552 12.6519C10.2947 12.7289 10.3502 12.7971 10.4182 12.8521C10.8131 13.2389 11.208 13.6257 11.6054 14.0077C11.6756 14.0924 11.7676 14.1576 11.872 14.1966C11.9764 14.2356 12.0895 14.247 12.1999 14.2298C12.3103 14.2126 12.4141 14.1672 12.5007 14.0984C12.5873 14.0296 12.6538 13.9397 12.6933 13.8379C12.8871 13.4676 13.0761 13.095 13.2675 12.7223C13.4904 12.2884 13.723 11.8568 13.9338 11.4157C13.985 11.3161 14.0073 11.2047 13.9984 11.0936C13.9895 10.9825 13.9496 10.8758 13.8831 10.7851C13.8166 10.6944 13.7259 10.6231 13.6209 10.5788C13.5158 10.5345 13.4004 10.5189 13.2869 10.5336C13.1749 10.5465 13.0684 10.588 12.9782 10.6539C12.888 10.7197 12.8173 10.8076 12.7732 10.9086L11.9131 12.5832Z" fill="white"/>
</g>
<defs>
<clipPath id="clip0_350_40291">
<rect width="17.7333" height="17.2667" fill="white" transform="translate(5.13379 5.59961)"/>
</clipPath>
</defs>
</svg>
