<svg width="28" height="28" viewBox="0 0 28 28" fill="none" xmlns="http://www.w3.org/2000/svg">
<circle cx="14" cy="14" r="14" fill="#B962FD"/>
<g clip-path="url(#clip0_350_44265)">
<path d="M4.66682 10.2569V7.7774C4.71229 7.67887 4.77757 7.59077 4.85859 7.51858C4.9396 7.44639 5.03463 7.39167 5.13773 7.35782C7.26387 6.48147 9.38853 5.60067 11.5117 4.71539C12.2928 4.39178 13.074 4.06147 13.8529 3.7334H14.143C14.156 3.74524 14.1702 3.75571 14.1854 3.76465L17.8277 5.2711C19.5179 5.9704 21.2058 6.67116 22.8916 7.37343C23.2308 7.51626 23.3268 7.65689 23.3268 8.00728C23.3268 8.66342 23.3089 9.31955 23.3268 9.97347C23.3415 10.0667 23.3341 10.1621 23.3051 10.2519C23.276 10.3417 23.2262 10.4234 23.1597 10.4904C23.0932 10.5574 23.0118 10.6077 22.9222 10.6373C22.8325 10.667 22.7372 10.675 22.6439 10.6609C22.3738 10.6386 22.1038 10.6609 21.836 10.6609V16.8585H22.0234C22.1307 16.857 22.2357 16.8891 22.3238 16.9504C22.4119 17.0116 22.4785 17.0989 22.5144 17.2C22.5426 17.2856 22.5562 17.3754 22.5546 17.4656C22.5546 17.9856 22.5546 18.5078 22.5546 19.0278H22.6773C23.1349 19.0278 23.3201 19.2287 23.3201 19.6974C23.3201 20.3669 23.3045 21.0364 23.3201 21.7194C23.3287 21.8094 23.3174 21.9003 23.2868 21.9855C23.2562 22.0706 23.2071 22.148 23.1431 22.212C23.0792 22.2759 23.0018 22.325 22.9167 22.3556C22.8315 22.3862 22.7406 22.3975 22.6506 22.3889C16.8851 22.38 11.1211 22.38 5.35867 22.3889C5.21424 22.406 5.06816 22.3756 4.94253 22.3023C4.8169 22.2291 4.71855 22.1169 4.66235 21.9827V19.4318C4.72195 19.2847 4.83186 19.1636 4.97247 19.09C5.11309 19.0164 5.27527 18.9952 5.43009 19.0301C5.43009 18.4833 5.43009 17.961 5.43009 17.441C5.42168 17.3623 5.4307 17.2826 5.45651 17.2077C5.48233 17.1328 5.5243 17.0645 5.57946 17.0076C5.63462 16.9508 5.70162 16.9067 5.7757 16.8787C5.84978 16.8506 5.92913 16.8391 6.00812 16.8451L6.14649 16.834V10.6564C5.87644 10.6564 5.61756 10.643 5.35867 10.6564C5.2151 10.6785 5.0683 10.6509 4.94252 10.5783C4.81673 10.5056 4.71947 10.3923 4.66682 10.2569ZM9.454 10.6653V16.8474H9.55666C9.64007 16.8363 9.72491 16.8446 9.80458 16.8717C9.88425 16.8988 9.95659 16.9439 10.016 17.0035C10.0754 17.0631 10.1202 17.1356 10.147 17.2154C10.1738 17.2951 10.1818 17.38 10.1704 17.4634V19.0256H17.8254C17.8254 18.4766 17.8254 17.9432 17.8254 17.4076C17.823 17.3346 17.8355 17.2619 17.8621 17.1939C17.8888 17.1259 17.9291 17.0641 17.9805 17.0123C18.0319 16.9605 18.0934 16.9197 18.1611 16.8925C18.2289 16.8653 18.3015 16.8522 18.3745 16.8541H18.5441V10.6743L9.454 10.6653ZM5.76486 9.54942H22.2354C22.2354 9.1901 22.2354 8.84419 22.2354 8.50049C22.2459 8.43689 22.2322 8.37168 22.1972 8.31761C22.1621 8.26354 22.1081 8.22451 22.0457 8.20814C19.4301 7.12944 16.8174 6.04627 14.2077 4.95865C14.1402 4.9273 14.0667 4.91105 13.9923 4.91105C13.9179 4.91105 13.8444 4.9273 13.777 4.95865C11.8071 5.78143 9.8334 6.59975 7.85604 7.41361L5.76039 8.28625L5.76486 9.54942ZM5.76486 21.2842H22.2154V20.1393H5.76932L5.76486 21.2842ZM7.26238 10.6631V16.8362H8.33588V10.6631H7.26238ZM20.7245 16.8429V10.6698H19.651V16.8429H20.7245ZM6.53036 19.0256H9.05897V17.9543H6.53482L6.53036 19.0256ZM18.9235 17.9521V19.0256H21.4521V17.9521H18.9235Z" fill="white"/>
<path d="M14.0001 4.6665L5.6001 7.93317V10.0332H22.4001L22.6334 8.1665L14.0001 4.6665Z" fill="white"/>
<path d="M12.3576 15.9927C12.3508 15.9201 12.3587 15.847 12.3807 15.7775C12.4026 15.708 12.4382 15.6436 12.4854 15.5881C12.5326 15.5326 12.5905 15.4871 12.6555 15.4542C12.7205 15.4214 12.7915 15.4018 12.8642 15.3968C12.9401 15.3902 13.0165 15.3996 13.0885 15.4246C13.1605 15.4497 13.2264 15.4896 13.2818 15.5419C13.3372 15.5942 13.381 15.6576 13.4102 15.728C13.4394 15.7984 13.4533 15.8741 13.4511 15.9503C13.453 16.0589 13.4871 16.1644 13.5492 16.2536C13.6113 16.3427 13.6985 16.4113 13.7997 16.4506C13.9009 16.49 14.0116 16.4983 14.1175 16.4745C14.2235 16.4508 14.32 16.3959 14.3947 16.3171C14.4694 16.2383 14.519 16.139 14.537 16.0319C14.5551 15.9248 14.5408 15.8148 14.4961 15.7159C14.4514 15.6169 14.3782 15.5335 14.2859 15.4762C14.1936 15.419 14.0864 15.3906 13.9778 15.3946C13.603 15.3914 13.2406 15.2598 12.9511 15.0217C12.6616 14.7836 12.4625 14.4535 12.3871 14.0863C12.3116 13.7192 12.3643 13.3372 12.5364 13.0043C12.7086 12.6713 12.9897 12.4074 13.3328 12.2567C13.3723 12.2444 13.4062 12.2187 13.4286 12.1841C13.451 12.1494 13.4606 12.108 13.4556 12.067C13.4501 11.947 13.4651 11.827 13.5002 11.7121C13.5489 11.5964 13.6363 11.5013 13.7475 11.443C13.8587 11.3848 13.9867 11.3671 14.1095 11.393C14.2309 11.4142 14.3407 11.478 14.4192 11.5729C14.4977 11.6678 14.5399 11.7876 14.538 11.9108C14.5259 11.9998 14.5451 12.0904 14.5923 12.1669C14.6395 12.2434 14.7118 12.3012 14.7969 12.3303C15.0521 12.4619 15.2657 12.6618 15.4139 12.9077C15.5621 13.1536 15.639 13.4359 15.6361 13.723C15.6427 13.7968 15.6342 13.8712 15.6112 13.9417C15.5882 14.0122 15.5511 14.0772 15.5021 14.1329C15.4532 14.1886 15.3934 14.2337 15.3264 14.2656C15.2595 14.2975 15.1868 14.3154 15.1127 14.3183C15.0386 14.3211 14.9647 14.3089 14.8955 14.2824C14.8263 14.2558 14.7632 14.2154 14.7101 14.1637C14.6569 14.112 14.6149 14.05 14.5865 13.9815C14.558 13.913 14.5438 13.8395 14.5447 13.7654C14.5455 13.6552 14.5129 13.5474 14.4512 13.4561C14.3895 13.3649 14.3015 13.2945 14.1989 13.2543C14.0964 13.2141 13.984 13.206 13.8768 13.2309C13.7695 13.2559 13.6723 13.3128 13.598 13.3942C13.5237 13.4755 13.4759 13.5775 13.4608 13.6866C13.4456 13.7957 13.464 13.9069 13.5134 14.0054C13.5627 14.1038 13.6408 14.185 13.7373 14.2382C13.8338 14.2914 13.9441 14.3141 14.0537 14.3032C14.3921 14.3144 14.7188 14.43 14.989 14.6341C15.2591 14.8383 15.4594 15.1211 15.5624 15.4437C15.684 15.8166 15.6661 16.2209 15.5122 16.5816C15.3583 16.9424 15.0788 17.2351 14.7255 17.4054C14.6603 17.43 14.6059 17.4768 14.572 17.5377C14.538 17.5986 14.5268 17.6696 14.5402 17.7379C14.5459 17.8123 14.5359 17.8871 14.5107 17.9573C14.4856 18.0276 14.446 18.0917 14.3944 18.1456C14.3428 18.1995 14.2804 18.242 14.2113 18.2702C14.1423 18.2984 14.068 18.3117 13.9935 18.3093C13.9234 18.3117 13.8536 18.2999 13.7883 18.2745C13.7229 18.2492 13.6634 18.2108 13.6133 18.1618C13.5632 18.1127 13.5236 18.054 13.4969 17.9892C13.4702 17.9244 13.4569 17.8549 13.4578 17.7848C13.4712 17.6958 13.4524 17.605 13.405 17.5286C13.3576 17.4522 13.2846 17.395 13.1989 17.3675C12.9484 17.2347 12.7381 17.0371 12.5901 16.7952C12.4421 16.5534 12.3618 16.2762 12.3576 15.9927Z" fill="white"/>
</g>
<defs>
<clipPath id="clip0_350_44265">
<rect width="18.6667" height="18.6667" fill="white" transform="translate(4.66675 3.7334)"/>
</clipPath>
</defs>
</svg>
