<svg width="55" height="55" viewBox="0 0 55 55" fill="none" xmlns="http://www.w3.org/2000/svg">
<path d="M21.6644 4.60936L31.0159 13.767C31.2178 13.9598 31.4628 14.1018 31.7306 14.1811C31.9984 14.2605 32.2813 14.275 32.5558 14.2235L45.4888 11.7146C45.8029 11.6516 46.1284 11.6783 46.428 11.7914C46.7276 11.9044 46.9893 12.0995 47.1832 12.3542C47.3772 12.6089 47.4954 12.913 47.5246 13.2318C47.5538 13.5506 47.4928 13.8712 47.3484 14.157L41.475 25.8638C41.3512 26.114 41.2896 26.3903 41.2955 26.6693C41.3015 26.9483 41.3747 27.2217 41.5091 27.4663L47.8617 38.9528C48.0208 39.2324 48.0976 39.5513 48.0832 39.8728C48.0689 40.1942 47.9639 40.505 47.7805 40.7695C47.597 41.0339 47.3426 41.2412 47.0464 41.3674C46.7502 41.4936 46.4244 41.5336 46.1066 41.4828L33.1133 39.542C32.8371 39.5028 32.5555 39.5303 32.292 39.6222C32.0286 39.714 31.7909 39.8676 31.599 40.0701L22.6295 49.669C22.41 49.9015 22.1299 50.0683 21.8209 50.1507C21.5118 50.233 21.1859 50.2277 20.8798 50.1353C20.5737 50.0428 20.2994 49.8669 20.0878 49.6273C19.8762 49.3878 19.7356 49.0939 19.6818 48.7789L17.515 35.8328C17.4736 35.5557 17.3631 35.2936 17.1936 35.0705C17.0241 34.8474 16.8012 34.6707 16.5453 34.5565L4.66622 29.0399C4.37542 28.9058 4.12825 28.6927 3.95291 28.4248C3.77758 28.157 3.68115 27.8453 3.67467 27.5252C3.66818 27.2051 3.75189 26.8897 3.91622 26.6148C4.08056 26.3399 4.31888 26.1167 4.60401 25.9707L16.293 19.8942C16.5401 19.7639 16.7526 19.5766 16.913 19.3479C17.0733 19.1192 17.1769 18.8557 17.2152 18.5791L18.8452 5.5924C18.901 5.29483 19.0345 5.01728 19.232 4.78771C19.4296 4.55814 19.6843 4.3847 19.9703 4.28496C20.2563 4.18523 20.5636 4.16273 20.861 4.21969C21.1585 4.27665 21.4356 4.41105 21.6644 4.60936Z" fill="white" stroke="#6C757D" stroke-width="3.37322" stroke-miterlimit="10"/>
<path d="M9.75554 32.3155C4.94237 36.1313 -0.47223 42.5476 16.3748 37.6859C33.2218 32.8242 24.1743 35.4351 17.5447 37.3483L45.6231 29.2454C50.585 27.409 57.3132 23.2023 44.5302 21.0667" stroke="#6C757D" stroke-width="3.37322"/>
<mask id="path-3-inside-1_299_30095" fill="white">
<path d="M4.60805 8.34402C4.79887 8.21843 5.02581 8.15865 5.25373 8.17405C5.48164 8.18944 5.69831 8.27893 5.8705 8.42903C6.55297 8.92535 7.20743 9.42467 7.86499 9.95149C7.94347 10.0207 8.03819 10.0691 8.14027 10.092C8.24235 10.115 8.34884 10.1115 8.44938 10.0825L10.81 9.57578C11.0458 9.50147 11.2996 9.50709 11.5318 9.592C11.7639 9.67691 11.9613 9.83642 12.0935 10.0453C12.2257 10.2542 12.2854 10.5008 12.2628 10.747C12.2401 10.9932 12.1366 11.225 11.9685 11.4063C11.4838 12.0372 11.0162 12.6721 10.5181 13.2819C10.4367 13.3728 10.3804 13.4835 10.3551 13.6029C10.3298 13.7223 10.3364 13.8464 10.374 13.9625C10.5498 14.7059 10.6944 15.4689 10.8596 16.2189C10.9486 16.4614 10.9506 16.7274 10.8661 16.9715C10.7816 17.2156 10.6157 17.4228 10.3959 17.5585C9.96455 17.8314 9.52726 17.7694 8.99447 17.3698C8.46169 16.9703 7.75269 16.4319 7.13894 15.951C7.05642 15.8767 6.95634 15.8249 6.84804 15.8006C6.73974 15.7762 6.62702 15.7801 6.52067 15.8119L4.20473 16.3199C3.96694 16.4072 3.70643 16.4104 3.46657 16.3289C3.22672 16.2475 3.02175 16.0865 2.88629 15.8724C2.75083 15.6584 2.69304 15.4042 2.72209 15.1526C2.75114 14.901 2.86556 14.6669 3.04623 14.4894C3.53096 13.8584 4.00907 13.2169 4.51098 12.5899C4.58114 12.5105 4.63072 12.4153 4.65545 12.3123C4.68018 12.2093 4.67891 12.102 4.65243 11.9994C4.45775 11.1797 4.29788 10.3673 4.12038 9.55141C4.05974 9.32441 4.07425 9.08408 4.16229 8.86624C4.25033 8.6484 4.40672 8.46514 4.60805 8.34402Z"/>
</mask>
<path d="M4.60805 8.34402C4.79887 8.21843 5.02581 8.15865 5.25373 8.17405C5.48164 8.18944 5.69831 8.27893 5.8705 8.42903C6.55297 8.92535 7.20743 9.42467 7.86499 9.95149C7.94347 10.0207 8.03819 10.0691 8.14027 10.092C8.24235 10.115 8.34884 10.1115 8.44938 10.0825L10.81 9.57578C11.0458 9.50147 11.2996 9.50709 11.5318 9.592C11.7639 9.67691 11.9613 9.83642 12.0935 10.0453C12.2257 10.2542 12.2854 10.5008 12.2628 10.747C12.2401 10.9932 12.1366 11.225 11.9685 11.4063C11.4838 12.0372 11.0162 12.6721 10.5181 13.2819C10.4367 13.3728 10.3804 13.4835 10.3551 13.6029C10.3298 13.7223 10.3364 13.8464 10.374 13.9625C10.5498 14.7059 10.6944 15.4689 10.8596 16.2189C10.9486 16.4614 10.9506 16.7274 10.8661 16.9715C10.7816 17.2156 10.6157 17.4228 10.3959 17.5585C9.96455 17.8314 9.52726 17.7694 8.99447 17.3698C8.46169 16.9703 7.75269 16.4319 7.13894 15.951C7.05642 15.8767 6.95634 15.8249 6.84804 15.8006C6.73974 15.7762 6.62702 15.7801 6.52067 15.8119L4.20473 16.3199C3.96694 16.4072 3.70643 16.4104 3.46657 16.3289C3.22672 16.2475 3.02175 16.0865 2.88629 15.8724C2.75083 15.6584 2.69304 15.4042 2.72209 15.1526C2.75114 14.901 2.86556 14.6669 3.04623 14.4894C3.53096 13.8584 4.00907 13.2169 4.51098 12.5899C4.58114 12.5105 4.63072 12.4153 4.65545 12.3123C4.68018 12.2093 4.67891 12.102 4.65243 11.9994C4.45775 11.1797 4.29788 10.3673 4.12038 9.55141C4.05974 9.32441 4.07425 9.08408 4.16229 8.86624C4.25033 8.6484 4.40672 8.46514 4.60805 8.34402Z" fill="#6C757D"/>
<path d="M5.8705 8.42903L4.0234 10.548L4.11688 10.6295L4.21718 10.7024L5.8705 8.42903ZM7.86499 9.95149L9.72434 7.84325L9.67447 7.79927L9.62258 7.75769L7.86499 9.95149ZM8.44938 10.0825L7.85938 7.33414L7.76453 7.3545L7.67131 7.38135L8.44938 10.0825ZM10.81 9.57578L11.4 12.3242L11.5291 12.2965L11.655 12.2568L10.81 9.57578ZM12.0935 10.0453L9.71822 11.5486L12.0935 10.0453ZM11.9685 11.4063L9.90715 9.49508L9.81867 9.59051L9.73939 9.6937L11.9685 11.4063ZM10.5181 13.2819L12.6115 15.158L12.6546 15.1099L12.6954 15.0599L10.5181 13.2819ZM10.374 13.9625L13.1096 13.3157L13.0832 13.2041L13.0479 13.095L10.374 13.9625ZM10.8596 16.2189L8.11445 16.8238L8.15526 17.009L8.22058 17.187L10.8596 16.2189ZM10.3959 17.5585L8.9198 15.1662L8.90615 15.1746L8.89259 15.1832L10.3959 17.5585ZM7.13894 15.951L5.2587 18.0406L5.32989 18.1047L5.40527 18.1637L7.13894 15.951ZM6.52067 15.8119L7.12293 18.5576L7.22524 18.5352L7.32559 18.5052L6.52067 15.8119ZM4.20473 16.3199L3.60247 13.5741L3.41557 13.6151L3.23595 13.6811L4.20473 16.3199ZM2.88629 15.8724L5.26157 14.3692L2.88629 15.8724ZM3.04623 14.4894L5.01645 16.4944L5.15607 16.3572L5.27533 16.202L3.04623 14.4894ZM4.51098 12.5899L2.40509 10.7279L2.35945 10.7795L2.31639 10.8333L4.51098 12.5899ZM4.65243 11.9994L1.91747 12.6489L1.92383 12.6757L1.93071 12.7023L4.65243 11.9994ZM4.12038 9.55141L6.86715 8.95387L6.85316 8.88954L6.83617 8.82595L4.12038 9.55141ZM6.15344 10.6921C5.83176 10.9038 5.44947 11.0047 5.0643 10.9787L5.44316 5.36942C4.60215 5.31262 3.76597 5.53303 3.06266 5.99592L6.15344 10.6921ZM5.0643 10.9787C4.68069 10.9528 4.31487 10.8021 4.0234 10.548L7.71761 6.31006C7.08175 5.75578 6.2826 5.42612 5.44316 5.36942L5.0643 10.9787ZM4.21718 10.7024C4.86487 11.1735 5.48455 11.6463 6.10741 12.1453L9.62258 7.75769C8.93032 7.20308 8.24106 6.67724 7.52382 6.15563L4.21718 10.7024ZM6.00565 12.0597C6.43813 12.4411 6.96017 12.7079 7.52368 12.8346L8.75686 7.34946C9.1162 7.43025 9.4488 7.60024 9.72434 7.84325L6.00565 12.0597ZM7.52368 12.8346C8.09236 12.9624 8.67845 12.9419 9.22746 12.7837L7.67131 7.38135C8.01922 7.28114 8.39235 7.26751 8.75686 7.34946L7.52368 12.8346ZM9.03939 12.8309L11.4 12.3242L10.22 6.82738L7.85938 7.33414L9.03939 12.8309ZM11.655 12.2568C11.3002 12.3686 10.9175 12.3605 10.5663 12.232L12.4973 6.95199C11.6817 6.65372 10.7913 6.63434 9.96498 6.89478L11.655 12.2568ZM10.5663 12.232C10.2137 12.103 9.91634 11.8617 9.71822 11.5486L14.4688 8.54203C14.0062 7.8112 13.3142 7.25077 12.4973 6.95199L10.5663 12.232ZM9.71822 11.5486C9.52009 11.2356 9.42918 10.8635 9.46355 10.4896L15.062 11.0044C15.1416 10.1381 14.9313 9.27287 14.4688 8.54203L9.71822 11.5486ZM9.46355 10.4896C9.4978 10.1172 9.65426 9.76784 9.90715 9.49508L14.0298 13.3175C14.6189 12.6822 14.9825 11.8691 15.062 11.0044L9.46355 10.4896ZM9.73939 9.6937C9.20776 10.3857 8.8043 10.9364 8.34086 11.5039L12.6954 15.0599C13.2281 14.4077 13.7598 13.6887 14.1976 13.1189L9.73939 9.6937ZM8.42476 11.4059C8.01626 11.8617 7.73251 12.4182 7.60495 13.0211L13.1052 14.1848C13.0282 14.5489 12.8571 14.884 12.6115 15.158L8.42476 11.4059ZM7.60495 13.0211C7.4778 13.6221 7.51073 14.246 7.70023 14.83L13.0479 13.095C13.162 13.4469 13.1819 13.8226 13.1052 14.1848L7.60495 13.0211ZM7.63846 14.6094C7.81458 15.3542 7.91857 15.9348 8.11445 16.8238L13.6048 15.6141C13.4702 15.0031 13.285 14.0575 13.1096 13.3157L7.63846 14.6094ZM8.22058 17.187C8.08518 16.818 8.08336 16.4171 8.20968 16.0521L13.5225 17.8908C13.8178 17.0376 13.812 16.1049 13.4987 15.2508L8.22058 17.187ZM8.20968 16.0521C8.33681 15.6848 8.58733 15.3713 8.9198 15.1662L11.872 19.9507C12.6441 19.4743 13.2265 18.7463 13.5225 17.8908L8.20968 16.0521ZM8.89259 15.1832C9.00865 15.1097 9.18445 15.0218 9.4155 14.9665C9.65198 14.9099 9.89114 14.9008 10.113 14.9311C10.532 14.9882 10.736 15.1622 10.6809 15.1209L7.3081 19.6188C7.78575 19.977 8.47476 20.3818 9.35344 20.5016C10.3187 20.6332 11.195 20.3794 11.8992 19.9337L8.89259 15.1832ZM10.6809 15.1209C10.1571 14.7281 9.46518 14.2025 8.8726 13.7383L5.40527 18.1637C6.0402 18.6612 6.76628 19.2126 7.3081 19.6188L10.6809 15.1209ZM9.01917 13.8614C8.57985 13.4661 8.04508 13.1885 7.46463 13.058L6.23145 18.5431C5.8676 18.4613 5.53299 18.2874 5.2587 18.0406L9.01917 13.8614ZM7.46463 13.058C6.88644 12.928 6.2842 12.9487 5.71575 13.1186L7.32559 18.5052C6.96985 18.6115 6.59305 18.6244 6.23145 18.5431L7.46463 13.058ZM5.91841 13.0661L3.60247 13.5741L4.80699 19.0656L7.12293 18.5576L5.91841 13.0661ZM3.23595 13.6811C3.60121 13.547 4.00159 13.542 4.3704 13.6672L2.56275 18.9907C3.41126 19.2788 4.33268 19.2674 5.17351 18.9587L3.23595 13.6811ZM4.3704 13.6672C4.73692 13.7916 5.05219 14.0383 5.26157 14.3692L0.511014 17.3757C0.991316 18.1346 1.71652 18.7033 2.56275 18.9907L4.3704 13.6672ZM5.26157 14.3692C5.47095 14.7 5.55895 15.0905 5.51456 15.475L-0.0703752 14.8302C-0.172875 15.718 0.0307113 16.6168 0.511014 17.3757L5.26157 14.3692ZM5.51456 15.475C5.46989 15.8619 5.29399 16.2217 5.01645 16.4944L1.076 12.4844C0.437124 13.1122 0.032402 13.94 -0.0703752 14.8302L5.51456 15.475ZM5.27533 16.202C5.794 15.5268 6.22633 14.9452 6.70558 14.3464L2.31639 10.8333C1.79182 11.4887 1.26792 12.19 0.817128 12.7768L5.27533 16.202ZM6.61687 14.4519C6.99149 14.0282 7.25663 13.519 7.38879 12.9685L1.92212 11.656C2.00482 11.3116 2.17079 10.9928 2.40509 10.7279L6.61687 14.4519ZM7.38879 12.9685C7.52238 12.4121 7.51401 11.8381 7.37415 11.2965L1.93071 12.7023C1.84381 12.3659 1.83797 12.0064 1.92212 11.656L7.38879 12.9685ZM7.38738 11.3499C7.19973 10.5597 7.06139 9.84674 6.86715 8.95387L1.37361 10.149C1.53436 10.8879 1.71577 11.7996 1.91747 12.6489L7.38738 11.3499ZM6.83617 8.82595C6.93226 9.18564 6.90989 9.56972 6.76852 9.91953L1.55607 7.81295C1.23862 8.59845 1.18723 9.46318 1.40459 10.2769L6.83617 8.82595ZM6.76852 9.91953C6.62821 10.2667 6.37866 10.5593 6.0572 10.7527L3.15891 5.93533C2.43478 6.37098 1.87245 7.03011 1.55607 7.81295L6.76852 9.91953Z" fill="#6C757D" mask="url(#path-3-inside-1_299_30095)"/>
</svg>
