<svg width="54" height="55" viewBox="0 0 54 55" fill="none" xmlns="http://www.w3.org/2000/svg">
<path fill-rule="evenodd" clip-rule="evenodd" d="M34.5076 6.15913C38.5339 8.70697 41.4227 12.6741 42.5844 17.251C43.455 20.7024 43.3877 24.3192 42.3892 27.7367C42.2708 28.189 42.1417 28.6378 42.0021 29.0826C41.5091 29.028 41.0081 29 40.5005 29C33.0446 29 27.0005 35.0442 27.0005 42.5C27.0005 43.6338 27.1403 44.7349 27.4035 45.7871C26.2508 46.1746 25.3201 46.3119 24.5475 46.3799H24.4743H23.5899C21.1568 46.0412 18.8494 45.104 16.8802 43.6547C16.1665 43.1313 15.5992 42.6982 15.0502 42.1988C10.1297 37.8277 6.84624 31.9487 5.72987 25.5108C4.96339 21.6027 5.48493 17.5552 7.2182 13.9603C10.079 8.16704 14.6904 4.6598 20.9182 3.54084C25.6208 2.67482 30.4812 3.61128 34.5076 6.15913ZM22.2907 36.5182H24.267H26.2738C26.4176 36.5358 26.5636 36.5237 26.7024 36.4826C26.8412 36.4415 26.9697 36.3723 27.0799 36.2795C27.1901 36.1867 27.2795 36.0722 27.3423 35.9434C27.4052 35.8147 27.4401 35.6744 27.445 35.5315C27.4534 35.3851 27.4289 35.2386 27.3734 35.1025C27.3179 34.9664 27.2327 34.844 27.1238 34.7441C27.0149 34.6442 26.885 34.5691 26.7434 34.5243C26.6017 34.4795 26.4518 34.466 26.3043 34.4848H22.2541C22.1103 34.4708 21.9651 34.4875 21.8285 34.5338C21.6918 34.5801 21.5668 34.6549 21.4621 34.7531C21.3573 34.8512 21.2752 34.9705 21.2214 35.1028C21.1676 35.235 21.1432 35.3772 21.1501 35.5195C21.1518 35.6611 21.1835 35.8008 21.2431 35.9296C21.3028 36.0585 21.3891 36.1736 21.4965 36.2676C21.6039 36.3616 21.73 36.4325 21.8667 36.4756C22.0035 36.5188 22.1479 36.5333 22.2907 36.5182ZM18.8585 21.6607C17.6792 20.6588 16.1865 20.0874 14.6307 20.0425C14.5441 20.0506 14.4505 20.0549 14.3522 20.0594H14.3522C14.1899 20.0669 14.0148 20.0749 13.8377 20.1018C11.7211 20.5225 10.5178 22.3835 10.9226 24.5411C11.2535 26.1442 12.0641 27.6125 13.2496 28.7567C14.4351 29.9009 15.9411 30.6684 17.5732 30.9601C18.162 31.0712 18.7694 31.0405 19.3436 30.8705C19.9178 30.7006 20.442 30.3964 20.8715 29.9839C21.301 29.5714 21.6232 29.0628 21.8107 28.5012C21.9983 27.9396 22.0456 27.3416 21.9486 26.7581C21.632 24.7265 20.5231 22.8974 18.8585 21.6607ZM34.3634 20.0364C36.8847 20.0687 38.5145 22.0484 38.0606 24.535C37.7282 26.1459 36.9128 27.6212 35.7202 28.7696C34.5275 29.918 33.0125 30.6865 31.3717 30.9756C30.7829 31.0739 30.1789 31.0319 29.6099 30.8533C29.0409 30.6746 28.5234 30.3644 28.1007 29.9485C27.6779 29.5326 27.362 29.023 27.1795 28.4623C26.9969 27.9016 26.9528 27.3059 27.051 26.725C27.401 23.8824 30.2231 20.6621 33.5047 20.1119C33.6872 20.0807 33.8719 20.0696 34.056 20.0585C34.1588 20.0522 34.2614 20.046 34.3634 20.0364Z" fill="white"/>
<circle cx="40.8259" cy="42.6349" r="10.5432" stroke="white" stroke-width="2.7"/>
<line x1="33.5623" y1="35.6118" x2="48.2356" y2="51.5579" stroke="white" stroke-width="2.7"/>
</svg>
