<svg width="26" height="27" viewBox="0 0 26 27" fill="none" xmlns="http://www.w3.org/2000/svg">
<path d="M14.3484 20.1746L8.62081 11.5044L3.69434 13.92L9.47444 23.0105L13.8229 21.3831L14.3484 20.1746Z" fill="#05E4BC"/>
<path d="M12.3522 3.51733H10.8243V5.04126C10.8243 5.40909 11.3538 6.82784 11.3538 7.24821C11.3538 7.58451 11.0008 9.35007 10.8243 10.1908C10.4928 10.8214 9.75639 12.1455 9.46213 12.3978C9.16787 12.65 12.8076 16.9518 14.6642 19.0712L18.3425 18.2304L23.9649 14.7624L23.5971 12.9758V11.0316L22.4936 8.98225L21.6529 7.72113L19.2358 8.98225L21.0223 6.82784L19.9189 5.61928L14.6642 8.98225V7.72113L12.3522 3.51733Z" fill="#B962FD"/>
<path d="M4.54461 13.4658L1.67285 14.9353L2.29891 16.1104L5.17066 14.641L4.54461 13.4658Z" fill="#05E4BC"/>
<path d="M9.66373 21.9967L7.30566 23.5608L8.06382 24.6587L10.4219 23.0946L9.66373 21.9967Z" fill="#05E4BC"/>
<path d="M10.3952 6.07802C10.3258 5.76315 10.2385 5.45235 10.1336 5.14708C10.1336 5.147 10.1336 5.14691 10.1335 5.14683L10.012 4.78934L9.96877 4.66238L9.83778 4.69113C7.34678 5.23792 5.11973 6.60058 3.52429 8.55509C1.92881 10.5097 1.0604 12.9393 1.06289 15.4432L1.0629 15.444C1.08101 18.3497 2.27107 21.1298 4.3724 23.1779C6.47362 25.2259 9.31544 26.3757 12.2776 26.3775H12.2779C15.1199 26.3736 17.8549 25.3127 19.9304 23.4083C22.0059 21.5039 23.2672 18.8977 23.4583 16.1162L23.4783 15.8257L23.2302 15.9781L21.7625 16.8796L21.7051 16.9148L21.6933 16.9812C21.3081 19.154 20.1533 21.1247 18.4312 22.5462C16.7091 23.9678 14.5301 24.749 12.2776 24.7518C9.74234 24.75 7.31192 23.7626 5.5195 22.0072C3.72723 20.2519 2.7192 17.8721 2.71556 15.3902C2.72466 13.2519 3.47912 11.1804 4.85449 9.51923C6.23001 7.85788 8.14405 6.70662 10.2796 6.25707L10.4278 6.22588L10.3952 6.07802Z" fill="#B962FD" stroke="#B962FD" stroke-width="0.3"/>
<path d="M24.2555 12.7784C24.1878 12.7055 24.1067 12.6393 24.0323 12.5663C24.2511 12.3246 24.4038 12.0324 24.4759 11.717C24.5481 11.4017 24.5374 11.0736 24.4448 10.7634C24.3608 10.4516 24.1967 10.1661 23.9682 9.93406C23.7397 9.702 23.4544 9.53114 23.1395 9.43774C23.2143 8.98195 23.1186 8.51502 22.8701 8.12286C22.6216 7.7307 22.2369 7.4397 21.7868 7.30339C21.7858 7.04791 21.7631 6.79294 21.7192 6.54111C21.6488 6.24564 21.5067 5.97115 21.3051 5.74086C21.1035 5.51058 20.8482 5.33129 20.561 5.21814C20.2737 5.105 19.9628 5.06136 19.6547 5.09089C19.3465 5.12042 19.0502 5.22224 18.7907 5.38778L15.8419 7.20395L15.639 7.32989C15.2787 6.07567 14.722 4.88386 13.9887 3.79697C13.7329 3.39469 13.3656 3.07202 12.9297 2.86663C12.4938 2.66124 12.0072 2.5816 11.5269 2.637C10.9584 2.72166 10.4222 2.95012 9.97133 3.29984C9.81292 3.37338 9.68984 3.50433 9.62802 3.66508C9.5662 3.82582 9.57046 4.0038 9.63992 4.16152C9.74814 4.48631 9.85635 4.82436 9.96456 5.1359C10.434 6.44148 10.5436 7.84534 10.2824 9.20574C10.1729 9.86061 9.89343 10.4769 9.47084 10.9954C9.46019 11.0148 9.4452 11.0315 9.42699 11.0444C9.40877 11.0573 9.38782 11.066 9.36569 11.0699C9.34357 11.0737 9.32085 11.0726 9.29923 11.0666C9.27762 11.0605 9.25767 11.0498 9.24089 11.0352C8.92077 10.8359 8.54763 10.734 8.1685 10.7423C7.78937 10.7505 7.42122 10.8686 7.11045 11.0816C6.08242 11.7444 5.08145 12.3542 4.01961 12.9905C3.92233 13.0319 3.83633 13.095 3.76855 13.1749C3.70077 13.2549 3.65311 13.3493 3.62941 13.4506C3.60572 13.5518 3.60665 13.6572 3.63213 13.758C3.65762 13.8589 3.70695 13.9525 3.77613 14.0312L4.87179 15.748L6.00126 15.0851L5.15584 13.7594L7.86117 12.0891C8.00623 12.0097 8.17603 11.9854 8.3382 12.0209C8.50036 12.0563 8.64353 12.149 8.7404 12.2813L8.84185 12.4404L13.4544 19.6322C13.5434 19.7113 13.6093 19.8122 13.6452 19.9245C13.6812 20.0369 13.686 20.1566 13.6592 20.2713C13.6323 20.386 13.5747 20.4917 13.4924 20.5774C13.4101 20.6632 13.3059 20.7258 13.1907 20.759L10.6274 22.33L6.94812 16.5898L5.81865 17.2526C7.13074 19.3074 8.44507 21.3644 9.76166 23.4236C9.8348 23.5764 9.9572 23.7014 10.11 23.7793C10.2628 23.8571 10.4374 23.8836 10.6071 23.8545L14.3134 21.5876C14.6178 21.2974 14.8293 20.9266 14.9221 20.5204C14.9556 20.4064 14.9693 20.2876 14.9627 20.1691C14.9288 19.9636 15.0168 19.8973 15.2129 19.8509C16.0245 19.6653 16.8361 19.4731 17.6409 19.2544C17.9787 19.1452 18.3105 19.0191 18.6351 18.8766L18.7975 18.8302L24.154 15.516C24.154 15.516 24.2013 15.4497 24.2284 15.4232C24.5821 15.0719 24.7826 14.5996 24.7876 14.1062C24.7927 13.6127 24.6018 13.1366 24.2555 12.7784ZM23.1463 14.6742C21.6448 15.6088 20.1366 16.5301 18.6284 17.4581C17.8838 17.8783 17.072 18.1719 16.2274 18.3264C15.7066 18.4457 15.1791 18.565 14.6651 18.7042C14.6292 18.7193 14.5906 18.7271 14.5515 18.7272C14.5125 18.7273 14.4739 18.7197 14.4379 18.7048C14.4019 18.69 14.3693 18.6682 14.3421 18.6408C14.3149 18.6133 14.2937 18.5808 14.2796 18.5451C13.6032 17.5045 12.9269 16.4705 12.2911 15.4364L10.2621 12.3078C10.181 12.1819 10.1742 12.109 10.2621 11.9963C10.9255 11.2877 11.3587 10.4017 11.5066 9.45099C11.8216 7.79251 11.672 6.08137 11.0737 4.49958C11.0737 4.43992 11.0399 4.38027 11.0061 4.32062C10.9723 4.26096 11.0061 4.13501 11.1143 4.08198C11.3957 3.91716 11.7313 3.86582 12.0505 3.93877C12.3697 4.01172 12.6475 4.20328 12.8254 4.47306C13.5452 5.49847 14.0678 6.6441 14.3675 7.85354C14.3818 7.88476 14.3894 7.9185 14.3899 7.9527C14.3905 7.9869 14.3839 8.02085 14.3706 8.05249C14.3573 8.08412 14.3376 8.11276 14.3126 8.13668C14.2877 8.16059 14.258 8.17929 14.2255 8.1916C13.9143 8.36393 13.6168 8.55616 13.3124 8.74838C13.2376 8.79003 13.1722 8.84611 13.1202 8.91326C13.0681 8.98041 13.0305 9.0572 13.0097 9.13901C12.9888 9.22081 12.9851 9.30592 12.9988 9.38917C13.0124 9.47242 13.0432 9.55208 13.0892 9.62333C13.1871 9.76607 13.3378 9.8659 13.5094 9.90177C13.6811 9.93764 13.8602 9.90671 14.009 9.81554L19.3453 6.50134C19.4566 6.40997 19.5949 6.35613 19.7399 6.34777C19.8848 6.33941 20.0287 6.377 20.1501 6.45496C20.2341 6.52 20.3012 6.60365 20.3458 6.69905C20.3904 6.79446 20.4112 6.89888 20.4066 7.00371C20.402 7.10855 20.372 7.21082 20.3192 7.3021C20.2664 7.39338 20.1922 7.47106 20.1028 7.52876C19.7646 7.74749 19.4264 7.94633 19.0815 8.15844C18.9304 8.24578 18.8199 8.38725 18.7732 8.55297C18.7265 8.71869 18.7473 8.89569 18.8313 9.04664C18.8769 9.12252 18.9384 9.18807 19.0118 9.23893C19.0852 9.2898 19.1687 9.32484 19.2569 9.34175C19.3451 9.35867 19.4359 9.35706 19.5235 9.33704C19.611 9.31702 19.6932 9.27905 19.7646 9.22562L20.7521 8.62244C20.8256 8.5698 20.9092 8.53225 20.9979 8.51205C21.0866 8.49185 21.1786 8.48942 21.2683 8.50489C21.3579 8.52037 21.4435 8.55344 21.5198 8.60211C21.5962 8.65078 21.6617 8.71406 21.7124 8.78815C21.7561 8.86539 21.7836 8.9504 21.7932 9.03819C21.8029 9.12598 21.7946 9.21478 21.7688 9.29938C21.7429 9.38397 21.7001 9.46266 21.6428 9.53081C21.5855 9.59896 21.5149 9.6552 21.4352 9.69623L20.4342 10.3127C20.287 10.4054 20.1822 10.5505 20.1419 10.7173C20.1015 10.8842 20.1287 11.0599 20.2178 11.2075C20.2636 11.2785 20.3236 11.3397 20.3942 11.3874C20.4648 11.4351 20.5445 11.4683 20.6286 11.4851C20.7126 11.5018 20.7992 11.5017 20.8832 11.4847C20.9672 11.4678 21.0468 11.4343 21.1173 11.3865C21.4554 11.181 21.7936 10.9689 22.125 10.77C22.1981 10.7171 22.2814 10.6791 22.3698 10.6584C22.4583 10.6377 22.5501 10.6347 22.6397 10.6495C22.7294 10.6644 22.815 10.6968 22.8916 10.7448C22.9682 10.7929 23.0341 10.8556 23.0854 10.9291C23.1293 11.006 23.1572 11.0906 23.1673 11.1781C23.1775 11.2656 23.1697 11.3543 23.1445 11.4388C23.1194 11.5233 23.0772 11.6021 23.0206 11.6705C22.964 11.7389 22.8941 11.7956 22.8149 11.8372L21.8139 12.4536C21.7396 12.4931 21.6741 12.5467 21.6211 12.6112C21.5682 12.6758 21.5289 12.7501 21.5056 12.8297C21.4823 12.9093 21.4755 12.9927 21.4854 13.0749C21.4954 13.1572 21.522 13.2367 21.5637 13.3087C21.6526 13.4534 21.7945 13.5593 21.9604 13.6049C22.1263 13.6504 22.3037 13.6322 22.4564 13.554C22.6076 13.4647 22.7885 13.4368 22.9604 13.4765C23.1323 13.5161 23.2815 13.6201 23.3762 13.7661C23.4683 13.9165 23.4957 14.0965 23.4526 14.2667C23.4095 14.4369 23.2994 14.5834 23.1463 14.6742Z" fill="#05E4BC"/>
<path d="M16.2109 1.73581C17.0548 1.56347 18.7769 1.84412 19.1107 4.28089" stroke="#B962FD" stroke-width="1.5" stroke-linecap="round"/>
<path d="M15.7432 3.52944C16.0962 3.46178 17.1496 3.52945 17.1496 4.8023" stroke="#B962FD" stroke-width="1.5" stroke-linecap="round"/>
</svg>
