<svg width="26" height="26" viewBox="0 0 26 26" fill="none" xmlns="http://www.w3.org/2000/svg">
<g clip-path="url(#clip0_382_16250)">
<rect x="3.49902" y="5.90308" width="15.2816" height="11.4803" fill="#05E4BC"/>
<path fill-rule="evenodd" clip-rule="evenodd" d="M7.00848 21.1619V20.9247C6.14956 20.8621 5.32032 20.5818 4.59795 20.1099C3.08144 19.0836 2.26171 17.6526 2.26171 15.8064C2.25147 14.2231 2.25488 12.6399 2.2583 11.0567C2.26001 10.2651 2.26171 9.47352 2.26171 8.68192C2.25111 7.50155 2.64311 6.35324 3.37228 5.42875C4.10144 4.50425 5.12364 3.85953 6.26815 3.60224C6.58879 3.52536 6.91709 3.48558 7.24669 3.48364H15.8334C16.9926 3.51598 18.1062 3.94475 18.9909 4.69936C19.8756 5.45396 20.4786 6.48937 20.7005 7.63504C20.762 7.99272 20.7928 8.35504 20.7928 8.71802V15.7496C20.8103 16.9498 20.41 18.1184 19.6615 19.0527C18.9129 19.9871 17.8631 20.6283 16.6941 20.8654C16.3325 20.9392 15.9641 20.9747 15.5952 20.9711H12.5442C12.4623 20.966 12.3802 20.9793 12.304 21.0101C12.2278 21.0409 12.1593 21.0883 12.1036 21.149C11.1285 22.1392 10.151 23.1248 9.17359 24.1104C8.6849 24.6031 8.19621 25.0959 7.70781 25.5892C7.56435 25.7491 7.38247 25.8471 7.19547 25.7001C7.13849 25.6474 7.0926 25.5837 7.06048 25.5129C7.02836 25.442 7.01067 25.3654 7.00848 25.2875V21.1619ZM17.5782 15.0792V12.7379H17.5679C17.5679 12.5222 17.5692 12.1364 17.5707 11.6701V11.6697C17.5749 10.3689 17.5811 8.4423 17.5679 7.83874C17.5628 7.58128 17.4622 7.33507 17.2859 7.1485C17.1095 6.96194 16.8702 6.84852 16.615 6.83055C16.3031 6.80347 15.9894 6.80347 15.6774 6.83055C15.4118 6.8515 15.1641 6.97356 14.9846 7.17188C14.8052 7.37019 14.7076 7.62987 14.7117 7.89806V15.1385C14.7016 15.3787 14.7771 15.6147 14.9245 15.8038C15.072 15.9929 15.2818 16.1228 15.5161 16.1699C15.932 16.2344 16.3553 16.2344 16.7713 16.1699C17.281 16.09 17.5782 15.6413 17.5782 15.0792ZM12.9671 13.3438C12.9671 13.5331 12.9654 13.7221 12.9637 13.9109C12.9603 14.2879 12.9569 14.6642 12.9671 15.0405C12.9782 15.1993 12.9552 15.3587 12.8997 15.5078C12.8442 15.657 12.7576 15.7924 12.6456 15.9048C12.5336 16.0173 12.3989 16.1042 12.2506 16.1598C12.1024 16.2153 11.944 16.2381 11.7862 16.2266C11.53 16.2266 11.2585 16.2266 10.9997 16.2008C10.7511 16.1672 10.523 16.0444 10.3573 15.8548C10.1916 15.6653 10.0995 15.4219 10.098 15.1694V10.149C10.0984 9.8785 10.202 9.61843 10.3875 9.42263C10.5729 9.22682 10.8261 9.11024 11.0945 9.09701C11.3922 9.07767 11.6908 9.07767 11.9885 9.09701C12.2417 9.11208 12.4804 9.22115 12.6583 9.40309C12.8362 9.58504 12.9407 9.82694 12.9517 10.082C12.9647 10.5367 12.9589 11.7091 12.9547 12.5619C12.9531 12.8892 12.9517 13.1693 12.9517 13.3438H12.9671ZM8.3561 15.1128V13.9448L8.34841 12.7638V12.6581C8.33132 12.4014 8.22163 12.1599 8.03999 11.979C7.85835 11.7981 7.61731 11.6902 7.36218 11.6757C7.07527 11.6628 6.7858 11.6628 6.4989 11.6757C6.23254 11.6873 5.98048 11.8003 5.79363 11.9917C5.60678 12.1832 5.49904 12.4388 5.49215 12.7071C5.4819 13.527 5.4819 14.347 5.49215 15.167C5.49003 15.4188 5.57951 15.6627 5.74372 15.8527C5.90794 16.0427 6.13554 16.1657 6.3836 16.1984C6.72342 16.2439 7.06743 16.2483 7.40827 16.2113C7.67666 16.187 7.92529 16.059 8.102 15.8542C8.2787 15.6494 8.36977 15.3837 8.3561 15.1128Z" fill="#B962FD"/>
</g>
<path d="M20.9033 0.970091C22.065 0.73284 24.4358 1.1192 24.8953 4.47386" stroke="#05E4BC" stroke-width="1.625" stroke-linecap="round"/>
<path d="M20.2598 3.43944C20.7458 3.34629 22.1959 3.43945 22.1959 5.19176" stroke="#05E4BC" stroke-width="1.625" stroke-linecap="round"/>
<defs>
<clipPath id="clip0_382_16250">
<rect width="20.0306" height="22.5345" fill="white" transform="translate(1.87402 3.46558)"/>
</clipPath>
</defs>
</svg>
