<svg width="27" height="27" viewBox="0 0 27 27" fill="none" xmlns="http://www.w3.org/2000/svg">
<path d="M11.0274 2.95312C12.1263 1.01562 14.8737 1.01563 15.9726 2.95313L25.8632 20.3906C26.9622 22.3281 25.5885 24.75 23.3906 24.75H3.60942C1.41151 24.75 0.0378267 22.3281 1.13678 20.3906L11.0274 2.95312Z" fill="#FF0000"/>
<path d="M13.4959 5.96875C14.3065 5.96875 14.9569 6.63837 14.9333 7.44861L14.6917 15.7421C14.6729 16.387 14.1447 16.9 13.4995 16.9C12.8548 16.9 12.3268 16.3876 12.3074 15.7432L12.0585 7.44988C12.0342 6.63916 12.6848 5.96875 13.4959 5.96875ZM11.9369 20.2843C11.9369 19.823 12.0784 19.4409 12.3615 19.1382C12.6509 18.8282 13.0305 18.6733 13.5 18.6733C13.9761 18.6733 14.3556 18.8282 14.6386 19.1382C14.9217 19.4409 15.0632 19.823 15.0632 20.2843C15.0632 20.7312 14.9217 21.1097 14.6386 21.4196C14.3556 21.7296 13.9761 21.8845 13.5 21.8845C13.0305 21.8845 12.6509 21.7296 12.3615 21.4196C12.0784 21.1097 11.9369 20.7312 11.9369 20.2843Z" fill="white"/>
</svg>
