<svg width="49" height="52" viewBox="0 0 49 52" fill="none" xmlns="http://www.w3.org/2000/svg">
<path d="M48.0968 38.3365V39.9564V40.086C47.9785 40.9974 47.6653 41.8735 47.1779 42.6563C46.4435 43.8832 45.5127 44.9847 44.4215 45.9177C42.5401 47.5808 40.6369 49.2008 38.7336 50.8423C38.6107 50.9952 38.4544 51.1187 38.2764 51.2037C38.0983 51.2886 37.9032 51.3327 37.7054 51.3327C37.5077 51.3327 37.3125 51.2886 37.1345 51.2037C36.9565 51.1187 36.8001 50.9952 36.6772 50.8423L33.4176 48.0776C31.7541 46.7556 30.2363 45.2642 28.8892 43.6282C28.1864 42.8016 27.688 41.8248 27.4336 40.7751C27.1792 39.7255 27.1758 38.6317 27.4235 37.5805C27.621 36.5788 28.0893 35.6484 28.7786 34.8879C29.468 34.1275 30.3528 33.5652 31.3394 33.2607C32.3115 32.9295 33.3601 32.8838 34.358 33.1292C35.3559 33.3745 36.2603 33.9004 36.9616 34.643C37.233 34.9015 37.4887 35.1756 37.7273 35.4638L38.2086 34.8806C39.0456 33.9277 40.1885 33.2872 41.4463 33.0663C42.8152 32.8512 44.2166 33.1331 45.3911 33.8598C46.5656 34.5866 47.4335 35.7089 47.8342 37.0189C47.878 37.4077 47.9655 37.8829 48.0968 38.3365Z" fill="white"/>
<path fill-rule="evenodd" clip-rule="evenodd" d="M29.7675 3.1905C33.8241 5.75754 36.7347 9.75458 37.9051 14.3659C38.7823 17.8433 38.7145 21.4873 37.7085 24.9306C37.1191 27.1819 36.2671 29.3447 35.1773 31.3791C35.0571 31.3428 34.9358 31.3096 34.8135 31.2795C33.4714 30.9496 32.0618 31.0083 30.7524 31.4488C29.4519 31.8553 28.2827 32.6001 27.3686 33.6085C26.4561 34.6151 25.8317 35.8471 25.563 37.1769C25.2546 38.509 25.2617 39.8939 25.5838 41.2232C25.6217 41.3797 25.6639 41.535 25.7103 41.6888C22.983 43.2536 21.1086 43.5931 19.7324 43.7142H19.6586H18.7675C16.3162 43.373 13.9913 42.4288 12.0073 40.9685C11.2882 40.4412 10.7167 40.0048 10.1636 39.5017C5.20596 35.0976 1.89777 29.1743 0.77299 22.688C0.000733733 18.7504 0.526202 14.6724 2.27254 11.0505C5.15486 5.21353 9.80098 1.67987 16.0757 0.552492C20.8137 -0.320056 25.7108 0.623463 29.7675 3.1905ZM27.4248 37.58C27.1885 38.5827 27.1807 39.6241 27.4013 40.629L27.4009 40.6292C27.1803 39.6243 27.188 38.5828 27.4243 37.58C27.6219 36.5783 28.0901 35.6479 28.7794 34.8875C29.4688 34.127 30.3536 33.5647 31.3402 33.2602C31.4354 33.2278 31.5312 33.1982 31.6277 33.1712C31.5314 33.1981 31.4357 33.2278 31.3407 33.2602C30.3541 33.5647 29.4692 34.1269 28.7799 34.8874C28.0905 35.6479 27.6223 36.5782 27.4248 37.58ZM33.3477 23.075C33.805 20.5696 32.1629 18.5751 29.6226 18.5425C29.5199 18.5522 29.4165 18.5585 29.3129 18.5647C29.1274 18.5759 28.9413 18.5872 28.7574 18.6186C25.4512 19.1729 22.6078 22.4174 22.2551 25.2815C22.1562 25.8668 22.2006 26.4669 22.3846 27.0319C22.5685 27.5968 22.8868 28.1102 23.3127 28.5292C23.7387 28.9483 24.26 29.2608 24.8333 29.4408C25.4066 29.6209 26.0152 29.6631 26.6084 29.5641C28.2616 29.2728 29.788 28.4985 30.9896 27.3415C32.1913 26.1844 33.0128 24.6981 33.3477 23.075ZM9.7424 18.5483C11.3099 18.5936 12.8139 19.1693 14.002 20.1788C15.6792 21.4248 16.7964 23.2677 17.1154 25.3145C17.2131 25.9024 17.1654 26.5049 16.9765 27.0707C16.7876 27.6366 16.4629 28.1491 16.0302 28.5647C15.5974 28.9803 15.0693 29.2867 14.4908 29.458C13.9122 29.6292 13.3003 29.6601 12.707 29.5482C11.0626 29.2543 9.54525 28.481 8.35083 27.3282C7.15641 26.1754 6.33977 24.696 6.00631 23.0809C5.59854 20.907 6.81083 19.032 8.94338 18.6081C9.12188 18.581 9.29824 18.5729 9.46181 18.5654L9.46195 18.5654H9.46197H9.46199C9.56093 18.5609 9.65519 18.5565 9.7424 18.5483ZM17.4576 34.8109H19.4488H21.4708C21.6157 34.8286 21.7627 34.8164 21.9025 34.775C22.0424 34.7336 22.1719 34.664 22.283 34.5704C22.394 34.4769 22.484 34.3616 22.5473 34.2318C22.6107 34.1021 22.6459 33.9608 22.6507 33.8168C22.6592 33.6693 22.6346 33.5217 22.5786 33.3846C22.5227 33.2474 22.4368 33.1242 22.3271 33.0235C22.2174 32.9228 22.0866 32.8472 21.9439 32.802C21.8012 32.7569 21.6501 32.7433 21.5015 32.7622H17.4208C17.2759 32.7481 17.1296 32.765 16.9919 32.8116C16.8542 32.8582 16.7283 32.9336 16.6228 33.0325C16.5172 33.1314 16.4345 33.2516 16.3803 33.3848C16.326 33.5181 16.3015 33.6613 16.3084 33.8047C16.3101 33.9474 16.3421 34.0881 16.4022 34.2179C16.4623 34.3477 16.5492 34.4637 16.6574 34.5584C16.7656 34.6532 16.8927 34.7245 17.0305 34.768C17.1683 34.8115 17.3138 34.8261 17.4576 34.8109Z" fill="white"/>
</svg>
