<svg width="976" height="986" viewBox="0 0 976 986" fill="none" xmlns="http://www.w3.org/2000/svg">
<g opacity="0.9">
<g filter="url(#filter0_f_533_36581)">
<path d="M760.056 670.806C796.686 641.246 818.545 659.543 824.896 672.386C782.33 763.209 674.333 822.644 625.655 841.008C662.536 821.938 686.456 775.929 693.806 755.308C702.327 711.587 675.254 678.307 657.093 672.037C635.312 664.517 626.99 656.5 619.874 645.888C606.345 615.252 621.734 593.888 639.699 589.871C672.495 582.538 686.139 607.835 683.066 628.994C680.682 645.411 680.554 657.93 687.482 665.927C711.051 693.136 745.09 679.387 760.056 670.806Z" fill="url(#paint0_linear_533_36581)"/>
</g>
<path d="M472.552 162.296C441.377 162.394 437.662 143.883 439.701 134.615C499.325 105.319 579.755 119.351 612.517 130.029C585.558 124.603 554.136 138.467 541.795 146.077C519.279 165.14 519.48 193.553 526.267 204.317C534.406 217.227 535.385 224.817 534.666 233.25C528.964 254.685 512.161 259.349 501.214 253.982C481.228 244.183 484.659 225.459 495.013 215.798C503.046 208.303 508.299 201.887 508.032 194.884C507.126 171.059 483.84 164.062 472.552 162.296Z" fill="url(#paint1_linear_533_36581)"/>
<g opacity="0.5" filter="url(#filter1_f_533_36581)">
<path d="M240.814 626.276C165.915 636.748 134.057 604.707 127.491 587.377L109.202 594.191C124.049 650.804 233.992 816.626 391.5 860.5C549.009 904.374 701.824 803.63 742 772.5C672.868 812.641 621 840.651 581.5 772.5C509.891 648.95 522.5 650 474 704.5C435.259 748.034 431.893 731.289 418.169 689.744C383.768 585.603 359.793 654.465 300.381 688.93C252.852 716.503 251.886 689.869 257.344 673.105C267.971 630.656 250.752 624.199 240.814 626.276Z" fill="url(#paint2_linear_533_36581)"/>
</g>
<g opacity="0.5" filter="url(#filter2_f_533_36581)">
<path d="M608.706 260.398C670.118 216.405 711.628 226.549 724.706 237.12L737.906 223.012C700.986 185.33 534.439 106.643 377.507 147.055C220.575 187.468 120.894 364.991 98.7091 408.761C142.543 344.06 174.487 268.462 237.939 303.512C352.972 367.054 351.131 375.951 370.777 309.735C386.47 256.842 396.49 268.477 426.069 294.781C500.215 360.718 492.251 294.84 529.934 239.262C560.081 194.799 572.161 215.397 574.432 231.254C582.991 269.883 600.847 266.779 608.706 260.398Z" fill="url(#paint3_linear_533_36581)"/>
</g>
<g opacity="0.5" filter="url(#filter3_f_533_36581)">
<path d="M463.814 573.331C537.469 604.426 584.346 567.75 598.578 545.525C622.823 504.601 610.213 466.972 608.413 450.872C601.468 388.757 633.436 409.08 671.033 370.751C701.11 340.087 673.312 310.077 655.654 298.905C605.025 278.477 587.659 329.768 585.305 357.968C585.452 373.153 573.709 393.539 567.82 401.834C537.889 447.684 485.787 437.847 463.477 427.198C438.439 415.978 427.682 376.76 422.67 366.236C410.324 340.31 376.363 353.647 371.688 364.079C357.554 383.987 386.614 405.136 402.45 413.102C424.923 425.78 437.32 463.268 440.709 480.428C446.482 514.471 400.782 537.048 377.21 544.081C323.655 561.791 358.341 592.975 357.648 595.49C374.438 613.094 392.09 601.366 398.818 593.302C425.777 566.106 453.381 568.657 463.814 573.331Z" fill="url(#paint4_linear_533_36581)"/>
</g>
<g filter="url(#filter4_f_533_36581)">
<path d="M627.009 183.254C697.157 149.849 716.03 180.987 733.651 190.963C657.573 107.314 536.584 102.626 481.552 103.714C336.154 97.8997 219.056 207.393 182.208 258.995C201.18 241.042 229.793 233.637 257.954 243.99C305.384 275.243 359.633 329.255 347.592 269.048C336.207 212.12 339.706 199.569 358.657 185.248C377.355 171.118 421.919 213.182 437.503 214.137C453.087 215.091 458.832 210.618 466.919 203.379C475.005 196.141 496.48 152.12 522.405 133.852C557.793 108.916 573.545 140.34 576.997 159.169C582.37 202.527 613.584 190.56 627.009 183.254Z" fill="url(#paint5_linear_533_36581)"/>
</g>
<g filter="url(#filter5_f_533_36581)">
<path d="M207.622 660.296C130.73 649.148 132.314 612.771 123.194 594.692C140.048 706.499 238.086 777.554 284.466 807.195C402.183 892.735 560.362 866.652 619.654 844.181C593.908 848.584 565.998 838.863 548.319 814.62C526.212 762.297 511.067 687.258 487.665 744.022C465.538 797.695 455.66 806.193 431.947 807.587C408.552 808.963 394.83 749.237 382.397 739.793C369.964 730.349 362.702 730.882 351.958 732.414C341.214 733.947 298.916 758.644 267.212 759.45C223.935 760.55 228.275 725.668 235.854 708.089C255.451 669.041 222.844 661.67 207.622 660.296Z" fill="url(#paint6_linear_533_36581)"/>
</g>
<g filter="url(#filter6_f_533_36581)">
<circle cx="488" cy="498" r="388" stroke="url(#paint7_linear_533_36581)" stroke-width="100"/>
</g>
<g opacity="0.8" filter="url(#filter7_f_533_36581)">
<path d="M182.682 474.364C149.189 503.237 118.001 466.557 106.594 444.608C82.2948 562.29 127.92 656.027 153.77 688.185C120.767 627.631 147.544 572.342 165.058 552.267C211.011 505.229 252.178 437.659 224.523 385.02C196.869 332.381 157.978 349.671 187.343 401.125C210.836 442.288 194.024 467.103 182.682 474.364Z" fill="url(#paint8_linear_533_36581)"/>
</g>
<g opacity="0.5" filter="url(#filter8_f_533_36581)">
<path d="M764.191 343.544C804.746 356.417 818.461 312.165 820.249 288.431C886.271 383.353 881.37 483.545 870.667 521.776C876.955 455.717 832.347 416.933 809.257 405.798C750.805 381.568 688.82 337.364 693.371 280.33C697.921 223.297 738.87 223.879 732.357 280.512C727.147 325.818 751.409 341.411 764.191 343.544Z" fill="url(#paint9_linear_533_36581)"/>
</g>
<g opacity="0.9" filter="url(#filter9_f_533_36581)">
<path fill-rule="evenodd" clip-rule="evenodd" d="M488 873C695.107 873 863 705.107 863 498C863 290.893 695.107 123 488 123C280.894 123 113 290.893 113 498C113 705.107 280.894 873 488 873ZM488 893C706.153 893 883 716.152 883 498C883 279.848 706.153 103 488 103C269.848 103 93.0005 279.848 93.0005 498C93.0005 716.152 269.848 893 488 893Z" fill="white"/>
</g>
<g opacity="0.8" filter="url(#filter10_f_533_36581)">
<path d="M483.961 586.561C544.365 612.061 582.808 581.983 594.479 563.757C614.362 530.196 604.021 499.337 602.545 486.134C596.849 435.194 623.066 451.861 653.899 420.427C678.565 395.28 655.768 370.67 641.286 361.508C599.767 344.755 585.525 386.818 583.594 409.944C583.715 422.398 574.085 439.116 569.255 445.919C544.709 483.519 501.981 475.452 483.685 466.719C463.152 457.518 454.33 425.356 450.22 416.725C440.095 395.464 412.244 406.401 408.411 414.956C396.819 431.282 420.651 448.627 433.638 455.159C452.068 465.556 462.234 496.3 465.014 510.372C469.748 538.29 432.27 556.805 412.939 562.573C369.019 577.096 397.464 602.671 396.897 604.733C410.665 619.169 425.142 609.552 430.659 602.938C452.768 580.636 475.406 582.727 483.961 586.561Z" fill="url(#paint10_linear_533_36581)"/>
</g>
<g opacity="0.8" filter="url(#filter11_f_533_36581)">
<path d="M262.001 541.482C233.504 547.762 227.282 568.575 227.732 578.197C229.146 595.5 240.841 604.046 244.774 608.461C259.948 625.495 246.139 626.187 243.029 645.535C240.541 661.013 255.152 664.086 262.768 663.687C282.156 659.089 276.506 640.149 271.258 631.254C268.01 626.763 267.206 618.214 267.21 614.501C266.45 594.531 284.042 586.468 292.933 584.932C302.757 582.991 314.235 592.401 317.948 594.478C327.095 599.594 334.396 588.457 333.587 584.364C333.596 575.453 320.479 575.285 314.082 576.254C304.715 577.22 293.113 568.671 288.483 564.276C279.581 555.355 288.428 538.989 293.964 531.921C306.178 515.348 289.268 513.379 288.943 512.483C280.229 510.783 277.446 518 277.144 521.821C274.853 535.609 266.094 540.673 262.001 541.482Z" fill="url(#paint11_linear_533_36581)"/>
</g>
<path opacity="0.8" d="M695.405 509.477C715.742 518.785 729.156 508.919 733.32 502.822C740.44 491.58 737.227 480.953 736.857 476.436C735.432 459.009 744.202 464.958 755.034 454.552C763.7 446.227 756.176 437.604 751.331 434.334C737.343 428.2 732.061 442.399 731.168 450.265C731.083 454.512 727.63 460.115 725.914 462.386C717.163 474.958 702.675 471.774 696.525 468.611C689.617 465.265 686.935 454.209 685.621 451.224C682.384 443.872 672.777 447.319 671.383 450.197C667.265 455.647 675.215 461.803 679.577 464.162C685.756 467.894 688.911 478.48 689.716 483.306C691.047 492.874 678.08 498.807 671.431 500.578C656.307 505.085 665.748 514.094 665.533 514.791C670.082 519.853 675.115 516.72 677.063 514.521C684.828 507.141 692.526 508.083 695.405 509.477Z" fill="url(#paint12_linear_533_36581)"/>
</g>
<g filter="url(#filter12_f_533_36581)">
<path d="M183.554 388.807L183.473 388.806H183.393H102.504C91.0149 388.589 79.7371 392.413 71.0427 399.695C66.7566 403.084 63.2428 407.324 60.7959 412.17C58.3188 417.076 57.0098 422.459 57 427.943L56.9999 428.012L57.0007 428.08C57.116 437.737 61.1427 446.838 68.0214 453.684L173.733 564.209H110.387H110.221L110.056 564.214C109.384 564.236 108.792 564.08 108.338 563.848C108.218 560.884 107.453 557.999 106.115 555.369C104.695 552.576 102.68 550.165 100.261 548.255C95.4754 544.258 89.3566 542.194 83.1775 542.277C76.5334 542.288 69.6965 543.72 64.4549 548.318C58.9404 553.155 57 559.875 57 566.511V566.727L57.0093 566.941C57.2638 572.854 58.8973 578.61 61.7554 583.819C64.5438 588.902 68.4215 593.328 73.087 596.857C82.7269 605.196 95.3674 609.692 108.335 609.62H191.666H191.711L191.756 609.62C202.415 609.523 212.77 605.653 220.59 598.599C224.708 595.303 228.088 591.2 230.453 586.518C232.88 581.714 234.164 576.442 234.177 571.07L234.177 570.964L234.175 570.858C233.995 561.186 229.893 552.098 222.952 545.29L117.058 434.798H180.906H181.18L181.453 434.783C182.056 434.75 182.567 434.921 182.885 435.134C183.103 435.279 183.171 435.397 183.185 435.424C184.66 440.832 187.323 445.842 190.954 450.16L191.662 451.002L192.535 451.67C195.091 453.623 198.007 455.04 201.09 455.877C204.006 456.669 207.046 456.935 210.051 456.669C215.872 456.525 221.576 454.497 226.114 450.769C228.675 448.804 230.81 446.299 232.309 443.383C233.848 440.391 234.659 437.074 234.64 433.682C234.648 427.24 233.037 420.921 229.982 415.219C226.985 409.626 222.694 404.801 217.495 401.051C208.048 393.292 195.987 389.007 183.554 388.807Z" fill="white" stroke="url(#paint13_linear_533_36581)" stroke-width="20"/>
<ellipse opacity="0.8" cx="586" cy="415.5" rx="96" ry="156.5" fill="url(#paint14_linear_533_36581)"/>
<path d="M295.447 389.07H285.447V399.07V433.328C285.411 436.668 286.197 439.939 287.701 442.89C289.176 445.782 291.286 448.263 293.819 450.203C298.647 454.137 304.763 456.17 310.941 456.098C317.163 456.183 323.324 454.138 328.182 450.17C330.692 448.21 332.778 445.721 334.233 442.83C335.54 440.234 336.296 437.395 336.433 434.481H347.867V586.878C347.846 590.232 348.651 593.51 350.176 596.464C351.674 599.364 353.811 601.847 356.371 603.783C361.305 607.702 367.506 609.715 373.766 609.621C379.915 609.654 385.989 607.631 390.816 603.753C393.364 601.808 395.487 599.318 396.968 596.413C398.473 593.462 399.258 590.191 399.222 586.851V434.481H410.65C410.775 437.572 411.596 440.575 413.027 443.297C414.533 446.16 416.661 448.612 419.202 450.529C424.109 454.423 430.268 456.433 436.493 456.361C442.649 456.422 448.74 454.418 453.583 450.545C456.125 448.595 458.243 446.104 459.723 443.202C461.224 440.258 462.013 436.997 461.988 433.664V399.07V389.07H451.988H295.447Z" fill="white" stroke="url(#paint15_linear_533_36581)" stroke-width="20"/>
<path d="M752.921 388.806H742.921V398.806V586.881C742.902 590.21 743.693 593.466 745.192 596.406C746.663 599.291 748.764 601.772 751.286 603.72C756.145 607.663 762.293 609.698 768.504 609.621C774.696 609.671 780.819 607.675 785.717 603.827C788.303 601.905 790.467 599.426 791.986 596.521C793.537 593.554 794.356 590.253 794.333 586.875V500.066H801.552L871.329 598.509C873.82 602.176 877.258 605.065 881.206 606.975C885.126 608.872 889.469 609.767 893.808 609.62C899.808 609.588 905.718 607.619 910.468 603.897C913.056 602.056 915.243 599.659 916.806 596.827C918.44 593.866 919.328 590.542 919.346 587.125L919.347 586.977L919.343 586.83C919.222 581.824 917.44 577.076 914.386 573.197L862.423 500.066H862.745C877.085 500.314 891.124 495.562 901.963 486.576C907.333 482.383 911.714 477.121 914.742 471.111C917.795 465.051 919.381 458.409 919.346 451.658L919.346 437.201C919.346 437.197 919.346 437.193 919.346 437.189C919.354 430.432 917.739 423.79 914.658 417.738C911.611 411.752 907.219 406.516 901.845 402.346C891.056 393.355 877.061 388.585 862.755 388.806H752.921ZM862.604 454.654H793.928V434.481H862.604H862.724L862.844 434.478C864.575 434.437 866.121 435.016 867.174 435.885L867.302 435.991L867.433 436.092C867.738 436.327 867.91 436.563 867.999 436.739C868.086 436.91 868.108 437.047 868.108 437.151L868.108 437.169V437.187V451.949V451.966L868.108 451.984C868.108 452.088 868.086 452.225 867.999 452.396C867.91 452.572 867.738 452.808 867.433 453.043L867.302 453.145L867.174 453.25C866.121 454.119 864.575 454.699 862.844 454.657L862.724 454.654H862.604Z" fill="white" stroke="url(#paint16_linear_533_36581)" stroke-width="20"/>
</g>
<g filter="url(#filter13_d_533_36581)">
<path d="M102.404 388.131H183.393C193.776 388.314 203.733 392.278 211.392 399.279C215.527 402.483 218.871 406.591 221.168 411.287C223.464 415.983 224.652 421.141 224.64 426.367C224.655 428.299 224.237 430.209 223.416 431.958C222.595 433.707 221.393 435.25 219.896 436.475C217.058 439.089 213.345 440.551 209.483 440.576C207.545 440.807 205.581 440.639 203.71 440.083C201.84 439.526 200.103 438.593 198.608 437.341C195.872 433.777 193.903 429.687 192.823 425.328C192.167 422.715 190.616 420.413 188.44 418.82C186.264 417.228 183.599 416.444 180.906 416.606H104.024C100.321 416.606 98.2387 417.646 98.2387 419.783C98.3726 421.571 99.1785 423.242 100.495 424.461L215.847 556.323C221.078 561.887 224.047 569.196 224.177 576.827C224.168 580.974 223.264 585.071 221.527 588.838C219.79 592.605 217.261 595.955 214.111 598.659C208.17 604.644 200.105 608.048 191.666 608.131H108.305C97.5212 608.204 87.1383 604.057 79.3798 596.58C75.6765 593.573 72.6572 589.814 70.5226 585.551C68.388 581.289 67.1871 576.621 67 571.859C67 561.463 72.38 556.265 83.2557 556.265C87.2211 556.192 91.0592 557.663 93.9579 560.366C95.3355 561.531 96.4424 562.982 97.2016 564.618C97.9609 566.254 98.3542 568.035 98.3544 569.838C98.3285 571.256 98.6217 572.661 99.2124 573.951C99.8032 575.24 100.676 576.381 101.768 577.289C104.161 579.334 107.238 580.407 110.387 580.292H187.558C190.856 580.292 192.533 579.137 192.533 576.769C192.348 575.095 191.544 573.55 190.277 572.437L75.1568 440.576C69.9893 434.985 67.0829 427.679 67 420.072C67.0069 415.803 67.9356 411.587 69.7226 407.71C71.5095 403.832 74.1128 400.385 77.355 397.604C84.1532 391.314 93.1382 387.916 102.404 388.131V388.131Z" fill="white"/>
<path d="M295.447 426.021V388.42H451.988V426.367C452.006 428.24 451.605 430.093 450.814 431.792C450.024 433.491 448.863 434.992 447.418 436.186C444.411 438.857 440.508 440.3 436.485 440.229C432.38 440.308 428.395 438.845 425.32 436.128C423.864 434.949 422.688 433.461 421.878 431.773C421.068 430.085 420.643 428.239 420.634 426.367V416.259H389.222V594.212C389.247 596.086 388.85 597.942 388.059 599.642C387.268 601.342 386.103 602.842 384.651 604.031C381.65 606.717 377.748 608.181 373.718 608.131C369.593 608.225 365.585 606.761 362.495 604.031C361.036 602.845 359.863 601.347 359.062 599.647C358.261 597.948 357.852 596.09 357.867 594.212V416.259H326.455V426.021C326.475 427.888 326.082 429.737 325.301 431.435C324.521 433.133 323.374 434.637 321.943 435.839C318.942 438.565 315.006 440.033 310.951 439.94C306.915 440.024 303 438.556 300.018 435.839C298.566 434.651 297.401 433.151 296.61 431.451C295.819 429.751 295.422 427.895 295.447 426.021V426.021Z" fill="white"/>
<path d="M752.921 594.212V388.131H862.835C874.944 387.907 886.672 392.355 895.578 400.549C899.898 404.187 903.368 408.725 905.747 413.843C908.125 418.961 909.354 424.537 909.346 430.179V446.063C909.376 451.706 908.17 457.287 905.811 462.415C903.453 467.544 900 472.095 895.694 475.75C886.74 483.935 874.973 488.362 862.835 488.11H843.051L906.396 585.779C908.247 588.274 909.278 591.281 909.346 594.385C909.337 596.258 908.894 598.104 908.051 599.777C907.208 601.451 905.988 602.907 904.487 604.031C901.489 606.685 897.618 608.144 893.611 608.131C890.814 608.261 888.034 607.638 885.561 606.328C883.088 605.017 881.013 603.066 879.554 600.681L806.721 488.11H784.333V594.212C784.35 596.096 783.936 597.959 783.125 599.661C782.313 601.362 781.124 602.856 779.648 604.031C776.564 606.732 772.585 608.194 768.483 608.131C764.429 608.213 760.498 606.746 757.491 604.031C756.049 602.834 754.891 601.332 754.101 599.634C753.311 597.936 752.908 596.084 752.921 594.212ZM783.928 460.271H862.604C866.633 460.377 870.549 458.929 873.538 456.228C874.975 455.014 876.129 453.501 876.918 451.795C877.708 450.089 878.114 448.231 878.108 446.351V430.179C878.114 428.3 877.708 426.442 876.918 424.735C876.129 423.029 874.975 421.516 873.538 420.303C870.549 417.602 866.633 416.154 862.604 416.259H783.928V460.271Z" fill="white"/>
</g>
<g filter="url(#filter14_d_533_36581)">
<path fill-rule="evenodd" clip-rule="evenodd" d="M596 475C599.314 475 602 477.686 602 481L602 819C602 822.314 599.314 825 596 825C592.686 825 590 822.314 590 819L590 481C590 477.686 592.686 475 596 475Z" fill="url(#paint17_linear_533_36581)"/>
<path fill-rule="evenodd" clip-rule="evenodd" d="M570 475C573.314 475 576 477.686 576 481L576 621C576 624.314 573.314 627 570 627C566.686 627 564 624.314 564 621L564 481C564 477.686 566.686 475 570 475Z" fill="url(#paint18_linear_533_36581)"/>
<path fill-rule="evenodd" clip-rule="evenodd" d="M622 475C625.314 475 628 477.686 628 481L628 692C628 695.314 625.314 698 622 698C618.686 698 616 695.314 616 692L616 481C616 477.686 618.686 475 622 475Z" fill="url(#paint19_linear_533_36581)"/>
<path d="M620.596 284.905C623.037 287.946 625.501 290.965 627.909 294.015C647.094 318.28 658.858 345.524 660.537 376.684C661.043 386.113 660.479 395.581 660.483 405.031C660.491 406.036 660.82 407.013 661.423 407.817C668.092 415.766 674.876 423.61 681.545 431.558C683.145 433.437 684.284 435.665 684.87 438.062C685.456 440.459 685.474 442.96 684.921 445.365C682.336 458.322 679.644 471.252 677.027 484.219C675.435 492.126 665.804 497.291 657.061 490.402C650.882 485.525 644.369 481.057 638.028 476.389C637.586 476.064 637.075 475.823 636.789 475.647C635.381 477.213 633.881 478.693 632.297 480.079C629.064 482.551 625.073 483.823 621.006 483.677C604.09 483.635 587.164 483.636 570.229 483.68C563.652 483.705 558.286 481.543 554.511 475.992C554.306 475.794 554.085 475.613 553.85 475.45C550.326 477.999 546.759 480.547 543.202 483.084C539.442 485.807 535.764 488.622 531.941 491.277C530.35 492.492 528.472 493.275 526.49 493.55C524.507 493.824 522.487 493.582 520.625 492.846C518.764 492.11 517.124 490.905 515.865 489.349C514.607 487.792 513.771 485.937 513.441 483.963C511.375 474.375 509.444 464.706 507.529 455.146C506.977 452.443 506.515 449.7 505.854 447.013C504.144 440.12 506.075 434.318 510.753 429.154C517.122 421.989 523.315 414.652 529.485 407.313C529.962 406.484 530.137 405.515 529.981 404.571C528.251 385.481 529.827 366.236 534.638 347.682C539.284 330.959 546.935 315.221 557.217 301.239C560.89 296.138 565.03 291.319 568.947 286.371C569.274 285.912 569.576 285.435 569.85 284.943L583.734 271.066C584.119 270.901 584.492 270.707 584.849 270.486C587.583 268.359 590.905 267.122 594.366 266.944C597.826 266.766 601.258 267.654 604.197 269.489C605.044 270.007 605.857 270.556 606.683 271.073L620.596 284.905ZM550.294 439.153C550.881 439.18 551.369 439.213 551.87 439.214C580.756 439.232 609.638 439.252 638.516 439.276C639.09 439.342 639.667 439.177 640.12 438.819C640.573 438.46 640.866 437.936 640.933 437.362C645.441 423.253 647.865 408.562 648.13 393.752C648.58 373.414 645.914 353.63 637.683 334.821C631.433 320.634 623.033 307.496 612.779 295.87C608.247 290.697 603.141 285.924 598.264 281.149C596.275 279.175 594.376 279.284 592.244 281.146C591.108 282.182 589.899 283.139 588.779 284.308C581.043 291.747 574.022 299.896 567.809 308.648C558.42 321.518 551.418 335.969 547.134 351.314C541.757 371.524 541.254 392.077 544.024 412.683C545.237 421.691 547.337 430.558 550.294 439.153V439.153ZM635.086 452.63L555.254 452.597C558.712 458.167 562.05 463.741 565.656 469.154C566.117 469.624 566.667 469.995 567.275 470.245C567.883 470.496 568.536 470.62 569.193 470.612C586.601 470.705 604.013 470.697 621.43 470.588C622.901 470.297 624.259 469.593 625.344 468.557C626.073 467.884 626.664 467.075 627.086 466.177C629.842 461.6 632.467 457.061 635.076 452.618L635.086 452.63ZM657.886 423.496L656.945 427.416C654.369 439.113 650.318 450.437 644.889 461.114C643.394 464.039 643.404 464.05 646.147 466.212C646.975 466.845 647.813 467.468 648.664 468.08C653.924 471.928 659.185 475.769 664.446 479.603C664.662 479.406 664.787 479.292 664.783 479.129C667.277 466.962 669.782 454.786 672.18 442.582C672.262 442.029 672.233 441.464 672.095 440.921C671.957 440.379 671.713 439.869 671.377 439.421C667.074 434.227 662.618 429.069 657.866 423.473L657.886 423.496ZM532.652 423.539C528.235 428.714 524.112 433.664 519.863 438.477C519.163 439.223 518.667 440.138 518.425 441.132C518.183 442.127 518.203 443.167 518.483 444.152C520.815 455.287 523.05 466.429 525.287 477.505C525.43 478.187 525.606 478.859 525.818 479.707C532.631 474.761 539.265 469.893 545.951 465.105C547.201 464.193 546.769 463.4 546.238 462.407C540.951 452.345 536.934 441.665 534.278 430.613C533.802 428.403 533.296 426.137 532.652 423.539Z" fill="white"/>
<path fill-rule="evenodd" clip-rule="evenodd" d="M623.575 282.227L623.715 282.401C624.506 283.387 625.307 284.38 626.112 285.376C627.759 287.417 629.421 289.476 631.047 291.535C650.663 316.345 662.801 344.363 664.531 376.469L664.531 376.47C664.869 382.765 664.738 389.223 664.612 395.502C664.546 398.734 664.482 401.918 664.483 405.009C664.485 405.136 664.522 405.261 664.589 405.368C667.879 409.288 671.199 413.185 674.529 417.094L674.531 417.097C677.889 421.039 681.258 424.994 684.601 428.977C686.6 431.328 688.023 434.114 688.756 437.112C689.485 440.096 689.511 443.207 688.833 446.202C687.337 453.7 685.801 461.211 684.266 468.716C683.154 474.154 682.042 479.588 680.948 485.01C679.878 490.319 676.124 494.69 671.158 496.594C666.056 498.55 659.99 497.803 654.585 493.544L654.582 493.542C650.522 490.337 646.374 487.354 642.145 484.313C640.557 483.171 638.958 482.021 637.347 480.848C636.564 481.618 635.758 482.366 634.93 483.09L634.831 483.176L634.727 483.256C630.776 486.278 625.902 487.839 620.932 487.677C604.046 487.635 587.15 487.636 570.244 487.68C563.679 487.705 557.744 485.779 553.235 480.825C550.673 482.667 548.099 484.504 545.537 486.332C544.24 487.271 542.917 488.249 541.576 489.239C539.187 491.005 536.741 492.811 534.292 494.515C532.169 496.115 529.673 497.147 527.039 497.512C524.373 497.881 521.657 497.556 519.155 496.566C516.652 495.577 514.447 493.957 512.755 491.864C511.084 489.798 509.968 487.339 509.512 484.721C507.516 475.452 505.646 466.112 503.801 456.901L503.61 455.946C503.609 455.944 503.609 455.942 503.608 455.939C503.415 454.994 503.241 454.091 503.072 453.212C502.725 451.41 502.398 449.712 501.971 447.974C499.894 439.599 502.357 432.471 507.775 426.483C513.965 419.519 519.994 412.384 526.031 405.206L526.01 405.078L525.997 404.932C524.226 385.384 525.839 365.677 530.766 346.678L530.775 346.645L530.784 346.612C535.558 329.427 543.419 313.255 553.983 298.885C556.544 295.33 559.378 291.842 562.124 288.464C563.36 286.943 564.578 285.444 565.744 283.971C565.965 283.658 566.168 283.333 566.355 282.998L566.627 282.509L581.451 267.692L582.16 267.389C582.31 267.325 582.455 267.253 582.596 267.173C585.938 264.638 589.967 263.165 594.16 262.949C598.432 262.729 602.669 263.824 606.299 266.086C606.774 266.377 607.381 266.768 607.914 267.112C608.261 267.336 608.577 267.54 608.805 267.683L609.185 267.92L623.575 282.227ZM604.197 269.489C601.258 267.654 597.826 266.766 594.366 266.944C590.905 267.122 587.583 268.359 584.849 270.486C584.492 270.708 584.119 270.902 583.733 271.067L569.85 284.943C569.576 285.435 569.274 285.912 568.946 286.371C567.691 287.957 566.412 289.53 565.134 291.104C562.424 294.438 559.713 297.773 557.217 301.239C546.935 315.221 539.284 330.959 534.638 347.682C529.827 366.236 528.251 385.481 529.981 404.571C530.136 405.515 529.961 406.484 529.485 407.314C523.315 414.652 517.122 421.989 510.752 429.155C506.075 434.318 504.144 440.12 505.854 447.013C506.306 448.852 506.666 450.718 507.024 452.579C507.19 453.437 507.355 454.294 507.529 455.146L507.721 456.107C509.573 465.353 511.444 474.696 513.441 483.963C513.771 485.937 514.606 487.793 515.865 489.349C517.124 490.906 518.764 492.11 520.625 492.846C522.487 493.582 524.507 493.825 526.49 493.55C528.472 493.275 530.35 492.492 531.941 491.278C534.374 489.588 536.748 487.833 539.122 486.079C540.478 485.077 541.835 484.074 543.202 483.084C546.759 480.547 550.326 478 553.85 475.45C554.084 475.613 554.305 475.794 554.511 475.992C558.286 481.543 563.652 483.705 570.229 483.68C587.164 483.636 604.089 483.635 621.006 483.677C625.073 483.823 629.064 482.551 632.297 480.079C633.881 478.693 635.381 477.213 636.789 475.647C636.882 475.705 637 475.769 637.131 475.841C637.401 475.99 637.731 476.171 638.028 476.39C640.133 477.939 642.258 479.467 644.382 480.994C648.657 484.069 652.933 487.144 657.061 490.402C665.804 497.291 675.435 492.126 677.027 484.219C678.126 478.772 679.239 473.331 680.351 467.892C681.887 460.384 683.422 452.879 684.921 445.366C685.473 442.96 685.456 440.459 684.87 438.062C684.284 435.665 683.145 433.438 681.545 431.559C678.21 427.584 674.847 423.636 671.483 419.688C668.12 415.74 664.757 411.791 661.422 407.818C660.82 407.013 660.49 406.036 660.483 405.031C660.482 401.755 660.548 398.477 660.615 395.2C660.741 389.022 660.867 382.845 660.537 376.684C658.858 345.525 647.093 318.28 627.909 294.015C626.296 291.972 624.658 289.943 623.018 287.912C622.21 286.911 621.401 285.909 620.596 284.905L606.683 271.073C606.328 270.851 605.975 270.622 605.621 270.393C605.152 270.09 604.68 269.784 604.197 269.489ZM550.294 439.153C550.445 439.16 550.59 439.168 550.73 439.175C551.133 439.195 551.498 439.214 551.87 439.215C580.756 439.232 609.638 439.252 638.516 439.276C639.09 439.342 639.667 439.178 640.12 438.819C640.573 438.46 640.866 437.936 640.933 437.362C645.44 423.253 647.865 408.562 648.13 393.752C648.58 373.414 645.913 353.63 637.682 334.821C631.433 320.634 623.033 307.496 612.779 295.87C609.102 291.674 605.049 287.741 601.046 283.857C600.114 282.953 599.185 282.051 598.264 281.15C596.275 279.175 594.376 279.284 592.244 281.146C591.867 281.49 591.483 281.824 591.096 282.161C590.316 282.84 589.528 283.527 588.779 284.308C581.042 291.747 574.022 299.896 567.809 308.648C558.42 321.519 551.418 335.97 547.134 351.314C541.757 371.524 541.253 392.078 544.024 412.683C545.237 421.691 547.337 430.558 550.294 439.153ZM594.903 284.134C594.387 284.605 593.947 284.986 593.548 285.333C592.865 285.925 592.299 286.416 591.666 287.077L591.61 287.135L591.551 287.191C583.995 294.457 577.138 302.416 571.07 310.964L571.055 310.985L571.04 311.005C561.939 323.483 555.149 337.491 550.993 352.366C545.783 371.964 545.275 391.966 547.989 412.149C549.042 419.978 550.786 427.697 553.2 435.215C581.269 435.232 609.335 435.252 637.398 435.275C641.61 421.803 643.878 407.797 644.131 393.681L644.131 393.672L644.131 393.664C644.572 373.734 641.955 354.566 634.021 336.432C627.938 322.622 619.761 309.833 609.779 298.516L609.77 298.506C606.211 294.444 602.302 290.651 598.308 286.775C597.364 285.859 596.416 284.938 595.466 284.008L595.456 283.998L595.446 283.988C595.386 283.929 595.332 283.879 595.284 283.837C595.184 283.906 595.057 284.002 594.903 284.134ZM632.727 456.629C632.795 456.514 632.862 456.399 632.929 456.284C633.639 455.071 634.345 453.864 635.049 452.664C635.056 452.652 635.062 452.641 635.069 452.63L555.254 452.597C556.082 453.932 556.904 455.266 557.724 456.598C557.762 456.661 557.801 456.724 557.839 456.787C560.403 460.953 562.954 465.099 565.656 469.154C566.117 469.624 566.667 469.995 567.275 470.245C567.883 470.496 568.536 470.621 569.193 470.612C586.601 470.705 604.013 470.698 621.43 470.588C622.901 470.297 624.259 469.593 625.344 468.558C626.073 467.884 626.664 467.076 627.086 466.177C629.018 462.969 630.885 459.78 632.727 456.629ZM628.094 456.627L562.422 456.6C564.488 459.952 566.539 463.246 568.691 466.493C568.726 466.514 568.762 466.532 568.799 466.547C568.907 466.592 569.023 466.614 569.139 466.612L569.177 466.612L569.215 466.612C586.458 466.705 603.706 466.698 620.958 466.591C621.566 466.419 622.124 466.101 622.583 465.663L622.606 465.642L622.629 465.62C622.978 465.297 623.262 464.909 623.464 464.478L623.552 464.291L623.659 464.113C625.171 461.603 626.64 459.109 628.094 456.627ZM656.742 428.325C654.158 439.701 650.177 450.714 644.888 461.114C643.394 464.039 643.404 464.051 646.147 466.212C646.974 466.845 647.813 467.468 648.664 468.08C652.81 471.113 656.956 474.142 661.102 477.166C661.16 477.208 661.217 477.25 661.275 477.292C661.986 477.81 662.697 478.329 663.408 478.847C663.546 478.948 663.684 479.048 663.822 479.149C664.03 479.3 664.238 479.452 664.446 479.603C664.656 479.411 664.78 479.298 664.783 479.14C664.783 479.136 664.783 479.133 664.783 479.129C664.971 478.211 665.159 477.294 665.347 476.376C665.411 476.067 665.474 475.758 665.537 475.449C667.781 464.507 670.024 453.556 672.18 442.583C672.262 442.029 672.233 441.464 672.095 440.922C671.957 440.379 671.713 439.869 671.377 439.421C668.352 435.769 665.25 432.135 662.023 428.353C661.715 427.992 661.405 427.63 661.095 427.265C660.04 426.028 658.97 424.774 657.886 423.497L656.945 427.416C656.878 427.719 656.81 428.022 656.742 428.325ZM659.957 432.094C657.302 442.769 653.444 453.114 648.454 462.927L648.451 462.934C648.45 462.934 648.451 462.933 648.451 462.934C648.499 462.972 648.548 463.012 648.6 463.052C649.389 463.656 650.19 464.25 651.001 464.834L651.013 464.843L651.025 464.852C654.678 467.524 658.332 470.193 661.985 472.859C664.096 462.562 666.199 452.27 668.225 441.961C668.225 441.942 668.223 441.924 668.218 441.906C668.214 441.888 668.207 441.871 668.198 441.855C665.523 438.627 662.794 435.42 659.957 432.094ZM519.863 438.478C519.162 439.223 518.667 440.138 518.425 441.133C518.183 442.127 518.203 443.167 518.483 444.152C520.49 453.734 522.424 463.32 524.35 472.866C524.524 473.728 524.698 474.589 524.872 475.45C525.01 476.135 525.149 476.821 525.287 477.505C525.402 478.052 525.538 478.593 525.697 479.224C525.736 479.379 525.776 479.54 525.818 479.707C526.987 478.859 528.15 478.012 529.31 477.168C530.207 476.515 531.101 475.864 531.994 475.214C536.673 471.806 541.3 468.436 545.951 465.105C547.196 464.197 546.773 463.407 546.244 462.42L546.238 462.407C540.951 452.345 536.934 441.665 534.278 430.614C534.119 429.877 533.957 429.135 533.788 428.376C533.449 426.857 533.081 425.272 532.652 423.539C531.567 424.81 530.5 426.068 529.444 427.313C529.22 427.578 528.996 427.842 528.772 428.106C525.768 431.651 522.846 435.098 519.863 438.478ZM530.546 432.199C527.978 435.227 525.437 438.207 522.862 441.124L522.821 441.171L522.778 441.217C522.551 441.459 522.39 441.756 522.311 442.078C522.233 442.401 522.239 442.738 522.33 443.058L522.369 443.194L522.398 443.332C524.408 452.929 526.346 462.531 528.272 472.076C528.325 472.338 528.377 472.599 528.43 472.861C528.828 472.571 529.226 472.281 529.624 471.992C533.777 468.966 537.902 465.963 542.035 462.992C537.022 453.21 533.166 442.876 530.546 432.199Z" fill="white"/>
<path d="M617.881 379.563C614.899 382.553 611.352 384.921 607.447 386.531C603.543 388.14 599.357 388.959 595.134 388.94C590.91 388.92 586.732 388.063 582.842 386.418C578.952 384.773 575.427 382.372 572.471 379.355C566.499 373.33 563.159 365.185 563.181 356.703C563.204 348.221 566.587 340.094 572.59 334.103C578.643 328.105 586.829 324.754 595.351 324.786C603.873 324.817 612.035 328.228 618.046 334.27C621.01 337.255 623.357 340.794 624.952 344.686C626.548 348.578 627.362 352.745 627.346 356.952C627.331 361.158 626.487 365.319 624.863 369.199C623.239 373.079 620.867 376.6 617.881 379.563ZM581.735 343.395C579.943 345.178 578.524 347.301 577.562 349.639C576.599 351.976 576.112 354.483 576.128 357.011C576.144 359.539 576.664 362.039 577.656 364.364C578.649 366.69 580.094 368.794 581.909 370.555C583.7 372.317 585.823 373.708 588.154 374.647C590.485 375.586 592.979 376.055 595.491 376.026C598.004 375.998 600.486 375.473 602.795 374.481C605.104 373.489 607.194 372.051 608.944 370.248C612.504 366.655 614.493 361.796 614.475 356.738C614.458 351.679 612.434 346.834 608.849 343.266C607.065 341.483 604.946 340.071 602.614 339.111C600.282 338.152 597.783 337.663 595.262 337.674C592.74 337.685 590.245 338.195 587.922 339.175C585.599 340.155 583.492 341.586 581.725 343.384L581.735 343.395Z" fill="white"/>
<path d="M616 349.5C616 359.165 606.822 367 595.5 367C584.178 367 575 359.165 575 349.5C575 339.835 584.178 332 595.5 332C606.822 332 616 339.835 616 349.5Z" fill="white"/>
</g>
<defs>
<filter id="filter0_f_533_36581" x="610.72" y="584.578" width="218.176" height="260.43" filterUnits="userSpaceOnUse" color-interpolation-filters="sRGB">
<feFlood flood-opacity="0" result="BackgroundImageFix"/>
<feBlend mode="normal" in="SourceGraphic" in2="BackgroundImageFix" result="shape"/>
<feGaussianBlur stdDeviation="2" result="effect1_foregroundBlur_533_36581"/>
</filter>
<filter id="filter1_f_533_36581" x="89.2026" y="567.377" width="672.798" height="324.019" filterUnits="userSpaceOnUse" color-interpolation-filters="sRGB">
<feFlood flood-opacity="0" result="BackgroundImageFix"/>
<feBlend mode="normal" in="SourceGraphic" in2="BackgroundImageFix" result="shape"/>
<feGaussianBlur stdDeviation="10" result="effect1_foregroundBlur_533_36581"/>
</filter>
<filter id="filter2_f_533_36581" x="78.709" y="115.813" width="679.197" height="312.948" filterUnits="userSpaceOnUse" color-interpolation-filters="sRGB">
<feFlood flood-opacity="0" result="BackgroundImageFix"/>
<feBlend mode="normal" in="SourceGraphic" in2="BackgroundImageFix" result="shape"/>
<feGaussianBlur stdDeviation="10" result="effect1_foregroundBlur_533_36581"/>
</filter>
<filter id="filter3_f_533_36581" x="317.237" y="264.219" width="397.12" height="370.443" filterUnits="userSpaceOnUse" color-interpolation-filters="sRGB">
<feFlood flood-opacity="0" result="BackgroundImageFix"/>
<feBlend mode="normal" in="SourceGraphic" in2="BackgroundImageFix" result="shape"/>
<feGaussianBlur stdDeviation="15" result="effect1_foregroundBlur_533_36581"/>
</filter>
<filter id="filter4_f_533_36581" x="172.208" y="93.4915" width="571.442" height="212.769" filterUnits="userSpaceOnUse" color-interpolation-filters="sRGB">
<feFlood flood-opacity="0" result="BackgroundImageFix"/>
<feBlend mode="normal" in="SourceGraphic" in2="BackgroundImageFix" result="shape"/>
<feGaussianBlur stdDeviation="5" result="effect1_foregroundBlur_533_36581"/>
</filter>
<filter id="filter5_f_533_36581" x="113.194" y="584.692" width="516.459" height="291.606" filterUnits="userSpaceOnUse" color-interpolation-filters="sRGB">
<feFlood flood-opacity="0" result="BackgroundImageFix"/>
<feBlend mode="normal" in="SourceGraphic" in2="BackgroundImageFix" result="shape"/>
<feGaussianBlur stdDeviation="5" result="effect1_foregroundBlur_533_36581"/>
</filter>
<filter id="filter6_f_533_36581" x="0.000488281" y="10" width="976" height="976" filterUnits="userSpaceOnUse" color-interpolation-filters="sRGB">
<feFlood flood-opacity="0" result="BackgroundImageFix"/>
<feBlend mode="normal" in="SourceGraphic" in2="BackgroundImageFix" result="shape"/>
<feGaussianBlur stdDeviation="25" result="effect1_foregroundBlur_533_36581"/>
</filter>
<filter id="filter7_f_533_36581" x="95.6875" y="349.051" width="141.78" height="343.134" filterUnits="userSpaceOnUse" color-interpolation-filters="sRGB">
<feFlood flood-opacity="0" result="BackgroundImageFix"/>
<feBlend mode="normal" in="SourceGraphic" in2="BackgroundImageFix" result="shape"/>
<feGaussianBlur stdDeviation="2" result="effect1_foregroundBlur_533_36581"/>
</filter>
<filter id="filter8_f_533_36581" x="683.134" y="227.796" width="203.895" height="303.98" filterUnits="userSpaceOnUse" color-interpolation-filters="sRGB">
<feFlood flood-opacity="0" result="BackgroundImageFix"/>
<feBlend mode="normal" in="SourceGraphic" in2="BackgroundImageFix" result="shape"/>
<feGaussianBlur stdDeviation="5" result="effect1_foregroundBlur_533_36581"/>
</filter>
<filter id="filter9_f_533_36581" x="83.0005" y="93" width="810" height="810" filterUnits="userSpaceOnUse" color-interpolation-filters="sRGB">
<feFlood flood-opacity="0" result="BackgroundImageFix"/>
<feBlend mode="normal" in="SourceGraphic" in2="BackgroundImageFix" result="shape"/>
<feGaussianBlur stdDeviation="5" result="effect1_foregroundBlur_533_36581"/>
</filter>
<filter id="filter10_f_533_36581" x="384.358" y="353.665" width="284.467" height="262.59" filterUnits="userSpaceOnUse" color-interpolation-filters="sRGB">
<feFlood flood-opacity="0" result="BackgroundImageFix"/>
<feBlend mode="normal" in="SourceGraphic" in2="BackgroundImageFix" result="shape"/>
<feGaussianBlur stdDeviation="2" result="effect1_foregroundBlur_533_36581"/>
</filter>
<filter id="filter11_f_533_36581" x="207.71" y="492.229" width="145.938" height="191.491" filterUnits="userSpaceOnUse" color-interpolation-filters="sRGB">
<feFlood flood-opacity="0" result="BackgroundImageFix"/>
<feBlend mode="normal" in="SourceGraphic" in2="BackgroundImageFix" result="shape"/>
<feGaussianBlur stdDeviation="10" result="effect1_foregroundBlur_533_36581"/>
</filter>
<filter id="filter12_f_533_36581" x="17" y="229" width="942.348" height="420.635" filterUnits="userSpaceOnUse" color-interpolation-filters="sRGB">
<feFlood flood-opacity="0" result="BackgroundImageFix"/>
<feBlend mode="normal" in="SourceGraphic" in2="BackgroundImageFix" result="shape"/>
<feGaussianBlur stdDeviation="15" result="effect1_foregroundBlur_533_36581"/>
</filter>
<filter id="filter13_d_533_36581" x="66" y="388.122" width="850.347" height="234.026" filterUnits="userSpaceOnUse" color-interpolation-filters="sRGB">
<feFlood flood-opacity="0" result="BackgroundImageFix"/>
<feColorMatrix in="SourceAlpha" type="matrix" values="0 0 0 0 0 0 0 0 0 0 0 0 0 0 0 0 0 0 127 0" result="hardAlpha"/>
<feOffset dx="3" dy="10"/>
<feGaussianBlur stdDeviation="2"/>
<feComposite in2="hardAlpha" operator="out"/>
<feColorMatrix type="matrix" values="0 0 0 0 0 0 0 0 0 0 0 0 0 0 0 0 0 0 0.55 0"/>
<feBlend mode="normal" in2="BackgroundImageFix" result="effect1_dropShadow_533_36581"/>
<feBlend mode="normal" in="SourceGraphic" in2="effect1_dropShadow_533_36581" result="shape"/>
</filter>
<filter id="filter14_d_533_36581" x="500.238" y="262.922" width="196.084" height="576.078" filterUnits="userSpaceOnUse" color-interpolation-filters="sRGB">
<feFlood flood-opacity="0" result="BackgroundImageFix"/>
<feColorMatrix in="SourceAlpha" type="matrix" values="0 0 0 0 0 0 0 0 0 0 0 0 0 0 0 0 0 0 127 0" result="hardAlpha"/>
<feOffset dx="3" dy="10"/>
<feGaussianBlur stdDeviation="2"/>
<feComposite in2="hardAlpha" operator="out"/>
<feColorMatrix type="matrix" values="0 0 0 0 0 0 0 0 0 0 0 0 0 0 0 0 0 0 0.55 0"/>
<feBlend mode="normal" in2="BackgroundImageFix" result="effect1_dropShadow_533_36581"/>
<feBlend mode="normal" in="SourceGraphic" in2="effect1_dropShadow_533_36581" result="shape"/>
</filter>
<linearGradient id="paint0_linear_533_36581" x1="611.609" y1="605.564" x2="722.719" y2="782.352" gradientUnits="userSpaceOnUse">
<stop stop-color="#FF8A00"/>
<stop offset="1" stop-color="#00FF85"/>
</linearGradient>
<linearGradient id="paint1_linear_533_36581" x1="522.23" y1="257.51" x2="538.059" y2="120.124" gradientUnits="userSpaceOnUse">
<stop stop-color="#FF8A00"/>
<stop offset="1" stop-color="#00FF85"/>
</linearGradient>
<linearGradient id="paint2_linear_533_36581" x1="511.5" y1="618.843" x2="526.097" y2="850.617" gradientUnits="userSpaceOnUse">
<stop stop-color="#8F00FF"/>
<stop offset="1" stop-color="#0AFFD3"/>
</linearGradient>
<linearGradient id="paint3_linear_533_36581" x1="363.34" y1="401.766" x2="254.786" y2="225.684" gradientUnits="userSpaceOnUse">
<stop stop-color="#8F00FF"/>
<stop offset="1" stop-color="#0AFFD3"/>
</linearGradient>
<linearGradient id="paint4_linear_533_36581" x1="651.384" y1="466.392" x2="371.084" y2="388.37" gradientUnits="userSpaceOnUse">
<stop stop-color="#B962FD"/>
<stop offset="1" stop-color="#00FFD1"/>
</linearGradient>
<linearGradient id="paint5_linear_533_36581" x1="732.366" y1="169.272" x2="191.872" y2="195.57" gradientUnits="userSpaceOnUse">
<stop stop-color="#B962FD"/>
<stop offset="1" stop-color="#00FFD1"/>
</linearGradient>
<linearGradient id="paint6_linear_533_36581" x1="112.223" y1="613.447" x2="576.412" y2="891.575" gradientUnits="userSpaceOnUse">
<stop stop-color="#B962FD"/>
<stop offset="1" stop-color="#00FFD1"/>
</linearGradient>
<linearGradient id="paint7_linear_533_36581" x1="50.0005" y1="549.966" x2="904.922" y2="552.976" gradientUnits="userSpaceOnUse">
<stop stop-color="#B962FD"/>
<stop offset="1" stop-color="#00FFD1"/>
</linearGradient>
<linearGradient id="paint8_linear_533_36581" x1="101.835" y1="550.022" x2="245.948" y2="529.85" gradientUnits="userSpaceOnUse">
<stop stop-color="#FF8A00"/>
<stop offset="1" stop-color="#FF2B5E"/>
</linearGradient>
<linearGradient id="paint9_linear_533_36581" x1="864.342" y1="379.892" x2="729.211" y2="416.569" gradientUnits="userSpaceOnUse">
<stop stop-color="#FF8A00"/>
<stop offset="1" stop-color="#FF2B5E"/>
</linearGradient>
<linearGradient id="paint10_linear_533_36581" x1="637.785" y1="498.861" x2="407.915" y2="434.877" gradientUnits="userSpaceOnUse">
<stop stop-color="#FF8A00"/>
<stop offset="1" stop-color="#FFE600"/>
</linearGradient>
<linearGradient id="paint11_linear_533_36581" x1="228.702" y1="612.906" x2="328.642" y2="577.002" gradientUnits="userSpaceOnUse">
<stop stop-color="#FF8A00"/>
<stop offset="1" stop-color="#FF2B5E"/>
</linearGradient>
<linearGradient id="paint12_linear_533_36581" x1="748.744" y1="481.133" x2="671.012" y2="456.985" gradientUnits="userSpaceOnUse">
<stop stop-color="#FF8A00"/>
<stop offset="1" stop-color="#FF2B5E"/>
</linearGradient>
<linearGradient id="paint13_linear_533_36581" x1="67" y1="511.122" x2="220.848" y2="511.548" gradientUnits="userSpaceOnUse">
<stop stop-color="#B962FD"/>
<stop offset="1" stop-color="#00FFD1"/>
</linearGradient>
<linearGradient id="paint14_linear_533_36581" x1="490" y1="434.068" x2="677.382" y2="434.472" gradientUnits="userSpaceOnUse">
<stop stop-color="#B962FD"/>
<stop offset="1" stop-color="#00FFD1"/>
</linearGradient>
<linearGradient id="paint15_linear_533_36581" x1="295.446" y1="511.244" x2="448.223" y2="511.664" gradientUnits="userSpaceOnUse">
<stop stop-color="#B962FD"/>
<stop offset="1" stop-color="#00FFD1"/>
</linearGradient>
<linearGradient id="paint16_linear_533_36581" x1="752.921" y1="511.131" x2="905.584" y2="511.55" gradientUnits="userSpaceOnUse">
<stop stop-color="#B962FD"/>
<stop offset="1" stop-color="#00FFD1"/>
</linearGradient>
<linearGradient id="paint17_linear_533_36581" x1="590" y1="639" x2="590" y2="797.5" gradientUnits="userSpaceOnUse">
<stop stop-color="white"/>
<stop offset="1" stop-color="white" stop-opacity="0"/>
</linearGradient>
<linearGradient id="paint18_linear_533_36581" x1="564" y1="546.223" x2="564" y2="615.057" gradientUnits="userSpaceOnUse">
<stop stop-color="white"/>
<stop offset="1" stop-color="white" stop-opacity="0"/>
</linearGradient>
<linearGradient id="paint19_linear_533_36581" x1="616" y1="579.491" x2="616" y2="680.479" gradientUnits="userSpaceOnUse">
<stop stop-color="white"/>
<stop offset="1" stop-color="white" stop-opacity="0"/>
</linearGradient>
</defs>
</svg>
