<svg width="55" height="55" viewBox="0 0 55 55" fill="none" xmlns="http://www.w3.org/2000/svg">
<path d="M6.59822 52.7514C6.21948 52.5922 5.9028 52.313 5.6963 51.9562C5.4898 51.5995 5.40475 51.1848 5.4541 50.7751C5.4541 41.7355 5.4541 32.7121 5.4541 23.6725C5.4541 22.3927 6.01811 21.8257 7.29114 21.8257H16.0091C16.9088 21.7837 17.8009 22.0085 18.5745 22.4723C19.3482 22.936 19.969 23.6182 20.3599 24.4339C20.4889 24.6931 20.6017 24.7255 20.8756 24.6445C22.3961 24.1051 23.7548 23.1852 24.8236 21.9715C27.1007 19.4878 28.6946 16.4504 29.4485 13.1588C29.6419 12.3488 29.8352 11.5388 30.0608 10.7126C30.1247 10.2997 30.3448 9.92765 30.6751 9.67408C31.0054 9.4205 31.4204 9.30502 31.8334 9.35177C33.1974 9.21289 34.574 9.43054 35.8298 9.98359C36.87 10.4763 37.7478 11.2586 38.359 12.2378C38.9703 13.217 39.2893 14.3518 39.2783 15.5078C39.368 18.6659 38.9712 21.819 38.1019 24.8551H38.6659C41.4376 24.8551 44.1932 24.8551 46.9649 24.8551C47.7029 24.8431 48.433 25.0101 49.0933 25.342C49.7535 25.674 50.3244 26.161 50.7577 26.7618C51.1909 27.3627 51.4737 28.0596 51.5821 28.7937C51.6904 29.5277 51.6212 30.2773 51.3802 30.9787C51.1447 31.5405 50.8644 32.0822 50.5423 32.5987C51.2749 33.4519 51.678 34.5415 51.678 35.6686C51.678 36.7957 51.2749 37.8853 50.5423 38.7385C51.0568 39.3266 51.414 40.0367 51.5803 40.8019C51.7466 41.567 51.7166 42.3622 51.493 43.1125C51.2756 43.8842 50.8653 44.5871 50.3011 45.1543C49.737 45.7214 49.0378 46.1339 48.2701 46.3524L48.4635 47.0652C48.7136 48.2631 48.4855 49.5117 47.8284 50.542C47.1713 51.5724 46.1377 52.3018 44.9506 52.5732L44.6605 52.6866H29.5613L29.1745 52.5732C28.3527 52.4112 27.5631 52.3302 26.6768 52.0872C24.7753 51.5202 22.8899 50.8885 21.0045 50.2405C20.5533 50.0785 20.2955 50.0946 20.086 50.5644C19.9467 50.8188 19.7671 51.0486 19.5542 51.2449C18.845 51.9659 17.9444 52.4664 16.9598 52.6866L6.59822 52.7514ZM20.8434 37.3939C20.8434 40.3747 20.8434 43.3717 20.8434 46.3524C20.8434 46.8222 20.9562 47.0491 21.4235 47.1787C22.6482 47.5513 23.8568 47.9725 25.0654 48.3937C26.9748 49.1447 28.9951 49.5717 31.0438 49.6572H43.742C44.167 49.6885 44.5871 49.5493 44.9102 49.27C45.2333 48.9906 45.4333 48.594 45.4662 48.1669C45.4662 47.7372 45.2964 47.3252 44.9942 47.0213C44.692 46.7175 44.2822 46.5469 43.8548 46.5469C43.6502 46.5429 43.4485 46.4973 43.2619 46.4129C43.0753 46.3284 42.9077 46.2068 42.7691 46.0554C42.6306 45.904 42.524 45.7259 42.4558 45.532C42.3876 45.338 42.3592 45.1322 42.3723 44.9269C42.3804 44.724 42.4289 44.5248 42.5148 44.341C42.6007 44.1571 42.7223 43.9925 42.8725 43.8566C43.0226 43.7207 43.1983 43.6165 43.3891 43.5499C43.5799 43.4833 43.7821 43.4557 43.9837 43.4689H46.8037C47.0167 43.4842 47.2306 43.4569 47.433 43.3885C47.6354 43.32 47.8223 43.2118 47.9827 43.0701C48.1432 42.9284 48.274 42.7561 48.3676 42.5631C48.4612 42.3701 48.5157 42.1604 48.528 41.9461C48.5287 41.722 48.4831 41.5002 48.3942 41.2947C48.3053 41.0892 48.1749 40.9044 48.0114 40.7522C47.8478 40.5999 47.6546 40.4835 47.4439 40.4101C47.2333 40.3368 47.0098 40.3081 46.7876 40.3261H43.9676C43.7601 40.3418 43.5517 40.314 43.3555 40.2443C43.1594 40.1747 42.9798 40.0648 42.8282 39.9215C42.6766 39.7783 42.5564 39.6049 42.4751 39.4123C42.3938 39.2198 42.3533 39.0124 42.3561 38.8033C42.3392 38.5862 42.3692 38.368 42.4442 38.1637C42.5192 37.9594 42.6373 37.7739 42.7905 37.62C42.9436 37.466 43.1282 37.3472 43.3314 37.2718C43.5346 37.1964 43.7516 37.1662 43.9676 37.1833H46.7876C47.0006 37.1987 47.2145 37.1713 47.4169 37.1029C47.6193 37.0344 47.8062 36.9262 47.9666 36.7845C48.127 36.6428 48.2579 36.4705 48.3515 36.2775C48.4451 36.0845 48.4996 35.8748 48.5118 35.6605C48.5124 35.4379 48.4673 35.2175 48.3793 35.0132C48.2914 34.8088 48.1625 34.625 48.0007 34.473C47.8389 34.3209 47.6477 34.2041 47.439 34.1297C47.2303 34.0553 47.0085 34.0249 46.7876 34.0405H44.0159C43.8006 34.0548 43.5848 34.0227 43.3828 33.9464C43.1808 33.87 42.9974 33.7512 42.8448 33.5978C42.6923 33.4444 42.574 33.26 42.4981 33.057C42.4222 32.854 42.3902 32.637 42.4045 32.4205C42.4041 32.2121 42.4462 32.0058 42.5283 31.8144C42.6104 31.623 42.7307 31.4506 42.8818 31.3079C43.0328 31.1651 43.2114 31.055 43.4065 30.9845C43.6016 30.9139 43.809 30.8844 44.0159 30.8977C44.9667 30.8977 45.9174 30.8977 46.8843 30.8977C47.1383 30.8916 47.3873 30.8252 47.611 30.7039C47.8346 30.5826 48.0265 30.4098 48.1711 30.1998C48.3156 29.9897 48.4087 29.7482 48.4427 29.4951C48.4768 29.2419 48.4508 28.9842 48.3668 28.7431C48.2256 28.4411 47.9949 28.1902 47.7065 28.025C47.4181 27.8597 47.0859 27.788 46.7554 27.8197H31.6562C31.2288 27.8197 30.8189 27.649 30.5167 27.3452C30.2145 27.0414 30.0447 26.6294 30.0447 26.1997C30.0443 25.9913 30.0864 25.785 30.1685 25.5936C30.2506 25.4023 30.3709 25.2298 30.522 25.087C30.6731 24.9443 30.8517 24.8343 31.0468 24.7637C31.2418 24.6932 31.4493 24.6636 31.6562 24.677C32.5102 24.677 33.3804 24.677 34.2183 24.677C34.2998 24.6909 34.3833 24.6885 34.4638 24.67C34.5444 24.6515 34.6205 24.6171 34.6879 24.569C34.7553 24.5208 34.8125 24.4597 34.8564 24.3893C34.9002 24.3189 34.9298 24.2405 34.9435 24.1585C35.8972 21.2732 36.323 18.2379 36.2004 15.1999C36.1296 14.4618 35.7919 13.7755 35.2514 13.2709C34.7109 12.7663 34.005 12.4786 33.2676 12.4622C32.9775 12.4622 32.7681 12.4622 32.7519 12.8186C32.7239 12.972 32.6862 13.1235 32.6391 13.2722C31.8132 17.3106 29.9079 21.0463 27.128 24.0775C25.598 25.8524 23.5794 27.132 21.3268 27.7549C20.9401 27.8521 20.8595 28.0141 20.8595 28.3705C20.8595 31.3351 20.8434 34.3807 20.8434 37.3939ZM8.5803 24.9199V49.6572H15.7835C17.2176 49.6572 17.7816 49.1064 17.7816 47.6646V26.9125C17.79 26.756 17.79 26.5992 17.7816 26.4427C17.7774 26.0417 17.6159 25.6585 17.3323 25.3764C17.0487 25.0943 16.6658 24.9361 16.2669 24.9361C13.7047 24.8551 11.1586 24.8551 8.5803 24.8551V24.9199Z" fill="#6C757D"/>
<path d="M36.216 3.11466C36.216 3.66546 36.216 4.21626 36.216 4.73466C36.2144 4.94106 36.1706 5.1449 36.0874 5.33358C36.0041 5.52226 35.8832 5.69173 35.7321 5.83147C35.581 5.97122 35.403 6.07827 35.209 6.14598C35.0151 6.21368 34.8093 6.24059 34.6046 6.22505C34.4078 6.22719 34.2125 6.19033 34.0299 6.11658C33.8472 6.04284 33.6808 5.93366 33.5402 5.79526C33.3995 5.65686 33.2873 5.49198 33.2101 5.31C33.1328 5.12802 33.0919 4.93251 33.0898 4.73466C33.0898 3.64926 33.0898 2.54767 33.0898 1.49467C33.0915 1.28827 33.1353 1.0844 33.2185 0.895724C33.3017 0.707048 33.4227 0.537578 33.5738 0.397831C33.7249 0.258084 33.9029 0.151056 34.0969 0.0833539C34.2908 0.0156521 34.4966 -0.011265 34.7013 0.00427725C35.096 0.00425432 35.4747 0.160757 35.7553 0.439804C36.0359 0.718851 36.1957 1.09791 36.1999 1.49467C36.2322 2.02927 36.216 2.56387 36.216 3.11466Z" fill="#6C757D"/>
<path d="M28.6421 7.76371C28.6533 8.06769 28.5791 8.36869 28.4281 8.63227C28.277 8.89584 28.0552 9.11134 27.788 9.2541C27.5413 9.40964 27.2513 9.48106 26.961 9.45771C26.6707 9.43436 26.3956 9.3175 26.1766 9.1245C25.3064 8.3145 24.4685 7.50452 23.6789 6.61353C23.4507 6.3192 23.3407 5.94953 23.3705 5.57759C23.4004 5.20566 23.5679 4.85849 23.84 4.60472C24.0947 4.33254 24.4427 4.16774 24.8137 4.14369C25.1846 4.11963 25.5508 4.2381 25.8382 4.47512C26.7084 5.26892 27.5302 6.09512 28.3198 6.98612C28.4743 7.22299 28.5836 7.48666 28.6421 7.76371Z" fill="#6C757D"/>
<path d="M42.4535 9.46461C42.1475 9.48362 41.8424 9.41446 41.5741 9.26525C41.3058 9.11603 41.0854 8.89295 40.9388 8.6222C40.784 8.37416 40.713 8.08259 40.7362 7.79075C40.7595 7.49891 40.8757 7.22236 41.0677 7.00221C41.8573 6.12741 42.6791 5.28501 43.5654 4.49121C43.8528 4.25418 44.219 4.13574 44.5899 4.1598C44.9609 4.18386 45.3089 4.34863 45.5636 4.62081C45.8402 4.8726 46.0096 5.22188 46.0366 5.59601C46.0636 5.97013 45.9461 6.34032 45.7086 6.62961C44.919 7.50441 44.0972 8.24961 43.2109 9.14061C42.9795 9.29281 42.7231 9.40251 42.4535 9.46461Z" fill="#6C757D"/>
<path d="M12.367 46.6713C12.1624 46.6673 11.9607 46.6217 11.7741 46.5373C11.5875 46.4528 11.4199 46.3312 11.2814 46.1798C11.1428 46.0284 11.0362 45.8504 10.968 45.6564C10.8998 45.4625 10.8714 45.2566 10.8845 45.0513C10.884 44.8429 10.9262 44.6366 11.0083 44.4452C11.0904 44.2538 11.2107 44.0814 11.3617 43.9386C11.5128 43.7959 11.6914 43.6859 11.8865 43.6153C12.0816 43.5448 12.289 43.5152 12.4959 43.5285C12.7005 43.5324 12.9022 43.578 13.0888 43.6625C13.2754 43.747 13.443 43.8686 13.5815 44.02C13.7201 44.1714 13.8267 44.3495 13.8949 44.5434C13.9631 44.7374 13.9915 44.9432 13.9784 45.1485C13.9788 45.3569 13.9367 45.5632 13.8546 45.7546C13.7725 45.946 13.6522 46.1184 13.5011 46.2611C13.3501 46.4039 13.1715 46.514 12.9764 46.5845C12.7813 46.6551 12.5739 46.6846 12.367 46.6713Z" fill="#6C757D"/>
</svg>
