<svg width="55" height="55" viewBox="0 0 55 55" fill="none" xmlns="http://www.w3.org/2000/svg">
<g clip-path="url(#clip0_299_30118)">
<path d="M37.6705 6.71684V8.33677V8.46637C37.5523 9.37776 37.2391 10.2539 36.7517 11.0366C36.0173 12.2636 35.0864 13.365 33.9952 14.2981C32.1139 15.9612 30.2106 17.5811 28.3074 19.2227C28.1845 19.3756 28.0281 19.4991 27.8501 19.584C27.6721 19.6689 27.4769 19.7131 27.2792 19.7131C27.0814 19.7131 26.8863 19.6689 26.7082 19.584C26.5302 19.4991 26.3739 19.3756 26.251 19.2227L22.9914 16.458C21.3278 15.136 19.81 13.6446 18.4629 12.0086C17.7601 11.182 17.2618 10.2052 17.0074 9.1555C16.753 8.10583 16.7495 7.0121 16.9972 5.96088C17.1948 4.95913 17.663 4.02877 18.3523 3.26831C19.0417 2.50784 19.9265 1.94558 20.9131 1.64108C21.8853 1.30988 22.9338 1.26419 23.9317 1.50955C24.9297 1.75491 25.8341 2.28077 26.5354 3.02342C26.8067 3.28189 27.0624 3.55597 27.301 3.84419L27.7823 3.26101C28.6193 2.30804 29.7622 1.66759 31.02 1.4467C32.3889 1.23157 33.7903 1.51347 34.9648 2.2402C36.1393 2.96693 37.0073 4.08925 37.408 5.39932C37.4517 5.7881 37.5392 6.26326 37.6705 6.71684Z" fill="#6C757D"/>
<g clip-path="url(#clip1_299_30118)">
<path fill-rule="evenodd" clip-rule="evenodd" d="M33.5214 26.3761C36.0901 28.0234 37.9334 30.5888 38.6749 33.5489C39.2345 35.7802 39.197 38.1195 38.5661 40.3317C37.6157 44.0166 35.5838 47.3326 32.7322 49.8526C32.5144 50.0471 32.2927 50.2221 32.0827 50.3815C29.7375 51.9995 28.2362 52.2951 27.1861 52.3884H27.1277H26.5638C25.0132 52.1693 23.5423 51.5649 22.2856 50.6305C21.8267 50.2921 21.4689 50.0121 21.1189 49.6893C17.9793 46.8639 15.8831 43.0632 15.1683 38.9005C14.677 36.3701 15.0096 33.7489 16.1173 31.4214C17.9413 27.6761 20.8816 25.4086 24.8525 24.6852C27.852 24.1241 30.9526 24.7289 33.5214 26.3761ZM25.7358 46.6514H26.992C27.1361 46.6514 27.2801 46.6519 27.424 46.6523C27.7114 46.6532 27.9982 46.654 28.2832 46.6514C28.3744 46.6623 28.4669 46.654 28.5547 46.6271C28.6425 46.6003 28.7238 46.5554 28.7933 46.4954C28.8628 46.4354 28.9191 46.3615 28.9585 46.2786C28.9979 46.1956 29.0196 46.1054 29.0222 46.0136C29.0269 45.9187 29.0108 45.824 28.975 45.736C28.9391 45.648 28.8844 45.569 28.8147 45.5044C28.745 45.4399 28.6619 45.3915 28.5714 45.3625C28.481 45.3336 28.3853 45.3248 28.291 45.3369H25.7124C25.6206 45.3279 25.5279 45.3387 25.4405 45.3686C25.3532 45.3985 25.2733 45.4468 25.2062 45.5102C25.1392 45.5736 25.0864 45.6506 25.0517 45.7361C25.0169 45.8216 25.0008 45.9136 25.0046 46.0058C25.0062 46.0975 25.027 46.1879 25.0654 46.2712C25.1039 46.3545 25.1593 46.4289 25.228 46.4896C25.2968 46.5503 25.3775 46.5961 25.4649 46.6239C25.5523 46.6518 25.6446 46.6612 25.7358 46.6514ZM26.3308 41.0784C26.1098 39.6131 25.322 38.2932 24.1372 37.4031C23.2987 36.6807 22.2372 36.2687 21.1308 36.2363C20.9472 36.2393 20.764 36.2549 20.5825 36.283C20.231 36.3469 19.8963 36.4822 19.5991 36.6804C19.3018 36.8785 19.0483 37.1355 18.8541 37.4353C18.6599 37.7352 18.5291 38.0716 18.4699 38.4239C18.4106 38.7762 18.4241 39.1369 18.5095 39.4838C18.7448 40.6396 19.3212 41.6984 20.1642 42.5234C21.0072 43.3484 22.0782 43.9017 23.2388 44.112C23.6566 44.1897 24.087 44.1654 24.4935 44.0414C24.9 43.9174 25.2706 43.6973 25.574 43.3996C25.8774 43.102 26.1045 42.7356 26.2363 42.3316C26.368 41.9275 26.4004 41.4977 26.3308 41.0784ZM32.2806 36.2832C32.5023 36.2482 32.689 36.2288 32.8912 36.2288C34.6841 36.2482 35.8432 37.6717 35.5203 39.4724C35.284 40.6339 34.7042 41.6976 33.856 42.5256C33.0079 43.3536 31.9306 43.9078 30.7638 44.1162C30.3453 44.1861 29.9161 44.1553 29.5119 44.0261C29.1077 43.897 28.7401 43.6733 28.4397 43.3736C28.1393 43.074 27.9147 42.707 27.7845 42.3031C27.6543 41.8992 27.6224 41.4701 27.6913 41.0514C27.9402 39.0057 29.947 36.6721 32.2806 36.2832Z" fill="#6C757D"/>
<path fill-rule="evenodd" clip-rule="evenodd" d="M4.40197 28.64C2.3632 29.9481 0.900242 31.9846 0.311438 34.3343C-0.132592 36.1082 -0.0990451 37.9681 0.408669 39.7248C1.16402 42.6516 2.77874 45.285 5.04465 47.2855C5.21578 47.4372 5.3908 47.5772 5.55804 47.7017C7.42099 48.9773 8.61499 49.2224 9.44729 49.3002H9.48228H9.92956C11.1666 49.1292 12.34 48.6474 13.3404 47.9C13.6578 47.6671 13.9629 47.4178 14.2544 47.1533C14.5919 46.8065 14.9026 46.4347 15.1839 46.041C14.1838 44.6481 13.6321 42.9688 13.1639 41.2567C13.2164 41.4518 13.2614 41.6172 13.2974 41.7433C13.3078 41.7798 13.318 41.8157 13.3282 41.8513C13.3829 42.0433 13.4349 42.2256 13.4841 42.4356C13.1922 42.5851 12.8785 42.6875 12.5546 42.739C12.2229 42.8001 11.8814 42.7805 11.5588 42.682C11.2362 42.5835 10.942 42.4089 10.7011 42.1729C10.4601 41.9369 10.2794 41.6464 10.1742 41.3259C10.069 41.0055 10.0424 40.6644 10.0966 40.3315C10.2743 39.167 10.9012 38.1184 11.8429 37.4107C11.9869 37.2914 12.1389 37.1823 12.2979 37.084C12.3188 37.3831 12.3513 37.6822 12.3952 37.9813C12.185 36.4146 12.2727 34.8166 12.6598 33.2725C13.0462 31.59 13.7874 30.0095 14.8339 28.6366C13.7617 27.9369 12.55 27.479 11.283 27.2948C8.90172 26.8507 6.44073 27.3318 4.40197 28.64ZM12.7442 39.6792C12.7989 39.8983 12.8545 40.1097 12.9085 40.3082C12.9438 40.438 12.9778 40.5636 13.0101 40.6838C12.9636 40.5077 12.9174 40.3315 12.8713 40.1556C12.8384 40.03 12.8056 39.9045 12.7726 39.7793C12.763 39.7459 12.7536 39.7126 12.7442 39.6792ZM10.5865 44.7423H9.58698C9.41858 44.7423 9.24922 44.7433 9.07937 44.7443H9.07892H9.07847L9.07793 44.7443C8.90698 44.7452 8.73554 44.7462 8.56411 44.7462C8.49152 44.7543 8.41804 44.7473 8.3483 44.7256C8.27856 44.7038 8.21407 44.6679 8.1589 44.6201C8.10373 44.5722 8.05908 44.5134 8.02774 44.4474C7.99641 44.3815 7.97906 44.3097 7.97683 44.2367C7.97276 44.1614 7.98534 44.0861 8.01364 44.0163C8.04195 43.9464 8.0853 43.8836 8.14062 43.8324C8.19594 43.7811 8.26186 43.7427 8.3337 43.7198C8.40555 43.6969 8.48156 43.6902 8.55632 43.7H10.606C10.6787 43.6927 10.7521 43.7011 10.8212 43.7246C10.8904 43.7482 10.9537 43.7863 11.0068 43.8365C11.06 43.8867 11.1017 43.9477 11.1291 44.0154C11.1566 44.0831 11.1692 44.1559 11.166 44.2289C11.1654 44.3019 11.1494 44.374 11.1192 44.4404C11.089 44.5068 11.0451 44.5661 10.9905 44.6145C10.9358 44.6629 10.8717 44.6993 10.8021 44.7213C10.7325 44.7433 10.659 44.7505 10.5865 44.7423ZM9.03487 40.293C8.83652 38.6673 7.24581 36.82 5.39064 36.5088C5.27222 36.4886 5.14951 36.4812 5.02888 36.474L5.02882 36.474C4.98704 36.4715 4.9455 36.469 4.90448 36.466C4.58358 36.4556 4.2646 36.5196 3.97255 36.653C3.68049 36.7864 3.42327 36.9855 3.221 37.2349C3.01873 37.4842 2.87692 37.777 2.80665 38.0903C2.73638 38.4036 2.73957 38.7289 2.81596 39.0407C3.0033 39.963 3.46354 40.8077 4.13696 41.4652C4.81038 42.1227 5.66587 42.5625 6.59241 42.7277C6.925 42.7836 7.26611 42.7592 7.58741 42.6568C7.90872 42.5543 8.20093 42.3766 8.43978 42.1385C8.67863 41.9005 8.85724 41.6088 8.96074 41.2878C9.06423 40.9669 9.08965 40.6258 9.03487 40.293Z" fill="#6C757D"/>
<path fill-rule="evenodd" clip-rule="evenodd" d="M50.0057 28.6446C52.0418 29.9525 53.503 31.9871 54.0918 34.3344C54.5391 36.1072 54.5109 37.9666 54.0101 39.725C53.2526 42.6508 51.6382 45.2836 49.3741 47.2856C49.1991 47.4373 49.0241 47.5773 48.8569 47.7018C46.9939 48.9775 45.7999 49.2225 44.9676 49.3003H44.9326H44.4853C43.2483 49.1293 42.0749 48.6476 41.0745 47.9002C40.7571 47.6672 40.452 47.418 40.1605 47.1534C39.823 46.8066 39.5123 46.4348 39.231 46.0411C40.0028 44.9662 40.5075 43.7207 40.913 42.4212C41.2043 42.5701 41.5174 42.6721 41.8405 42.7235C42.1724 42.7856 42.5143 42.7667 42.8373 42.6685C43.1603 42.5704 43.4549 42.3958 43.6961 42.1595C43.9373 41.9233 44.118 41.6324 44.2228 41.3115C44.3277 40.9906 44.3537 40.6491 44.2985 40.3161C44.1731 39.6561 43.9138 39.0288 43.5365 38.4729C43.1598 37.9177 42.6733 37.4456 42.1072 37.0855C42.1858 35.8094 42.0687 34.5233 41.7551 33.2727C41.3707 31.5895 40.6293 30.0085 39.581 28.6367C40.6535 27.9376 41.8651 27.4798 43.1319 27.2949C45.5114 26.8541 47.9695 27.3368 50.0057 28.6446ZM42.1072 37.0855C42.1065 37.0851 42.1057 37.0846 42.105 37.0841C42.0778 37.473 42.0272 37.862 41.965 38.2509C41.8444 38.9548 41.6616 39.6938 41.4944 40.3083C41.4264 40.5582 41.3635 40.7926 41.3071 41.0029C41.2248 41.3099 41.1562 41.5657 41.1054 41.7434C41.0724 41.8601 41.0403 41.971 41.0082 42.0818C40.9761 42.1927 40.944 42.3035 40.911 42.4202C40.9116 42.4205 40.9123 42.4208 40.913 42.4212C41.1453 41.6765 41.345 40.914 41.5436 40.1557L41.5436 40.1556L41.5437 40.1554C41.5765 40.0299 41.6094 39.9045 41.6423 39.7794C41.8962 38.8974 42.0513 37.994 42.1072 37.0855ZM43.8161 44.7425H44.8156C44.9871 44.7425 45.1585 44.7434 45.3294 44.7444L45.33 44.7444H45.3304H45.3309C45.5007 44.7454 45.6701 44.7463 45.8385 44.7463C45.9111 44.7544 45.9846 44.7474 46.0543 44.7257C46.124 44.704 46.1885 44.6681 46.2437 44.6202C46.2989 44.5723 46.3435 44.5136 46.3749 44.4476C46.4062 44.3816 46.4235 44.3099 46.4258 44.2369C46.4298 44.1616 46.4173 44.0863 46.389 44.0164C46.3606 43.9465 46.3173 43.8837 46.262 43.8325C46.2067 43.7813 46.1407 43.7428 46.0689 43.72C45.997 43.6971 45.921 43.6903 45.8463 43.7001H43.7966C43.7239 43.6928 43.6505 43.7012 43.5813 43.7248C43.5122 43.7483 43.4489 43.7865 43.3958 43.8367C43.3426 43.8868 43.3009 43.9478 43.2735 44.0155C43.246 44.0833 43.2334 44.1561 43.2366 44.2291C43.2372 44.302 43.2532 44.3741 43.2834 44.4405C43.3136 44.507 43.3575 44.5663 43.4121 44.6147C43.4668 44.6631 43.5309 44.6995 43.6005 44.7215C43.6701 44.7435 43.7436 44.7506 43.8161 44.7425ZM45.3681 40.2932C45.5384 39.3743 45.975 38.5258 46.6236 37.853C47.2722 37.1802 48.1042 36.7128 49.0162 36.509C49.1352 36.4886 49.2563 36.4813 49.3764 36.4741H49.3764C49.4173 36.4716 49.458 36.4691 49.4985 36.4662C49.8194 36.4558 50.1383 36.5197 50.4304 36.6531C50.7224 36.7865 50.9797 36.9857 51.1819 37.235C51.3842 37.4844 51.526 37.7771 51.5963 38.0904C51.6666 38.4037 51.6634 38.729 51.587 39.0409C51.3994 39.965 50.9376 40.8111 50.2618 41.4688C49.5861 42.1266 48.7277 42.5653 47.7989 42.7279C47.4671 42.7816 47.1274 42.7557 46.8076 42.6523C46.4879 42.5489 46.1973 42.3709 45.9599 42.1331C45.7225 41.8953 45.545 41.6044 45.4421 41.2845C45.3392 40.9646 45.3138 40.6248 45.3681 40.2932Z" fill="#6C757D"/>
</g>
</g>
<defs>
<clipPath id="clip0_299_30118">
<rect width="54.4068" height="54.4068" fill="white"/>
</clipPath>
<clipPath id="clip1_299_30118">
<rect width="54.4068" height="27.9287" fill="white" transform="translate(0 24.4832)"/>
</clipPath>
</defs>
</svg>
