<svg width="26" height="26" viewBox="0 0 26 26" fill="none" xmlns="http://www.w3.org/2000/svg">
<path d="M24.768 11.8621C24.9959 12.1076 25.0004 12.5272 24.7707 12.7709C24.7341 12.8097 24.699 12.8473 24.6661 12.883C21.6216 16.2887 18.5736 19.6907 15.5219 23.0891C15.338 23.2836 15.0109 23.1535 15.0109 22.8858V17.6893C15.0109 17.2494 14.6606 16.8873 14.2208 16.8952C11.7669 16.939 9.34628 17.5051 7.11672 18.5603C4.77711 19.6675 2.70884 21.2844 1.05809 23.2939C0.968618 23.4028 0.788975 23.3403 0.788975 23.1994C0.788975 21.6547 0.7346 20.0879 0.897695 18.5542C1.1941 15.9832 2.28634 13.5738 4.01735 11.6725C5.74835 9.77123 8.02894 8.47598 10.5312 7.973C11.3767 7.83883 12.2306 7.76508 13.0863 7.75232C13.4645 7.75232 13.8465 7.75232 14.2418 7.75232C14.6906 7.75232 15.0543 7.38855 15.0543 6.93982V3.1113C15.0543 2.36739 15.9711 2.01463 16.4698 2.56666L16.4896 2.5886C19.2731 5.68904 21.9736 8.76168 24.768 11.8621Z" fill="#05E4BC"/>
</svg>
