<svg width="16" height="16" viewBox="0 0 16 16" fill="none" xmlns="http://www.w3.org/2000/svg">
<g clip-path="url(#clip0_231_43563)">
<path d="M14.6782 5.19366C14.2534 3.49789 13.1974 2.02818 11.7258 1.08451C10.2542 0.140844 8.47794 -0.205636 6.75956 0.115807C4.48467 0.530234 2.80022 1.82922 1.75524 3.97488C1.12067 5.30826 0.930136 6.80991 1.21158 8.25952C1.62107 10.6443 2.82198 12.8217 4.62059 14.4403C4.82112 14.6252 5.02611 14.7856 5.28902 14.9795C6.00894 15.5148 6.85161 15.8611 7.73993 15.9866C7.78004 15.9866 8.02289 15.9866 8.063 15.9866H8.09643C8.69801 15.9331 9.55807 15.7638 10.9016 14.8369C11.0219 14.7455 11.1489 14.6453 11.2737 14.5339C12.9074 13.0902 14.0714 11.1905 14.6159 9.07947C14.9773 7.81212 14.9988 6.47196 14.6782 5.19366Z" fill="white"/>
<path d="M7.98555 12.7002C7.74714 12.7002 7.50651 12.7002 7.26587 12.7002C7.21361 12.7058 7.16076 12.7004 7.11068 12.6844C7.0606 12.6685 7.0144 12.6423 6.975 12.6075C6.9356 12.5727 6.90387 12.5301 6.88183 12.4824C6.85979 12.4347 6.84793 12.3829 6.84699 12.3303C6.84483 12.2775 6.85402 12.2248 6.87394 12.1758C6.89387 12.1269 6.92407 12.0827 6.9625 12.0464C7.00093 12.0101 7.0467 11.9824 7.09673 11.9653C7.14675 11.9482 7.19988 11.942 7.25251 11.9471C7.74417 11.9471 8.23658 11.9471 8.72974 11.9471C8.78372 11.9402 8.83855 11.9452 8.89039 11.9618C8.94222 11.9784 8.9898 12.0061 9.02974 12.0431C9.06968 12.0801 9.10102 12.1254 9.12156 12.1757C9.1421 12.2261 9.15133 12.2804 9.14861 12.3348C9.14712 12.3874 9.1347 12.4391 9.11212 12.4866C9.08955 12.5341 9.05731 12.5764 9.01748 12.6108C8.97766 12.6452 8.93111 12.6709 8.8808 12.6863C8.83049 12.7017 8.77752 12.7064 8.72528 12.7002C8.48019 12.7024 8.23287 12.7002 7.98555 12.7002Z" fill="black"/>
<path d="M7.60658 9.50739C7.47998 8.66792 7.02868 7.91176 6.34993 7.40183C5.86953 6.98798 5.26141 6.75197 4.62761 6.7334C4.5224 6.73511 4.41744 6.74404 4.31345 6.76013C4.1121 6.79678 3.92036 6.87425 3.75008 6.98779C3.57979 7.10132 3.43455 7.24851 3.32329 7.4203C3.21204 7.59208 3.13713 7.78484 3.10317 7.98667C3.06922 8.18849 3.07695 8.39513 3.12587 8.59386C3.2607 9.25601 3.59091 9.86255 4.07386 10.3352C4.55681 10.8078 5.17033 11.1248 5.83524 11.2453C6.07461 11.2898 6.32118 11.2759 6.55405 11.2048C6.78693 11.1338 6.99926 11.0077 7.17305 10.8372C7.34684 10.6667 7.47698 10.4568 7.55244 10.2253C7.62791 9.99383 7.64648 9.74757 7.60658 9.50739Z" fill="black"/>
<path d="M11.3655 6.72876C11.2496 6.72876 11.1427 6.7399 11.0157 6.75996C9.67879 6.98277 8.52909 8.31963 8.3865 9.49161C8.34702 9.73148 8.36533 9.9773 8.4399 10.2087C8.51447 10.44 8.64316 10.6503 8.81527 10.822C8.98738 10.9936 9.19794 11.1218 9.4295 11.1958C9.66106 11.2697 9.90694 11.2874 10.1467 11.2474C10.8152 11.128 11.4323 10.8105 11.9182 10.3361C12.4041 9.86178 12.7363 9.2524 12.8717 8.587C13.0566 7.55539 12.3926 6.7399 11.3655 6.72876Z" fill="black"/>
</g>
<defs>
<clipPath id="clip0_231_43563">
<rect width="13.8075" height="16" fill="white" transform="translate(1.09637)"/>
</clipPath>
</defs>
</svg>
