<svg width="25" height="25" viewBox="0 0 25 25" fill="none" xmlns="http://www.w3.org/2000/svg">
<path fill-rule="evenodd" clip-rule="evenodd" d="M19.247 6.89315C18.722 4.82451 17.4163 3.03144 15.5965 1.87987C13.7767 0.728305 11.5799 0.305044 9.45439 0.696468C6.63956 1.20221 4.55532 2.7874 3.26231 5.40584C2.47891 7.03062 2.24319 8.86 2.58962 10.6264C3.09419 13.5362 4.57824 16.1933 6.80222 18.169C7.05034 18.3947 7.30674 18.5905 7.6293 18.827C8.51935 19.4821 9.56227 19.9057 10.6619 20.0587H11.0617H11.0948C11.7122 20.0044 12.5531 19.8521 13.7766 19.15C13.7559 19.0811 13.7369 19.0114 13.7199 18.9413C13.5754 18.345 13.5722 17.7237 13.7106 17.1261C13.8311 16.5296 14.1112 15.9769 14.5206 15.5253C14.9307 15.073 15.4551 14.7389 16.0385 14.5565C16.626 14.3589 17.2583 14.3325 17.8604 14.4806C17.9152 14.494 17.9695 14.5089 18.0234 14.5251C18.5122 13.6126 18.8944 12.6423 19.1588 11.6324C19.6101 10.0878 19.6405 8.4531 19.247 6.89315ZM17.5788 15.2924C17.1546 15.2028 16.7132 15.2291 16.3022 15.3691C15.8597 15.5057 15.4627 15.7579 15.1535 16.0991C14.8442 16.4402 14.6342 16.8576 14.5456 17.3069C14.4396 17.7567 14.4361 18.2239 14.535 18.6747C14.5443 18.6684 14.5537 18.6621 14.563 18.6557C14.7119 18.5442 14.8718 18.4219 15.0234 18.2859C16.0255 17.4127 16.8848 16.4027 17.5788 15.2924Z" fill="#B962FD"/>
<path d="M15.5317 8.7666C16.6713 8.78123 17.4079 9.67598 17.2028 10.7999C17.0525 11.528 16.684 12.1948 16.1449 12.7138C15.6059 13.2329 14.9211 13.5802 14.1795 13.7109C13.9134 13.7553 13.6404 13.7363 13.3832 13.6556C13.126 13.5748 12.8922 13.4346 12.7011 13.2466C12.51 13.0587 12.3673 12.8284 12.2847 12.5749C12.2022 12.3215 12.1823 12.0523 12.2266 11.7897C12.3849 10.5049 13.6604 9.04941 15.1436 8.80073C15.2721 8.77879 15.4031 8.77879 15.5317 8.7666ZM15.4823 9.58821C15.465 9.58821 15.4106 9.58821 15.3562 9.58821C14.3377 9.71742 13.2278 10.7804 13.0721 11.7824C12.9584 12.5016 13.339 12.9624 13.9991 12.9063C15.1288 12.8112 16.298 11.6605 16.3994 10.5463C16.4513 9.96853 16.1003 9.58821 15.4823 9.58821Z" fill="#05E4BC"/>
<path d="M6.61353 8.76953C7.31671 8.78985 7.99139 9.0481 8.52437 9.50093C9.27675 10.0599 9.77794 10.8866 9.92105 11.8048C9.96487 12.0686 9.94349 12.3388 9.85874 12.5927C9.77398 12.8465 9.62835 13.0764 9.43421 13.2628C9.24008 13.4493 9.00317 13.5868 8.74363 13.6636C8.4841 13.7404 8.2096 13.7543 7.94346 13.704C7.20578 13.5722 6.52509 13.2253 5.98928 12.7082C5.45346 12.191 5.08712 11.5273 4.93753 10.8028C4.7546 9.82762 5.29843 8.98651 6.25509 8.79635C6.38364 8.77684 6.50971 8.77928 6.61353 8.76953ZM9.08552 12.0048C9.0608 10.9247 7.82481 9.6594 6.72972 9.5887C6.04003 9.54725 5.62227 9.99097 5.76564 10.6541C5.86431 11.1787 6.11358 11.6643 6.48386 12.0533C6.85414 12.4422 7.32985 12.7182 7.85447 12.8483C8.601 13.0702 9.11024 12.6947 9.09293 12.0048H9.08552Z" fill="#05E4BC"/>
<path d="M10.9674 16.0646C10.6697 16.0646 10.3719 16.0646 10.0742 16.0646C10.0096 16.0714 9.94436 16.0649 9.88254 16.0454C9.82073 16.0259 9.76373 15.9938 9.71519 15.9514C9.66665 15.9089 9.62765 15.8568 9.60069 15.7986C9.57373 15.7404 9.5594 15.6772 9.55861 15.6132C9.55553 15.5489 9.56653 15.4847 9.59086 15.4249C9.6152 15.3651 9.6523 15.3112 9.69964 15.2668C9.74699 15.2224 9.80346 15.1887 9.86524 15.1677C9.92701 15.1468 9.99262 15.1392 10.0576 15.1456C10.666 15.1456 11.2762 15.1456 11.8882 15.1456C11.9549 15.1371 12.0227 15.1432 12.0867 15.1634C12.1507 15.1837 12.2094 15.2176 12.2586 15.2628C12.3078 15.3079 12.3463 15.3632 12.3714 15.4248C12.3965 15.4863 12.4076 15.5525 12.4038 15.6187C12.4016 15.6832 12.3858 15.7466 12.3574 15.8048C12.329 15.863 12.2886 15.9148 12.2388 15.9567C12.189 15.9987 12.1309 16.0299 12.0681 16.0485C12.0054 16.0671 11.9394 16.0726 11.8744 16.0646C11.5767 16.0646 11.2707 16.0646 10.9674 16.0646Z" fill="#05E4BC"/>
<path d="M23.8191 17.6462V18.3729V18.4311C23.766 18.8399 23.6255 19.233 23.4069 19.5841C23.0775 20.1345 22.6599 20.6286 22.1704 21.0472C21.3264 21.7932 20.4726 22.5199 19.6188 23.2563C19.5637 23.3249 19.4935 23.3803 19.4137 23.4184C19.3338 23.4565 19.2463 23.4763 19.1576 23.4763C19.0689 23.4763 18.9813 23.4565 18.9014 23.4184C18.8216 23.3803 18.7514 23.3249 18.6963 23.2563L17.2341 22.0161C16.4878 21.423 15.8069 20.754 15.2026 20.0201C14.8873 19.6493 14.6638 19.2111 14.5497 18.7402C14.4355 18.2693 14.434 17.7787 14.5451 17.3071C14.6337 16.8577 14.8438 16.4404 15.153 16.0992C15.4623 15.7581 15.8592 15.5059 16.3018 15.3693C16.7379 15.2207 17.2083 15.2002 17.6559 15.3103C18.1036 15.4203 18.5093 15.6562 18.8239 15.9894C18.9456 16.1053 19.0603 16.2283 19.1674 16.3576L19.3833 16.096C19.7587 15.6685 20.2715 15.3812 20.8357 15.2821C21.4498 15.1856 22.0785 15.312 22.6053 15.638C23.1322 15.964 23.5216 16.4675 23.7013 17.0552C23.721 17.2296 23.7602 17.4428 23.8191 17.6462Z" fill="#05E4BC"/>
<ellipse cx="7.4224" cy="11.2291" rx="2.39375" ry="1.4592" transform="rotate(37.6925 7.4224 11.2291)" fill="#05E4BC"/>
<ellipse cx="2.39375" cy="1.4592" rx="2.39375" ry="1.4592" transform="matrix(-0.791303 0.611424 0.611424 0.791303 15.9917 8.61084)" fill="#05E4BC"/>
</svg>
