<svg width="303" height="303" viewBox="0 0 303 303" fill="none" xmlns="http://www.w3.org/2000/svg">
<rect width="303" height="303" rx="151.5" fill="#101418"/>
<g filter="url(#filter0_f_496_36628)">
<path d="M232.002 202.633C242.84 193.886 249.309 199.3 251.188 203.101C238.593 229.975 206.636 247.562 192.233 252.995C203.146 247.353 210.224 233.739 212.398 227.637C214.92 214.7 206.909 204.853 201.535 202.997C195.09 200.772 192.628 198.4 190.522 195.26C186.519 186.195 191.072 179.873 196.388 178.685C206.093 176.515 210.13 184 209.221 190.261C208.515 195.119 208.477 198.823 210.527 201.189C217.501 209.24 227.573 205.172 232.002 202.633Z" fill="url(#paint0_linear_496_36628)"/>
</g>
<path d="M146.928 52.1656C137.703 52.1948 136.604 46.7174 137.207 43.9751C154.85 35.3063 178.649 39.4583 188.343 42.6179C180.366 41.0124 171.068 45.1148 167.417 47.3667C160.754 53.0072 160.814 61.4146 162.822 64.5997C165.23 68.4197 165.52 70.6657 165.307 73.1608C163.62 79.5036 158.648 80.8836 155.409 79.2954C149.495 76.3961 150.51 70.8556 153.574 67.997C155.951 65.7791 157.505 63.8806 157.426 61.8086C157.158 54.7588 150.268 52.6883 146.928 52.1656Z" fill="url(#paint1_linear_496_36628)"/>
<g opacity="0.5" filter="url(#filter1_f_496_36628)">
<path d="M78.3589 189.457C56.1963 192.555 46.7697 183.074 44.8267 177.947L39.4152 179.963C43.8084 196.714 76.3403 245.781 122.947 258.763C169.553 271.746 214.771 241.935 226.659 232.724C206.203 244.602 190.855 252.89 179.167 232.724C157.978 196.166 161.709 196.477 147.358 212.603C135.895 225.485 134.899 220.53 130.838 208.237C120.659 177.422 113.564 197.798 95.9846 207.996C81.9208 216.155 81.635 208.274 83.2501 203.313C86.3945 190.753 81.2995 188.842 78.3589 189.457Z" fill="url(#paint2_linear_496_36628)"/>
</g>
<g opacity="0.5" filter="url(#filter2_f_496_36628)">
<path d="M187.217 81.1939C205.389 68.1765 217.672 71.178 221.542 74.3059L225.448 70.1314C214.523 58.9814 165.242 35.698 118.806 47.656C72.3702 59.614 42.8747 112.143 36.3102 125.094C49.2807 105.95 58.7327 83.5801 77.5081 93.9513C111.546 112.753 111.002 115.386 116.815 95.7926C121.458 80.1417 124.423 83.5846 133.175 91.3679C155.115 110.879 152.759 91.3854 163.909 74.9397C172.83 61.7832 176.404 67.8781 177.076 72.5702C179.609 84.0006 184.892 83.082 187.217 81.1939Z" fill="url(#paint3_linear_496_36628)"/>
</g>
<g opacity="0.5" filter="url(#filter3_f_496_36628)">
<path d="M144.344 173.79C166.138 182.991 180.009 172.139 184.22 165.562C191.394 153.453 187.663 142.319 187.13 137.555C185.075 119.175 194.535 125.189 205.66 113.847C214.559 104.774 206.334 95.8939 201.109 92.5882C186.128 86.5434 180.989 101.721 180.293 110.065C180.336 114.558 176.862 120.59 175.119 123.045C166.263 136.611 150.846 133.701 144.244 130.55C136.836 127.23 133.653 115.625 132.17 112.511C128.516 104.84 118.467 108.786 117.084 111.873C112.902 117.764 121.5 124.022 126.186 126.379C132.836 130.13 136.504 141.223 137.507 146.301C139.215 156.374 125.693 163.054 118.718 165.135C102.871 170.376 113.135 179.603 112.93 180.347C117.898 185.556 123.121 182.086 125.112 179.7C133.089 171.653 141.257 172.407 144.344 173.79Z" fill="url(#paint4_linear_496_36628)"/>
</g>
<g filter="url(#filter4_f_496_36628)">
<path d="M192.633 58.3671C213.39 48.4825 218.975 57.6962 224.188 60.6482C201.677 35.8967 165.877 34.5094 149.593 34.8315C106.57 33.1109 71.9205 65.5099 61.0175 80.7789C66.6312 75.4667 75.0975 73.2755 83.4304 76.339C97.465 85.5864 113.517 101.569 109.954 83.7535C106.585 66.9087 107.621 63.1948 113.228 58.9571C118.761 54.776 131.948 67.2229 136.559 67.5054C141.17 67.7878 142.87 66.464 145.263 64.3221C147.655 62.1803 154.01 49.1546 161.681 43.7492C172.152 36.3707 176.813 45.669 177.835 51.2404C179.425 64.07 188.661 60.5291 192.633 58.3671Z" fill="url(#paint5_linear_496_36628)"/>
</g>
<g filter="url(#filter5_f_496_36628)">
<path d="M68.5373 199.523C45.7851 196.224 46.2538 185.46 43.5553 180.111C48.5422 213.195 77.5515 234.22 91.2754 242.99C126.108 268.301 172.913 260.584 190.457 253.934C182.839 255.237 174.58 252.361 169.349 245.187C162.808 229.705 158.326 207.501 151.402 224.298C144.854 240.179 141.931 242.694 134.915 243.106C127.992 243.513 123.932 225.841 120.253 223.046C116.574 220.252 114.425 220.409 111.246 220.863C108.067 221.316 95.5512 228.624 86.1699 228.863C73.3644 229.188 74.6484 218.867 76.891 213.665C82.6898 202.111 73.0416 199.93 68.5373 199.523Z" fill="url(#paint6_linear_496_36628)"/>
</g>
<g filter="url(#filter6_f_496_36628)">
<circle cx="151.5" cy="151.5" r="114.809" stroke="url(#paint7_linear_496_36628)" stroke-width="29.5898"/>
</g>
<g opacity="0.8" filter="url(#filter7_f_496_36628)">
<path d="M61.1579 144.506C51.2474 153.05 42.0189 142.196 38.6434 135.701C31.4534 170.523 44.9539 198.26 52.6029 207.775C42.8374 189.858 50.7606 173.498 55.9429 167.558C69.5404 153.639 81.7215 133.645 73.5386 118.069C65.3558 102.493 53.8479 107.609 62.5371 122.835C69.4885 135.015 64.514 142.357 61.1579 144.506Z" fill="url(#paint8_linear_496_36628)"/>
</g>
<g opacity="0.5" filter="url(#filter8_f_496_36628)">
<path d="M233.224 105.797C245.225 109.606 249.283 96.5119 249.812 89.4888C269.348 117.576 267.897 147.223 264.73 158.535C266.591 138.988 253.392 127.512 246.559 124.218C229.263 117.048 210.922 103.968 212.269 87.0918C213.615 70.2157 225.732 70.388 223.805 87.1455C222.263 100.552 229.442 105.166 233.224 105.797Z" fill="url(#paint9_linear_496_36628)"/>
</g>
<g opacity="0.9" filter="url(#filter9_f_496_36628)">
<circle cx="151.501" cy="151.5" r="113.921" stroke="white" stroke-width="5.91797"/>
</g>
<g opacity="0.8" filter="url(#filter10_f_496_36628)">
<path d="M150.304 177.705C168.178 185.251 179.553 176.351 183.007 170.957C188.89 161.027 185.83 151.896 185.393 147.989C183.708 132.916 191.465 137.848 200.589 128.546C207.887 121.105 201.142 113.823 196.857 111.112C184.571 106.155 180.357 118.601 179.786 125.444C179.821 129.129 176.972 134.076 175.543 136.089C168.28 147.215 155.636 144.828 150.223 142.244C144.147 139.521 141.537 130.005 140.32 127.451C137.324 121.16 129.084 124.396 127.949 126.927C124.519 131.758 131.571 136.89 135.414 138.823C140.867 141.9 143.875 150.997 144.698 155.161C146.099 163.422 135.009 168.9 129.289 170.607C116.293 174.904 124.71 182.472 124.542 183.082C128.616 187.354 132.9 184.508 134.532 182.551C141.074 175.952 147.773 176.571 150.304 177.705Z" fill="url(#paint10_linear_496_36628)"/>
</g>
<g opacity="0.8" filter="url(#filter11_f_496_36628)">
<path d="M84.6263 164.366C76.1942 166.224 74.3529 172.383 74.4863 175.23C74.9047 180.35 78.3651 182.879 79.5289 184.185C84.0188 189.226 79.9328 189.43 79.0126 195.155C78.2765 199.735 82.5996 200.644 84.8532 200.527C90.5902 199.166 88.9184 193.562 87.3653 190.93C86.4044 189.601 86.1664 187.071 86.1676 185.972C85.9427 180.063 91.1483 177.677 93.7792 177.223C96.686 176.649 100.082 179.433 101.181 180.048C103.888 181.562 106.048 178.266 105.808 177.055C105.811 174.418 101.93 174.369 100.037 174.655C97.2652 174.941 93.8323 172.411 92.4623 171.111C89.8282 168.471 92.446 163.629 94.0842 161.537C97.6981 156.633 92.6945 156.05 92.5985 155.786C90.02 155.283 89.1966 157.418 89.1072 158.549C88.4293 162.628 85.8374 164.127 84.6263 164.366Z" fill="url(#paint11_linear_496_36628)"/>
</g>
<path opacity="0.8" d="M212.87 154.896C218.888 157.65 222.857 154.731 224.089 152.927C226.196 149.6 225.245 146.456 225.136 145.119C224.714 139.963 227.309 141.723 230.514 138.644C233.078 136.181 230.852 133.629 229.418 132.661C225.279 130.846 223.716 135.048 223.452 137.375C223.427 138.632 222.405 140.29 221.897 140.962C219.308 144.682 215.021 143.74 213.201 142.804C211.157 141.814 210.364 138.542 209.975 137.659C209.017 135.484 206.174 136.504 205.762 137.355C204.543 138.968 206.896 140.789 208.187 141.487C210.015 142.592 210.948 145.724 211.187 147.152C211.581 149.983 207.744 151.739 205.776 152.263C201.301 153.596 204.094 156.262 204.031 156.468C205.377 157.966 206.866 157.039 207.443 156.389C209.74 154.205 212.018 154.484 212.87 154.896Z" fill="url(#paint12_linear_496_36628)"/>
<defs>
<filter id="filter0_f_496_36628" x="187.812" y="177.118" width="64.5586" height="77.0609" filterUnits="userSpaceOnUse" color-interpolation-filters="sRGB">
<feFlood flood-opacity="0" result="BackgroundImageFix"/>
<feBlend mode="normal" in="SourceGraphic" in2="BackgroundImageFix" result="shape"/>
<feGaussianBlur stdDeviation="0.591797" result="effect1_foregroundBlur_496_36628"/>
</filter>
<filter id="filter1_f_496_36628" x="33.498" y="172.029" width="199.078" height="95.8766" filterUnits="userSpaceOnUse" color-interpolation-filters="sRGB">
<feFlood flood-opacity="0" result="BackgroundImageFix"/>
<feBlend mode="normal" in="SourceGraphic" in2="BackgroundImageFix" result="shape"/>
<feGaussianBlur stdDeviation="2.95898" result="effect1_foregroundBlur_496_36628"/>
</filter>
<filter id="filter2_f_496_36628" x="30.3926" y="38.4115" width="200.973" height="92.6007" filterUnits="userSpaceOnUse" color-interpolation-filters="sRGB">
<feFlood flood-opacity="0" result="BackgroundImageFix"/>
<feBlend mode="normal" in="SourceGraphic" in2="BackgroundImageFix" result="shape"/>
<feGaussianBlur stdDeviation="2.95898" result="effect1_foregroundBlur_496_36628"/>
</filter>
<filter id="filter3_f_496_36628" x="100.973" y="82.3246" width="117.506" height="109.614" filterUnits="userSpaceOnUse" color-interpolation-filters="sRGB">
<feFlood flood-opacity="0" result="BackgroundImageFix"/>
<feBlend mode="normal" in="SourceGraphic" in2="BackgroundImageFix" result="shape"/>
<feGaussianBlur stdDeviation="4.43848" result="effect1_foregroundBlur_496_36628"/>
</filter>
<filter id="filter4_f_496_36628" x="58.0586" y="31.8066" width="169.088" height="62.9581" filterUnits="userSpaceOnUse" color-interpolation-filters="sRGB">
<feFlood flood-opacity="0" result="BackgroundImageFix"/>
<feBlend mode="normal" in="SourceGraphic" in2="BackgroundImageFix" result="shape"/>
<feGaussianBlur stdDeviation="1.47949" result="effect1_foregroundBlur_496_36628"/>
</filter>
<filter id="filter5_f_496_36628" x="40.5957" y="177.152" width="152.82" height="86.2856" filterUnits="userSpaceOnUse" color-interpolation-filters="sRGB">
<feFlood flood-opacity="0" result="BackgroundImageFix"/>
<feBlend mode="normal" in="SourceGraphic" in2="BackgroundImageFix" result="shape"/>
<feGaussianBlur stdDeviation="1.47949" result="effect1_foregroundBlur_496_36628"/>
</filter>
<filter id="filter6_f_496_36628" x="7.10156" y="7.10156" width="288.797" height="288.797" filterUnits="userSpaceOnUse" color-interpolation-filters="sRGB">
<feFlood flood-opacity="0" result="BackgroundImageFix"/>
<feBlend mode="normal" in="SourceGraphic" in2="BackgroundImageFix" result="shape"/>
<feGaussianBlur stdDeviation="7.39746" result="effect1_foregroundBlur_496_36628"/>
</filter>
<filter id="filter7_f_496_36628" x="35.416" y="107.426" width="41.9531" height="101.533" filterUnits="userSpaceOnUse" color-interpolation-filters="sRGB">
<feFlood flood-opacity="0" result="BackgroundImageFix"/>
<feBlend mode="normal" in="SourceGraphic" in2="BackgroundImageFix" result="shape"/>
<feGaussianBlur stdDeviation="0.591797" result="effect1_foregroundBlur_496_36628"/>
</filter>
<filter id="filter8_f_496_36628" x="209.24" y="71.5469" width="60.332" height="89.9473" filterUnits="userSpaceOnUse" color-interpolation-filters="sRGB">
<feFlood flood-opacity="0" result="BackgroundImageFix"/>
<feBlend mode="normal" in="SourceGraphic" in2="BackgroundImageFix" result="shape"/>
<feGaussianBlur stdDeviation="1.47949" result="effect1_foregroundBlur_496_36628"/>
</filter>
<filter id="filter9_f_496_36628" x="31.6621" y="31.6611" width="239.678" height="239.678" filterUnits="userSpaceOnUse" color-interpolation-filters="sRGB">
<feFlood flood-opacity="0" result="BackgroundImageFix"/>
<feBlend mode="normal" in="SourceGraphic" in2="BackgroundImageFix" result="shape"/>
<feGaussianBlur stdDeviation="1.47949" result="effect1_foregroundBlur_496_36628"/>
</filter>
<filter id="filter10_f_496_36628" x="120.832" y="108.792" width="84.1738" height="77.7" filterUnits="userSpaceOnUse" color-interpolation-filters="sRGB">
<feFlood flood-opacity="0" result="BackgroundImageFix"/>
<feBlend mode="normal" in="SourceGraphic" in2="BackgroundImageFix" result="shape"/>
<feGaussianBlur stdDeviation="0.591797" result="effect1_foregroundBlur_496_36628"/>
</filter>
<filter id="filter11_f_496_36628" x="68.5625" y="149.792" width="43.1816" height="56.662" filterUnits="userSpaceOnUse" color-interpolation-filters="sRGB">
<feFlood flood-opacity="0" result="BackgroundImageFix"/>
<feBlend mode="normal" in="SourceGraphic" in2="BackgroundImageFix" result="shape"/>
<feGaussianBlur stdDeviation="2.95898" result="effect1_foregroundBlur_496_36628"/>
</filter>
<linearGradient id="paint0_linear_496_36628" x1="188.077" y1="183.328" x2="220.954" y2="235.639" gradientUnits="userSpaceOnUse">
<stop stop-color="#FF8A00"/>
<stop offset="1" stop-color="#00FF85"/>
</linearGradient>
<linearGradient id="paint1_linear_496_36628" x1="161.627" y1="80.3394" x2="166.311" y2="39.6872" gradientUnits="userSpaceOnUse">
<stop stop-color="#FF8A00"/>
<stop offset="1" stop-color="#00FF85"/>
</linearGradient>
<linearGradient id="paint2_linear_496_36628" x1="158.455" y1="187.257" x2="162.774" y2="255.839" gradientUnits="userSpaceOnUse">
<stop stop-color="#8F00FF"/>
<stop offset="1" stop-color="#0AFFD3"/>
</linearGradient>
<linearGradient id="paint3_linear_496_36628" x1="114.614" y1="123.025" x2="82.4932" y2="70.9221" gradientUnits="userSpaceOnUse">
<stop stop-color="#8F00FF"/>
<stop offset="1" stop-color="#0AFFD3"/>
</linearGradient>
<linearGradient id="paint4_linear_496_36628" x1="199.845" y1="142.147" x2="116.905" y2="119.061" gradientUnits="userSpaceOnUse">
<stop stop-color="#B962FD"/>
<stop offset="1" stop-color="#00FFD1"/>
</linearGradient>
<linearGradient id="paint5_linear_496_36628" x1="223.808" y1="54.23" x2="63.8768" y2="62.0115" gradientUnits="userSpaceOnUse">
<stop stop-color="#B962FD"/>
<stop offset="1" stop-color="#00FFD1"/>
</linearGradient>
<linearGradient id="paint6_linear_496_36628" x1="40.309" y1="185.661" x2="177.662" y2="267.958" gradientUnits="userSpaceOnUse">
<stop stop-color="#B962FD"/>
<stop offset="1" stop-color="#00FFD1"/>
</linearGradient>
<linearGradient id="paint7_linear_496_36628" x1="21.8965" y1="166.877" x2="274.866" y2="167.767" gradientUnits="userSpaceOnUse">
<stop stop-color="#B962FD"/>
<stop offset="1" stop-color="#00FFD1"/>
</linearGradient>
<linearGradient id="paint8_linear_496_36628" x1="37.2354" y1="166.893" x2="79.8782" y2="160.924" gradientUnits="userSpaceOnUse">
<stop stop-color="#FF8A00"/>
<stop offset="1" stop-color="#FF2B5E"/>
</linearGradient>
<linearGradient id="paint9_linear_496_36628" x1="262.859" y1="116.552" x2="222.874" y2="127.405" gradientUnits="userSpaceOnUse">
<stop stop-color="#FF8A00"/>
<stop offset="1" stop-color="#FF2B5E"/>
</linearGradient>
<linearGradient id="paint10_linear_496_36628" x1="195.821" y1="151.755" x2="127.802" y2="132.822" gradientUnits="userSpaceOnUse">
<stop stop-color="#FF8A00"/>
<stop offset="1" stop-color="#FFE600"/>
</linearGradient>
<linearGradient id="paint11_linear_496_36628" x1="74.7732" y1="185.5" x2="104.345" y2="174.877" gradientUnits="userSpaceOnUse">
<stop stop-color="#FF8A00"/>
<stop offset="1" stop-color="#FF2B5E"/>
</linearGradient>
<linearGradient id="paint12_linear_496_36628" x1="228.653" y1="146.509" x2="205.652" y2="139.364" gradientUnits="userSpaceOnUse">
<stop stop-color="#FF8A00"/>
<stop offset="1" stop-color="#FF2B5E"/>
</linearGradient>
</defs>
</svg>
