<svg width="99" height="33" viewBox="0 0 99 33" fill="none" xmlns="http://www.w3.org/2000/svg">
<g clip-path="url(#clip0_242_59580)">
<path d="M7.92901 2.64548C8.12857 2.50943 8.36465 2.43665 8.60635 2.43665C8.84805 2.43665 9.08412 2.50943 9.28368 2.64548C9.36571 2.69377 9.42904 2.76824 9.46345 2.85686C9.46043 3.0015 9.42534 3.14369 9.36072 3.27321C9.23232 3.56146 9.23874 3.76643 9.36072 3.91375C9.59551 4.07555 9.86683 4.17678 10.1504 4.2084C10.4096 4.24375 10.6653 4.30162 10.9144 4.38135C12.8854 4.74646 14.0218 5.23327 14.3364 5.83539C14.4305 5.94399 14.4905 6.07787 14.5087 6.22028C14.527 6.36269 14.5028 6.50731 14.4391 6.63607C14.3171 6.98837 14.1566 7.1549 13.9448 7.12928C13.7072 7.23177 13.3541 7.12928 12.8854 6.7962C12.5979 6.54302 12.2393 6.38424 11.8582 6.34142C11.7555 6.34142 11.2162 6.23252 10.266 6.00833C9.73354 5.85638 9.18727 5.75768 8.63524 5.71368C8.19224 6.05317 7.69146 7.08444 7.13932 8.7947C6.85902 9.77771 6.5181 10.7425 6.11851 11.6836L5.96442 12.1511C5.88096 12.3113 5.72687 12.6123 5.48932 13.0543C5.07877 13.7577 4.72456 14.4923 4.42999 15.2514C4.2732 15.6957 4.07546 16.1246 3.83932 16.5325C3.49905 17.173 3.10742 17.852 2.67726 18.6142L1.82979 20.1003C1.67313 20.4629 1.45605 20.7964 1.18776 21.0867C1.0203 21.2193 0.810706 21.2875 0.597104 21.2789C0.477724 21.2584 0.364677 21.2107 0.266708 21.1396C0.168738 21.0686 0.0884694 20.9759 0.0321208 20.869C-0.0182512 20.7583 -0.0443115 20.6382 -0.0443115 20.5167C-0.0443115 20.3951 -0.0182512 20.275 0.0321208 20.1644C0.129058 19.8991 0.247142 19.6421 0.385236 19.3957C0.51364 19.1587 0.680573 18.8961 0.87318 18.595C1.01468 18.3908 1.14127 18.1768 1.25197 17.9545C3.46502 14.0702 5.23109 9.94881 6.51656 5.66884C6.61037 5.37668 6.73071 5.09366 6.87609 4.82333C7.01167 4.56948 7.11724 4.30079 7.19069 4.02265C7.20701 3.75357 7.28144 3.4912 7.40887 3.2535C7.53631 3.0158 7.71374 2.80838 7.92901 2.64548ZM8.9691 21.9707C8.91035 22.1637 8.86529 22.3606 8.83427 22.56C8.8112 22.7365 8.76366 22.909 8.69302 23.0724C8.51325 23.4119 8.26286 23.9628 7.94827 24.7186C7.63368 25.4745 7.30625 26.1534 7.04302 26.7427C6.80279 27.255 6.49863 27.735 6.13777 28.1712C5.7975 28.6452 5.43154 28.7476 5.03991 28.485C4.64827 28.2224 4.53913 27.6779 4.8794 27.0758C4.93076 26.999 4.98212 26.9157 5.03991 26.8388C5.19078 26.6343 5.29786 26.401 5.3545 26.1534C5.42227 25.8654 5.58786 25.6097 5.82317 25.4296C6.26056 24.764 6.61013 24.045 6.86325 23.2902C7.21334 22.4549 7.44666 21.5755 7.55664 20.6768C7.55664 20.5487 7.58874 20.1644 7.65295 19.5238C7.71715 18.8833 7.71073 18.5502 7.65295 18.5182C7.58664 18.4259 7.54785 18.3168 7.54103 18.2034C7.53421 18.0901 7.55966 17.9771 7.61443 17.8776C7.71698 17.6027 7.86213 17.3454 8.04458 17.1154C8.21919 16.9011 8.33431 16.6449 8.37842 16.3723C8.41695 16.1097 8.28212 15.924 7.96753 15.8215C7.83469 15.7808 7.71438 15.7071 7.61781 15.6074C7.52125 15.5077 7.45161 15.3852 7.41539 15.2514C7.35117 15.1265 7.31768 14.9882 7.31768 14.8478C7.31768 14.7075 7.35117 14.5692 7.41539 14.4443C7.78134 14.1881 8.19866 13.9062 8.6545 13.6052C9.23037 13.241 9.83602 12.9261 10.465 12.6636C11.033 12.377 11.6584 12.2216 12.2948 12.2088C12.4674 12.1915 12.6417 12.2092 12.8072 12.261C12.9727 12.3127 13.126 12.3974 13.2578 12.5099C13.4897 12.8367 13.6071 13.2307 13.5917 13.6308C13.7457 13.919 13.6302 14.5852 13.2385 15.6293C12.8469 16.6734 12.635 17.2371 12.5965 17.3203C12.4132 17.8443 12.1322 18.329 11.7683 18.7488C11.2162 19.5238 10.664 20.2348 10.0991 20.8882C9.53407 21.5415 9.23874 21.8041 9.21306 21.676C9.14908 21.6979 9.09241 21.737 9.04935 21.789C9.00628 21.841 8.97851 21.9039 8.9691 21.9707ZM12.4296 9.53773C12.2206 9.73002 11.9822 9.88786 11.7234 10.0053C11.4654 10.1308 11.2165 10.2743 10.9786 10.4345C9.58757 11.2886 8.57745 11.9184 7.94827 12.3241C7.42181 12.6892 7.01734 12.7404 6.72843 12.4778C6.65139 12.4266 6.60644 12.2408 6.5936 11.927C6.56807 11.7087 6.60132 11.4876 6.68991 11.2864C7.44965 10.686 8.27445 10.1725 9.14886 9.75551C10.5485 8.99967 11.3703 8.52567 11.6078 8.34632C11.7295 8.3056 11.8581 8.28971 11.9861 8.29962C12.114 8.30952 12.2386 8.34501 12.3526 8.40396C12.46 8.43525 12.5552 8.49874 12.6252 8.58582C12.6953 8.6729 12.7368 8.77936 12.7442 8.89078C12.7066 9.133 12.5971 9.35839 12.4296 9.53773ZM10.465 18.0506C10.7539 17.7367 10.831 17.5637 10.7026 17.5381C10.4757 17.5966 10.2591 17.6895 10.0605 17.8136C9.88417 17.9632 9.73627 18.1433 9.62395 18.3452C9.57782 18.4092 9.5469 18.4828 9.53355 18.5605C9.5202 18.6382 9.52477 18.7179 9.54691 18.7936C9.66248 18.8769 9.96422 18.627 10.465 18.0506ZM11.8775 13.8934L11.3125 14.0472C11.0107 14.124 10.7539 14.2009 10.5421 14.2649C10.3219 14.3351 10.129 14.4716 9.98991 14.6557C9.91504 14.7424 9.86483 14.8476 9.84451 14.9602C9.82419 15.0729 9.83448 15.1889 9.87434 15.2962C9.87434 16.0585 10.2917 16.0713 11.1584 15.3347C11.3479 15.1371 11.564 14.9668 11.8004 14.8286C12.1685 14.3333 12.1942 14.0215 11.8775 13.8934ZM10.1504 29.2665C10.0219 28.8672 9.99545 28.4423 10.0734 28.0302C10.1675 27.0975 10.3568 26.1767 10.6383 25.2823C10.9756 24.2171 11.1042 23.0972 11.0171 21.9835C10.9594 21.5159 11.0492 21.2341 11.2675 21.1444C11.394 21.1022 11.5291 21.0925 11.6603 21.116C11.7916 21.1395 11.9148 21.1955 12.0187 21.2789C12.2546 21.4258 12.4508 21.6281 12.5901 21.8682C12.5912 21.9403 12.6114 22.0109 12.6486 22.0727C12.6858 22.1346 12.7387 22.1856 12.802 22.2205C12.9488 22.2761 13.111 22.2761 13.2578 22.2205C13.442 22.1679 13.6206 22.0971 13.7907 22.0091C13.9587 21.9145 14.1349 21.8352 14.3171 21.7721C14.4414 21.7148 14.5797 21.6948 14.7152 21.7145C14.8824 21.7132 15.0475 21.7514 15.197 21.826C15.3465 21.9006 15.4762 22.0094 15.5755 22.1436C15.6901 22.2779 15.7598 22.4446 15.7748 22.6203C15.7897 22.796 15.7493 22.972 15.659 23.1237C15.5498 23.4375 15.5241 23.6105 15.5755 23.6361C15.6655 23.6142 15.752 23.5797 15.8323 23.5336L16.2432 23.3607C16.37 23.3106 16.505 23.2845 16.6413 23.2838C16.6932 23.2792 16.7455 23.2873 16.7936 23.3074C16.8417 23.3275 16.8842 23.359 16.9173 23.3991C17.021 23.5452 17.0766 23.7197 17.0766 23.8987C17.0766 24.0777 17.021 24.2523 16.9173 24.3983C16.6386 24.7505 16.3048 25.0555 15.9286 25.3015C15.614 25.5001 15.3306 25.744 15.0876 26.0253C14.8778 26.2602 13.9726 27.0459 12.3718 28.3825C12.2948 28.3825 12.1599 28.5555 11.9802 28.895C11.8854 29.1342 11.7435 29.352 11.5629 29.5355C11.3936 29.6389 11.1957 29.686 10.9979 29.67C10.6737 29.6401 10.3719 29.4918 10.1504 29.2537V29.2665ZM13.5917 24.7827C13.6525 24.6637 13.6843 24.532 13.6843 24.3983C13.6843 24.2647 13.6525 24.133 13.5917 24.014C13.4062 23.9943 13.2193 24.0347 13.0588 24.1293C12.952 24.25 12.8907 24.404 12.8854 24.5649C12.8679 24.7259 12.8268 24.8834 12.7634 25.0325C12.6864 25.2695 12.68 25.4232 12.7634 25.4873C12.8469 25.5513 12.9561 25.5321 13.1358 25.4296C13.3523 25.2673 13.5119 25.0409 13.5917 24.7827ZM21.007 14.1625C20.9293 14.1163 20.8616 14.0553 20.8075 13.983C20.7535 13.9106 20.7144 13.8283 20.6923 13.7409C20.6702 13.6534 20.6657 13.5624 20.6789 13.4732C20.6922 13.384 20.7229 13.2982 20.7695 13.2209C20.8441 13.0461 20.9583 12.8909 21.1031 12.7676C21.2479 12.6442 21.4194 12.556 21.6041 12.5099C21.7635 12.4586 21.9338 12.4518 22.0968 12.4902C22.2598 12.5286 22.4091 12.6107 22.5286 12.7276C22.7459 13.0415 22.8705 13.4099 22.8882 13.7909C22.9395 14.2906 22.9652 15.2578 22.9652 16.6926C22.9652 17.8456 22.9652 18.5566 22.9652 18.8128C22.9677 19.023 22.9049 19.2289 22.7854 19.4021C22.7076 19.5078 22.6029 19.5908 22.4821 19.6426C22.3613 19.6944 22.2289 19.7131 22.0985 19.6968C21.8372 19.6555 21.5889 19.5547 21.373 19.4021L21.4115 18.7616C21.4658 17.9383 21.4658 17.1123 21.4115 16.2891L21.373 14.4827L21.007 14.1625ZM24.6409 23.6617C24.6807 23.6084 24.7307 23.5633 24.788 23.5293C24.8453 23.4952 24.9087 23.4727 24.9747 23.4632C25.1352 23.5464 25.4306 23.6745 25.8607 23.8603C26.2909 24.046 26.644 24.1934 26.9072 24.3087C27.1705 24.424 27.4594 24.5521 27.7868 24.6802C28.0572 24.7935 28.3337 24.8919 28.615 24.9748C28.7598 25.0315 28.9165 25.0513 29.0708 25.0325C29.1306 25.0339 29.1892 25.0159 29.2378 24.9813C29.2864 24.9466 29.3224 24.8972 29.3405 24.8403C29.3961 23.6873 29.4625 22.2077 29.5395 20.4014C29.6166 18.6014 29.6487 16.5581 29.6358 14.2073C29.6698 12.6318 29.5861 11.056 29.3854 9.49289C29.302 9.05092 29.2313 8.45521 29.1671 7.71218C29.1228 7.1113 29.037 6.51417 28.9103 5.92506C28.839 5.75047 28.8061 5.56259 28.814 5.37419C28.817 5.26723 28.8365 5.16135 28.8718 5.06033C28.9482 4.95959 29.0417 4.87289 29.1479 4.80411L29.424 4.59273C29.6707 4.48106 29.9507 4.46732 30.2072 4.5543C30.3131 4.59373 30.409 4.65613 30.4878 4.73699C30.5666 4.81785 30.6265 4.91516 30.6631 5.02189C30.7848 5.43893 30.8559 5.86904 30.8749 6.30298C31.0101 7.07664 31.1022 7.85716 31.151 8.64097C31.228 9.64662 31.2794 10.5626 31.2922 11.2864C31.3051 12.0102 31.2922 13.1184 31.35 14.4891C31.4078 15.8599 31.3885 16.7631 31.3885 17.1538C31.4929 17.5764 31.4796 18.0193 31.35 18.4349C31.2158 18.8485 31.1893 19.2893 31.273 19.716C31.273 20.19 31.273 20.9266 31.273 21.9323C31.273 22.9379 31.2216 23.7386 31.2088 24.3279C31.1874 24.7794 31.2089 25.2319 31.273 25.6794C31.3374 25.9103 31.3477 26.1528 31.3032 26.3883C31.2587 26.6237 31.1605 26.8458 31.0162 27.0374C30.917 27.216 30.779 27.3702 30.6124 27.4888C30.4458 27.6074 30.2547 27.6873 30.0531 27.7228C29.8156 27.7228 29.4111 27.5434 28.8911 27.1143C28.5435 26.8044 28.1519 26.5475 27.729 26.352C26.9882 25.9921 26.2831 25.5632 25.6232 25.0709C24.8527 24.5072 24.4675 24.1485 24.4675 23.9884C24.4869 23.8632 24.5479 23.7481 24.6409 23.6617Z" fill="#00FFD1"/>
<path d="M40.0892 29.5293C40.9569 29.238 41.8516 29.0341 42.76 28.9208C43.042 28.9519 43.3273 28.91 43.5883 28.7991C43.691 28.7222 43.7552 28.5044 43.7809 28.1585C43.7783 27.8887 43.8541 27.624 43.9991 27.3963C44.1169 27.2364 44.204 27.0561 44.256 26.8646C44.2762 26.5581 44.3322 26.255 44.4229 25.9614C44.6326 25.2056 44.6326 24.8277 44.4229 24.8277C43.986 25.0963 43.5903 25.4264 43.248 25.8077C43.1243 25.9232 42.9911 26.0282 42.8499 26.1216C42.7659 26.1471 42.6776 26.1551 42.5903 26.1452C42.5031 26.1353 42.4188 26.1076 42.3427 26.0639C42.2608 26.0289 42.1871 25.9771 42.1263 25.9121C42.0655 25.847 42.0189 25.77 41.9896 25.686C41.9062 25.4554 42.0602 25.0455 42.439 24.5523C42.6736 24.161 43.0053 23.8367 43.4021 23.6107C43.9821 23.2979 44.5123 22.9007 44.975 22.4321C45.1352 22.1067 45.2352 21.7551 45.2704 21.3944C45.3545 20.9265 45.4081 20.4536 45.4309 19.9788C45.4309 19.5752 45.4309 19.3382 45.3281 19.255C44.9165 19.3788 44.5403 19.5983 44.2303 19.8955C43.6925 20.3289 43.1332 20.7351 42.5546 21.1125C42.1758 21.3495 41.4375 21.7531 40.3332 22.2911C40.0373 22.478 39.7 22.5897 39.3508 22.6165C39.0016 22.6433 38.6512 22.5844 38.3301 22.4449C38.2125 22.4025 38.1098 22.3268 38.0348 22.2271C37.9862 22.1096 37.9664 21.9822 37.977 21.8556C37.9912 21.4017 38.1717 20.9687 38.4842 20.6385C38.8303 20.2232 39.092 19.7445 39.2546 19.2293C39.4561 18.7104 39.6921 18.2054 39.9608 17.7176C40.1792 17.3417 40.3639 16.9473 40.513 16.539C40.6643 16.1223 40.8556 15.7212 41.0844 15.3412C41.2555 15.1082 41.3757 14.842 41.4375 14.5598C41.4537 14.4155 41.5106 14.2788 41.6015 14.1654C41.6924 14.0521 41.8136 13.9667 41.9511 13.9192C42.0891 13.8679 42.24 13.8627 42.3812 13.9043C42.5225 13.9459 42.6464 14.032 42.7344 14.1498C42.9206 14.3868 42.8884 14.7904 42.6381 15.2708C42.4653 15.5701 42.3397 15.8942 42.2657 16.2316C42.1898 16.5048 42.0843 16.769 41.9511 17.0194C41.8134 17.2477 41.7197 17.4998 41.675 17.7625C41.644 17.9488 41.5458 18.1173 41.399 18.2365C41.1897 18.4404 41.0275 18.6874 40.9239 18.9603C40.7884 19.248 40.6891 19.5514 40.6285 19.8635C40.59 20.1133 40.6285 20.2606 40.7312 20.3118C41.5885 19.962 42.3993 19.508 43.1453 18.9603C44.211 18.2429 44.8723 17.8137 45.1355 17.6792C45.2714 17.624 45.4024 17.5576 45.5272 17.4806C45.6066 17.4265 45.6689 17.351 45.7069 17.2629C45.7429 17.1843 45.7625 17.0994 45.7647 17.013C45.7647 16.9298 45.7647 16.7889 45.7647 16.5775C45.7647 16.3661 45.7968 16.1611 45.8225 15.9369C45.8792 15.2895 45.9844 14.6471 46.1371 14.0153C46.2099 13.6056 46.3419 13.2087 46.5287 12.8367C46.687 12.7167 46.8822 12.6555 47.0809 12.6638C47.2875 12.6374 47.4968 12.6851 47.6715 12.7983C47.7999 12.9072 47.8256 13.1506 47.7486 13.5477C47.7209 13.6895 47.7016 13.8328 47.6908 13.9769C47.6816 14.1084 47.6623 14.239 47.633 14.3676C47.633 14.4765 47.5816 14.6046 47.556 14.7583C47.486 15.0489 47.4388 15.3444 47.4147 15.6423C47.4147 15.8665 47.4853 15.9754 47.6715 15.9754C48.0044 15.9098 48.3156 15.7623 48.5768 15.5462C48.8143 15.3604 49.1097 15.1619 49.4628 14.9057C49.8159 14.6494 50.1048 14.4701 50.4258 14.2651C50.7253 14.0078 51.0934 13.8431 51.4851 13.7911C51.6444 13.7311 51.8202 13.7311 51.9795 13.7911C52.0836 13.8477 52.1651 13.9381 52.2106 14.0473C52.2556 14.1562 52.3005 14.2843 52.3519 14.4445C52.4032 14.6046 52.2684 14.6815 52.0951 14.8544C51.9217 15.0274 51.7869 15.1106 51.6842 15.1106C51.3696 15.2136 51.0761 15.372 50.8174 15.5782C50.3488 15.8921 49.8351 16.2188 49.283 16.6223C48.7309 17.0259 48.3649 17.2629 48.1851 17.3461C47.8929 17.4654 47.6442 17.6711 47.4725 17.9354C47.2381 18.4699 47.0928 19.0389 47.0423 19.6201C46.9396 20.4079 46.9525 20.8371 47.0809 20.9012C47.5206 20.8313 47.9512 20.7131 48.3649 20.5489C48.7809 20.382 49.2105 20.2512 49.649 20.1581C49.8693 20.1408 50.0905 20.1805 50.291 20.2734C50.4377 20.3372 50.5552 20.4534 50.6205 20.5991C50.6858 20.7449 50.6942 20.9097 50.6441 21.0613C50.5737 21.4552 50.3724 21.8139 50.0727 22.0798C50.0231 22.1248 49.9638 22.158 49.8995 22.1768C49.8351 22.1957 49.7673 22.1997 49.7011 22.1886C49.635 22.1775 49.5722 22.1516 49.5176 22.1127C49.4629 22.0739 49.4179 22.0232 49.3857 21.9644C49.3376 21.8824 49.2679 21.8152 49.1841 21.77C49.1003 21.7248 49.0057 21.7034 48.9106 21.7082C48.6075 21.7585 48.3147 21.8581 48.0439 22.0029C47.6758 22.1771 47.3378 22.4084 47.0423 22.6883C46.7769 22.9122 46.5587 23.1866 46.4003 23.4953C46.0855 24.6061 45.9278 25.7552 45.9316 26.9094L45.8482 28.0816L46.5608 28.0432C47.0295 27.9407 47.8449 27.787 48.8978 27.5948C49.9507 27.4027 50.7147 27.2618 51.0807 27.1849C51.3933 27.0289 51.7336 26.9353 52.0822 26.9094C52.6729 26.8006 53.3663 26.6917 54.1303 26.5764C54.8943 26.4611 55.6647 26.3458 56.4095 26.2433C57.1542 26.1408 57.7898 26.0383 58.297 25.9486C58.8042 25.859 59.0353 25.7949 58.984 25.7693C59.1206 25.7568 59.2548 25.7244 59.382 25.6732L59.8507 25.5131C59.9855 25.4746 60.1396 25.4362 60.3258 25.3978C60.4792 25.3615 60.6372 25.3485 60.7945 25.3593C60.929 25.3723 61.0609 25.4047 61.1861 25.4554C61.2499 25.4777 61.3079 25.514 61.3557 25.5617C61.4035 25.6094 61.4399 25.6672 61.4622 25.7309C61.5217 25.895 61.55 26.0688 61.5456 26.2433C61.5671 26.406 61.5387 26.5714 61.4642 26.7177C61.3898 26.864 61.2727 26.9845 61.1283 27.0632C60.7539 27.2165 60.3516 27.2906 59.947 27.281C59.5797 27.2689 59.2134 27.3276 58.8684 27.4539C58.3823 27.5715 57.8891 27.6571 57.3918 27.7101C56.6984 27.8062 56.0756 27.8831 55.5235 27.9471C55.2017 27.9599 54.8836 28.0204 54.5797 28.1265C49.6233 29.1684 45.311 30.0225 41.6429 30.6887C41.3026 30.7655 40.6028 30.9897 39.5563 31.3292C38.8079 31.6217 38.0312 31.8364 37.2386 31.9698C37.1011 31.832 36.9997 31.6626 36.9433 31.4765C36.8412 31.2771 36.78 31.0593 36.7635 30.836C36.7635 30.7335 36.8727 30.5798 37.0974 30.3684C37.2329 30.205 37.4214 30.094 37.6303 30.0545C38.4585 29.922 39.2792 29.7467 40.0892 29.5293ZM41.0715 9.96706C41.3593 8.78561 41.4717 7.56843 41.4054 6.3544C41.476 5.19767 41.3212 4.03825 40.9495 2.9403C40.8444 2.70734 40.7981 2.45222 40.8147 2.19727C40.8146 1.94848 40.7953 1.70007 40.7569 1.45423C40.6221 0.852123 40.8083 0.55107 41.3091 0.55107C41.5247 0.522451 41.744 0.542142 41.9511 0.608717C42.0399 0.644939 42.1195 0.700572 42.1839 0.771516C42.2484 0.84246 42.2961 0.926911 42.3235 1.01866C42.4005 1.23004 42.4519 1.37096 42.4776 1.45423C42.5032 1.53751 42.5418 1.74248 42.5995 2.09478L42.7151 2.40865C42.8022 1.83333 43.0966 1.30949 43.5433 0.935395C43.9857 0.559929 44.5369 0.335479 45.1163 0.294852C45.5502 0.27526 45.9808 0.208682 46.4003 0.0962845C46.9066 -0.00637868 47.4284 -0.00637868 47.9348 0.0962845C48.397 0.139117 48.8399 0.302593 49.2188 0.570286C49.5565 0.951201 49.7792 1.41983 49.8608 1.92183C49.9886 2.49655 50.0017 3.09075 49.8993 3.67052C49.7883 4.21754 49.616 4.7504 49.3857 5.25907C49.2448 5.66799 49.0269 6.04628 48.7437 6.37361C48.6083 6.59596 48.5025 6.83497 48.4291 7.08462C48.36 7.33122 48.2469 7.56338 48.0953 7.77C47.8624 8.04692 47.5923 8.29049 47.2927 8.49382C46.8745 8.89925 46.4329 9.27996 45.9702 9.63398C45.4373 10.0503 45.0842 10.3258 44.9301 10.4539C43.7488 11.4787 42.805 11.9848 42.0988 11.9848C41.0073 12.0232 40.6799 11.3506 41.0715 9.94785V9.96706ZM47.267 6.20067C47.4308 5.91246 47.5683 5.61019 47.6779 5.2975C47.8063 4.93239 47.9283 4.65696 48.0311 4.39433C48.0311 4.10609 47.6779 4.25341 46.9717 4.8235C46.6553 5.11014 46.3036 5.35551 45.9252 5.55372C45.5584 5.7502 45.2103 5.97961 44.8851 6.2391C44.6424 6.48439 44.3708 6.69947 44.0762 6.87964C43.8619 7.03521 43.6129 7.13634 43.3507 7.17429C43.0618 7.17429 42.8949 7.6547 42.8371 8.62833C42.8403 8.99663 42.8016 9.3641 42.7215 9.72366C42.6702 9.88379 42.7215 9.96066 42.882 9.96066C43.1106 9.90734 43.328 9.8141 43.524 9.68522C43.7864 9.52221 43.9925 9.28306 44.1147 8.99984C44.2089 8.82502 44.3368 8.6705 44.491 8.54518C44.6453 8.41986 44.8229 8.32621 45.0135 8.26962C45.6162 7.94571 46.1521 7.51105 46.5929 6.98853C46.8454 6.75089 47.0714 6.48673 47.267 6.20067ZM42.9591 2.99795C42.9176 3.32288 42.9047 3.65081 42.9206 3.97798V4.90036C42.9148 4.9985 42.9148 5.09688 42.9206 5.19501C42.9218 5.26314 42.9418 5.32962 42.9783 5.38717L43.0746 5.46404C43.1132 5.46404 43.1838 5.46404 43.2737 5.42561L43.569 5.25266L43.9606 4.99644C44.3847 4.67304 44.8383 4.38996 45.3153 4.15092C45.9573 3.82425 46.3746 3.56803 46.6379 3.38868C46.9893 3.1261 47.4188 2.98854 47.8577 2.99795L48.4034 3.03638C48.4661 2.79198 48.4551 2.53457 48.3717 2.29641C48.2883 2.05826 48.1363 1.84996 47.9348 1.69764C47.7197 1.53001 47.4614 1.42661 47.1898 1.3994C46.9183 1.37219 46.6445 1.42229 46.4003 1.54391C45.1163 1.93464 44.3266 2.27413 44.1211 2.56238C44.0106 2.72523 43.8687 2.86458 43.7038 2.97233C43.5787 3.08736 43.4224 3.1631 43.2544 3.19011C43.0618 3.02357 42.9591 2.95311 42.9591 2.98513V2.99795Z" fill="#00FFD1"/>
<path d="M65.7817 14.2841C65.5813 14.381 65.3623 14.4335 65.1397 14.4378C64.7994 14.5467 64.5683 14.3546 64.4527 13.8678C64.3371 13.3809 64.3371 13.1055 64.4527 13.0286C64.4527 12.9774 64.6132 12.9005 64.9406 12.8109L66.0642 12.5162C66.3618 12.4542 66.6522 12.3619 66.9309 12.2408C68.215 11.8137 69.1973 11.4614 69.8778 11.1839C70.2027 11.0163 70.548 10.8915 70.905 10.8124C71.1263 10.8099 71.3455 10.8558 71.5471 10.9469C71.913 11.0494 72.0157 11.3184 71.8617 11.754C71.7076 12.1895 71.4636 12.3945 71.149 12.3945C70.8087 12.497 70.0768 12.7916 68.9469 13.2785C68.1236 13.6589 67.263 13.953 66.3788 14.156C66.173 14.1571 65.9697 14.2007 65.7817 14.2841ZM69.7366 17.0705C69.8393 17.0705 70.0062 16.936 70.2245 16.6733C70.4358 16.4374 70.615 16.1746 70.7574 15.8919C70.9949 15.341 71.2967 15.1745 71.6626 15.3794C71.7792 15.434 71.8717 15.5294 71.9226 15.6474C71.9734 15.7655 71.9792 15.898 71.9387 16.02C71.764 16.5579 71.5109 17.0673 71.1875 17.5317C71.0651 17.7541 70.9278 17.9681 70.7766 18.1722C70.6421 18.3503 70.4986 18.5213 70.3465 18.6846C70.1731 18.864 70.0383 19.0113 69.9292 19.1138L69.698 19.4661L69.7751 22.0283C69.8529 22.9561 69.84 23.8893 69.7366 24.8147C69.6449 25.0536 69.6248 25.314 69.6788 25.5641C69.7173 25.9292 69.7751 26.115 69.8521 26.115C70.1945 25.957 71.164 24.6481 72.7605 22.1884C73.1008 21.6376 73.364 21.4582 73.5502 21.6376C73.7364 21.8169 73.5502 22.6752 72.8439 24.0332C72.7356 24.2129 72.6677 24.414 72.6449 24.6225C72.5654 24.9795 72.4195 25.3184 72.2148 25.6217C72.0031 26.0198 71.7514 26.3954 71.4636 26.7427C70.7391 27.4734 70.1053 28.2885 69.5761 29.1703C69.4703 29.4164 69.31 29.6354 69.1074 29.8109C68.9355 29.9797 68.7064 30.078 68.4653 30.0863C68.2189 30.041 67.9937 29.9175 67.8233 29.734C67.6855 29.5681 67.6085 29.3602 67.605 29.1447C67.5924 28.9092 67.6053 28.6729 67.6436 28.4401C67.6821 28.2031 67.7463 27.8957 67.8426 27.5177C67.924 27.1892 67.982 26.8553 68.0159 26.5185C68.1503 25.4565 68.1975 24.3854 68.1572 23.3158C68.1572 21.7593 68.0673 20.9137 67.9389 20.7536C67.8105 20.5935 67.1941 20.7024 66.2504 21.1507C65.7753 21.3813 65.4222 21.4454 65.1846 21.3237C64.9471 21.202 64.8572 20.9265 64.9085 20.4846C64.9202 20.2678 64.9888 20.0579 65.1076 19.8761C65.1862 19.7507 65.3033 19.6541 65.4414 19.6006C65.557 19.5622 65.7817 19.4917 66.0834 19.4021C66.3846 19.3222 66.6805 19.2238 66.9694 19.1074C67.1443 19.0536 67.3158 18.9894 67.4831 18.9152C67.5898 18.8539 67.6784 18.7655 67.7399 18.659C67.7988 18.5575 67.8318 18.4432 67.8362 18.3259V17.6854C67.8362 17.3587 67.8362 17.0449 67.8747 16.7182C67.8747 15.5204 67.9774 14.8542 68.1122 14.7197C68.2431 14.5767 68.4256 14.4915 68.6194 14.4827C68.8411 14.449 69.0676 14.4919 69.2615 14.6044C69.3963 14.6812 69.4605 15.0592 69.4605 15.7381C69.499 16.6093 69.576 17.0705 69.7558 17.0705H69.7366ZM79.3669 25.1157C79.1931 25.5616 78.9781 25.9905 78.7249 26.3968C78.6624 26.4973 78.5755 26.5805 78.4723 26.6387C78.369 26.697 78.2528 26.7283 78.1342 26.7299C77.9756 26.734 77.82 26.6861 77.6913 26.5935C77.5626 26.5009 77.4679 26.3689 77.4216 26.2174C77.3575 26.0524 77.3318 25.875 77.3462 25.6987C77.3607 25.5223 77.415 25.3514 77.505 25.199C77.5821 25.0132 77.826 24.5584 78.2305 23.8666C78.5239 23.3958 78.7671 22.8956 78.956 22.3742C78.956 22.3742 79.2706 21.644 79.8998 20.254C80.2144 19.5494 80.3107 19.2099 80.1759 19.2355C79.8769 19.2631 79.5806 19.3145 79.2899 19.3892C78.9869 19.4463 78.6916 19.5388 78.4103 19.6647C78.3315 19.7396 78.2383 19.7977 78.1362 19.8355C78.0342 19.8733 77.9256 19.8901 77.8169 19.8847C77.7082 19.8793 77.6017 19.8519 77.5039 19.8042C77.4062 19.7564 77.3192 19.6894 77.2482 19.607C76.8181 19.2547 76.7796 18.9217 77.1519 18.6078C77.2033 18.5053 77.428 18.3836 77.8389 18.2555C78.2498 18.1274 78.6992 17.9929 79.1936 17.8583C79.5304 17.7859 79.8594 17.6807 80.1759 17.5445C80.4855 17.413 80.823 17.3602 81.1582 17.3907C81.8002 17.4676 82.1148 17.6982 82.1469 18.0761C82.0288 18.9619 81.7457 19.8179 81.3122 20.5999C80.8543 21.8041 80.2122 23.3094 79.3862 25.1157H79.3669ZM84.2976 5.25885C84.5059 5.05892 84.7795 4.94066 85.0681 4.92577C85.192 4.92423 85.3136 4.95848 85.4185 5.0244C85.5233 5.09033 85.6067 5.18509 85.6587 5.29728C85.8046 5.71097 85.8974 6.14142 85.9348 6.57837L86.1274 8.93557C86.1274 9.11492 86.1916 9.211 86.3264 9.211C86.5226 9.17601 86.7026 9.07952 86.8401 8.93557C87.0295 8.77172 87.1997 8.58691 87.3473 8.3847C87.5547 8.08096 87.8724 7.86963 88.2332 7.7954C88.3874 7.73597 88.5549 7.71948 88.7177 7.74769C88.8806 7.7759 89.0327 7.84774 89.1578 7.95554C89.2704 8.07469 89.3461 8.22369 89.3761 8.3847C89.3715 8.4702 89.3499 8.55393 89.3124 8.63094C89.2749 8.70796 89.2223 8.77669 89.1578 8.83308C89.0108 8.99606 88.852 9.14807 88.6827 9.28787L88.1755 9.69782C87.9893 9.84514 87.8737 9.94122 87.8224 9.99247C87.771 10.0437 87.6105 10.1846 87.3473 10.4024C87.1251 10.5972 86.9209 10.8116 86.7373 11.043C86.6067 11.2021 86.5183 11.3916 86.4805 11.5938C86.3521 12.0934 86.3072 15.0357 86.3457 20.4205C86.3842 25.8054 86.4698 28.8928 86.6025 29.6828L86.7951 30.6244L86.4035 31.2137C86.1146 31.7389 85.7615 31.9567 85.4212 31.8542C85.0809 31.7517 84.8305 31.4507 84.7792 30.8742C84.7278 30.6948 84.6764 30.4643 84.6187 30.1888L84.4838 29.465C84.4524 29.2676 84.3779 29.0796 84.2655 28.9141C84.1638 28.7333 84.1046 28.5318 84.0922 28.3248C84.0537 28.0366 83.9638 27.87 83.8354 27.8124C83.5934 27.6139 83.3871 27.3756 83.2255 27.1078C83.0394 26.8905 82.8996 26.6377 82.8146 26.3648C82.943 25.942 83.3603 26.115 84.0986 26.8708C84.187 26.9586 84.253 27.0662 84.2912 27.1847C84.4004 27.3448 84.5159 27.396 84.6443 27.3448C84.7727 27.2936 84.792 25.737 84.7663 22.5984C84.715 17.679 84.6743 14.8008 84.6443 13.9638C84.6671 13.5335 84.6282 13.1021 84.5288 12.6827C84.4261 12.6827 84.2527 12.7212 84.0152 12.8749C83.7776 13.0286 83.4823 13.208 83.2704 13.3297C83.0585 13.4514 82.8852 13.5475 82.7375 13.6436C82.5857 13.7368 82.4293 13.8223 82.2689 13.8998C82.1481 13.951 82.0302 14.0088 81.9157 14.0727C81.7868 14.1349 81.6538 14.1884 81.5177 14.2329C81.3964 14.2678 81.2783 14.3128 81.1646 14.3674C81.0191 14.4321 80.8688 14.4857 80.7152 14.5275L80.2015 14.6812C80.0308 14.7697 79.8442 14.8237 79.6526 14.8402C79.4609 14.8567 79.2678 14.8353 79.0844 14.7773C78.9399 14.7346 78.815 14.6426 78.7317 14.5173C78.6483 14.392 78.6118 14.2414 78.6286 14.0919C78.6179 13.996 78.6324 13.8988 78.6707 13.8101C78.7089 13.7214 78.7697 13.6442 78.8469 13.5859C78.9685 13.4547 79.124 13.3594 79.2963 13.3105C80.9961 12.6877 82.6411 11.925 84.2142 11.0301C84.4261 10.9533 84.5416 10.8508 84.5673 10.7163C84.5856 10.4544 84.5662 10.1912 84.5095 9.93482C84.4453 9.54409 84.4004 9.15976 84.3683 8.79465C84.2399 7.51356 84.1757 6.67445 84.1757 6.23247C84.1008 5.90934 84.1464 5.57005 84.3041 5.27806L84.2976 5.25885ZM90.9426 17.9544C90.3519 18.9345 90.0309 19.4917 89.9796 19.6198C90.2164 19.825 90.4799 19.9973 90.7628 20.1323C91.1193 20.3087 91.4664 20.5033 91.8029 20.7152C92.0125 20.8563 92.1988 21.0292 92.355 21.2276C92.5494 21.4599 92.7643 21.6742 92.9971 21.8682C93.9206 22.5601 94.8017 23.3066 95.6358 24.1037C95.717 24.1925 95.8163 24.263 95.927 24.3105C96.0377 24.358 96.1573 24.3814 96.2778 24.3791C96.3292 24.3022 96.5282 24.3791 96.9198 24.693C97.3115 25.0068 97.6196 25.2887 97.9599 25.6153C98.13 25.8092 98.3293 25.9756 98.5506 26.1085C98.679 26.1085 98.801 26.2495 98.9037 26.4608C99.0013 26.6426 99.0562 26.8441 99.0642 27.0501C99.0288 27.3056 98.9169 27.5445 98.7432 27.7355C98.5377 28.011 98.3644 28.1455 98.236 28.1455C97.1295 27.3268 96.0725 26.4435 95.0708 25.5C93.6412 24.2189 92.7296 23.414 92.3358 23.0852C92.0755 22.9113 91.8268 22.7208 91.591 22.5151L90.6858 21.7913C90.4031 21.5832 90.0917 21.4171 89.7613 21.2981C89.417 21.1618 89.0435 21.1155 88.6762 21.1635C88.0342 21.266 87.6362 21.0611 87.5206 20.523C87.4733 20.2458 87.5187 19.9608 87.6498 19.712C87.7809 19.4631 87.9904 19.2642 88.2461 19.1458C89.6329 17.711 90.3712 16.494 90.4482 15.5011C90.4827 15.4065 90.5022 15.3071 90.506 15.2065C90.5107 15.1137 90.5236 15.0216 90.5445 14.9311L90.6216 14.7325C90.6483 14.6662 90.69 14.607 90.7436 14.5595C90.7988 14.5268 90.8568 14.4989 90.9169 14.4763C91.0065 14.4496 91.0995 14.4367 91.193 14.4378C91.3017 14.4251 91.4119 14.4381 91.5145 14.476C91.6172 14.5138 91.7094 14.5754 91.7836 14.6556C91.9125 14.9041 91.9682 15.184 91.9441 15.4627C91.8196 16.3625 91.4757 17.2181 90.9426 17.9544ZM91.4498 0.275415C91.7937 0.459501 92.1058 0.697382 92.3743 0.980013C93.1418 1.66693 93.8525 2.41452 94.4994 3.21551C94.7893 3.63571 94.9661 4.12315 95.013 4.63111C95.0462 5.06772 94.9781 5.50609 94.814 5.9122C94.7145 6.23345 94.5056 6.50989 94.2233 6.69366C93.9858 6.82818 93.806 6.8538 93.6776 6.77694C93.6346 6.74478 93.5995 6.70325 93.5751 6.65552C93.5506 6.60778 93.5373 6.55511 93.5364 6.5015C93.541 6.14512 93.5732 5.78963 93.6327 5.4382C93.6781 5.08463 93.6035 4.72606 93.4208 4.41974C92.8646 3.8164 92.266 3.25342 91.6296 2.7351C91.469 2.57497 91.2764 2.40202 91.0389 2.20345C90.8013 2.00489 90.6537 1.87678 90.5895 1.81272C90.5037 1.72171 90.4361 1.61517 90.3904 1.49885C90.3558 1.42802 90.3378 1.35026 90.3378 1.27146C90.3378 1.19266 90.3558 1.11489 90.3904 1.04407C90.5109 0.831939 90.6552 0.634226 90.8206 0.454767C90.8965 0.363112 90.9987 0.29681 91.1135 0.264752C91.2282 0.232694 91.3501 0.236415 91.4626 0.275415H91.4498Z" fill="#00FFD1"/>
</g>
<defs>
<clipPath id="clip0_242_59580">
<rect width="99" height="32.0977" fill="white"/>
</clipPath>
</defs>
</svg>
