<svg width="34" height="33" viewBox="0 0 34 33" fill="none" xmlns="http://www.w3.org/2000/svg">
<circle cx="16.8596" cy="16.5002" r="16.1809" fill="#CED4DA"/>
<g clip-path="url(#clip0_300_29460)">
<path d="M22.7083 14.6225C22.7071 16.1732 22.2333 17.6886 21.3468 18.9769C20.4603 20.2652 19.2009 21.2685 17.7283 21.8597C16.2556 22.4508 14.6358 22.6033 13.0741 22.2977C11.5124 21.9921 10.0789 21.2423 8.95523 20.1431C7.83158 19.044 7.06827 17.645 6.76199 16.1233C6.4557 14.6016 6.62021 13.0257 7.23468 11.595C7.84915 10.1644 8.88594 8.94343 10.2138 8.08678C11.5416 7.23012 13.1007 6.77631 14.6936 6.78278C16.8233 6.79144 18.8626 7.62141 20.3649 9.09086C21.8671 10.5603 22.7098 12.5495 22.7083 14.6225ZM14.6489 21.0312C15.9515 21.0339 17.2257 20.6605 18.3104 19.9582C19.3951 19.256 20.2415 18.2564 20.7425 17.0859C21.2436 15.9154 21.3769 14.6266 21.1254 13.3824C20.874 12.1382 20.2492 10.9945 19.33 10.0959C18.4109 9.1974 17.2386 8.58434 15.9615 8.33431C14.6844 8.08429 13.3598 8.20852 12.1553 8.69129C10.9507 9.17406 9.92024 9.99368 9.19421 11.0465C8.46819 12.0994 8.07917 13.3381 8.0764 14.6062C8.07784 16.3058 8.7696 17.9359 10.0008 19.1411C11.232 20.3462 12.9029 21.0286 14.6489 21.0393V21.0312Z" fill="white"/>
<path d="M19.4819 21.7614C20.4806 21.1142 21.3373 20.2803 22.0023 19.3081C22.3327 19.6325 22.6519 19.9378 22.9628 20.2513C22.999 20.3008 23.0512 20.3371 23.1111 20.3543C23.171 20.3716 23.2351 20.3689 23.2932 20.3467C23.4095 20.3076 23.535 20.3028 23.6541 20.3328C23.7731 20.3629 23.8804 20.4265 23.9625 20.5157C24.8334 21.358 25.7183 22.1867 26.5556 23.0562C26.9293 23.4821 27.1238 24.0297 27.1 24.5893C27.0761 25.1489 26.8358 25.679 26.4272 26.0733C26.0186 26.4676 25.472 26.6969 24.8969 26.7152C24.3219 26.7335 23.761 26.5394 23.3268 26.172C22.4419 25.3542 21.5962 24.5037 20.7365 23.6614C20.6415 23.5791 20.5744 23.4707 20.5439 23.3505C20.5134 23.2304 20.521 23.104 20.5657 22.9881C20.584 22.9397 20.5855 22.8868 20.5698 22.8375C20.5541 22.7882 20.5221 22.7453 20.4788 22.7155C20.1428 22.4075 19.8292 22.0967 19.4819 21.7614Z" fill="white"/>
<path d="M11.0087 13.4044C10.977 13.2205 11.0108 13.0316 11.1045 12.869C11.1982 12.7064 11.3462 12.5798 11.5239 12.5103C12.4144 12.0923 13.2975 11.6625 14.173 11.2209C14.32 11.1373 14.4872 11.0933 14.6575 11.0933C14.8277 11.0933 14.995 11.1373 15.142 11.2209C16.0073 11.6598 16.8754 12.085 17.7547 12.4912C17.9419 12.5646 18.0986 12.6966 18.2001 12.8665C18.3015 13.0363 18.3419 13.2342 18.3148 13.4289C18.2448 15.2362 17.4467 16.7 16.1025 17.9021C15.7944 18.1747 15.478 18.4473 15.156 18.7199C15.0342 18.8415 14.8695 18.9135 14.6952 18.9211C14.521 18.9287 14.3503 18.8714 14.2179 18.7608C13.4119 18.1626 12.6956 17.458 12.0896 16.6673C11.4041 15.7084 11.0278 14.5724 11.0087 13.4044ZM14.4475 14.8627C14.1954 14.6065 13.9798 14.3775 13.753 14.1595C13.687 14.0835 13.6056 14.0217 13.5138 13.978C13.422 13.9344 13.3219 13.9098 13.2198 13.9058C13.1177 13.9018 13.0159 13.9186 12.9208 13.955C12.8258 13.9914 12.7395 14.0467 12.6675 14.1173C12.5956 14.1879 12.5395 14.2723 12.5029 14.3651C12.4663 14.458 12.4499 14.5572 12.4548 14.6566C12.4597 14.7559 12.4858 14.8531 12.5314 14.9421C12.577 15.0311 12.6411 15.1099 12.7197 15.1735C13.1761 15.6205 13.6326 16.0676 14.0918 16.5092C14.173 16.6071 14.2793 16.6824 14.4 16.7274C14.5206 16.7725 14.6513 16.7858 14.7789 16.7658C14.9066 16.7459 15.0265 16.6935 15.1266 16.614C15.2268 16.5345 15.3036 16.4306 15.3492 16.3129C15.5732 15.8849 15.7917 15.4542 16.0129 15.0235C16.2705 14.522 16.5394 14.0232 16.783 13.5134C16.8422 13.3982 16.868 13.2695 16.8576 13.1411C16.8473 13.0127 16.8012 12.8894 16.7244 12.7846C16.6475 12.6798 16.5427 12.5973 16.4213 12.5461C16.2999 12.4949 16.1664 12.4768 16.0353 12.4939C15.9059 12.5088 15.7828 12.5567 15.6785 12.6328C15.5743 12.709 15.4925 12.8106 15.4416 12.9273L14.4475 14.8627Z" fill="white"/>
</g>
<defs>
<clipPath id="clip0_300_29460">
<rect width="20.4958" height="19.9564" fill="white" transform="translate(6.61182 6.7915)"/>
</clipPath>
</defs>
</svg>
