<svg width="55" height="55" viewBox="0 0 55 55" fill="none" xmlns="http://www.w3.org/2000/svg">
<path fill-rule="evenodd" clip-rule="evenodd" d="M42.9051 15.3659C41.7347 10.7546 38.8241 6.75754 34.7675 4.1905C30.7108 1.62346 25.8137 0.679944 21.0757 1.55249C14.801 2.67987 10.1549 6.21353 7.27254 12.0505C5.5262 15.6724 5.00073 19.7504 5.77299 23.688C6.89777 30.1743 10.206 36.0976 15.1636 40.5017C15.7167 41.0048 16.2882 41.4412 17.0073 41.9685C18.9913 43.4288 21.3162 44.373 23.7675 44.7142H24.6586H24.7324C26.1086 44.5931 27.983 44.2536 30.7103 42.6888C30.6639 42.535 30.6217 42.3797 30.5838 42.2232C30.2617 40.8939 30.2546 39.509 30.563 38.1769C30.8317 36.8471 31.4561 35.6151 32.3686 34.6085C33.2827 33.6001 34.4519 32.8553 35.7524 32.4488C37.0618 32.0083 38.4714 31.9496 39.8135 32.2795C39.9358 32.3096 40.0571 32.3428 40.1773 32.3791C41.2671 30.3447 42.1191 28.1819 42.7085 25.9306C43.7145 22.4873 43.7823 18.8433 42.9051 15.3659ZM32.4013 41.629C32.1807 40.6241 32.1885 39.5827 32.4248 38.58C32.6223 37.5782 33.0905 36.6479 33.7799 35.8874C34.4692 35.1269 35.3541 34.5647 36.3407 34.2602C36.5755 34.1801 36.8149 34.1168 37.0569 34.0702C36.8147 34.1168 36.5752 34.1802 36.3402 34.2602C35.3536 34.5647 34.4688 35.127 33.7794 35.8875C33.0901 36.6479 32.6219 37.5783 32.4243 38.58C32.188 39.5828 32.1803 40.6243 32.4009 41.6292C32.401 41.6292 32.4012 41.6291 32.4013 41.629Z" fill="#6C757D"/>
<path d="M53.0968 39.3365V40.9564V41.086C52.9785 41.9974 52.6653 42.8735 52.1779 43.6563C51.4435 44.8832 50.5127 45.9847 49.4215 46.9177C47.5401 48.5808 45.6369 50.2008 43.7336 51.8423C43.6107 51.9952 43.4544 52.1187 43.2764 52.2037C43.0983 52.2886 42.9032 52.3327 42.7054 52.3327C42.5077 52.3327 42.3125 52.2886 42.1345 52.2037C41.9565 52.1187 41.8001 51.9952 41.6772 51.8423L38.4176 49.0776C36.7541 47.7556 35.2363 46.2642 33.8892 44.6282C33.1864 43.8016 32.688 42.8248 32.4336 41.7751C32.1792 40.7255 32.1758 39.6317 32.4235 38.5805C32.621 37.5788 33.0893 36.6484 33.7786 35.8879C34.468 35.1275 35.3528 34.5652 36.3394 34.2607C37.3115 33.9295 38.3601 33.8838 39.358 34.1292C40.3559 34.3745 41.2603 34.9004 41.9616 35.643C42.233 35.9015 42.4887 36.1756 42.7273 36.4638L43.2086 35.8806C44.0456 34.9277 45.1885 34.2872 46.4463 34.0663C47.8152 33.8512 49.2166 34.1331 50.3911 34.8598C51.5656 35.5866 52.4335 36.7089 52.8342 38.0189C52.878 38.4077 52.9655 38.8829 53.0968 39.3365Z" fill="#6C757D"/>
<path d="M34.6225 19.5425C37.1628 19.5751 38.8049 21.5696 38.3475 24.075C38.0126 25.6981 37.1911 27.1844 35.9895 28.3415C34.7878 29.4985 33.2614 30.2728 31.6082 30.5641C31.015 30.6631 30.4064 30.6209 29.8332 30.4408C29.2599 30.2608 28.7385 29.9483 28.3126 29.5292C27.8866 29.1102 27.5684 28.5968 27.3844 28.0319C27.2004 27.4669 27.1561 26.8668 27.255 26.2815C27.6076 23.4174 30.451 20.1729 33.7573 19.6186C34.0438 19.5696 34.3359 19.5697 34.6225 19.5425ZM34.5123 21.374C34.4737 21.374 34.3524 21.374 34.2312 21.374C31.9609 21.662 29.4867 24.0316 29.1396 26.2652C28.8861 27.8685 29.7347 28.8956 31.206 28.7706C33.7243 28.5587 36.3307 25.9935 36.5566 23.5098C36.6723 22.2218 35.8899 21.374 34.5123 21.374Z" fill="white"/>
<path d="M14.7423 19.5483C16.3098 19.5936 17.8137 20.1693 19.0018 21.1788C20.679 22.4248 21.7963 24.2677 22.1153 26.3145C22.2129 26.9024 22.1653 27.5049 21.9764 28.0707C21.7874 28.6366 21.4628 29.1491 21.03 29.5647C20.5973 29.9803 20.0692 30.2867 19.4906 30.458C18.9121 30.6292 18.3002 30.6601 17.7069 30.5482C16.0625 30.2543 14.5451 29.481 13.3507 28.3282C12.1563 27.1754 11.3396 25.696 11.0062 24.0809C10.5984 21.907 11.8107 20.032 13.9432 19.6081C14.2298 19.5646 14.5108 19.5701 14.7423 19.5483ZM20.2527 26.7602C20.1976 24.3526 17.4424 21.532 15.0013 21.3744C13.4638 21.282 12.5326 22.2711 12.8522 23.7494C13.0721 24.9187 13.6278 26.0013 14.4532 26.8683C15.2786 27.7354 16.339 28.3505 17.5085 28.6406C19.1727 29.1352 20.3078 28.2982 20.2693 26.7602H20.2527Z" fill="white"/>
<path d="M24.4487 35.8109C23.785 35.8109 23.1212 35.8109 22.4575 35.8109C22.3136 35.8261 22.1682 35.8115 22.0304 35.768C21.8926 35.7245 21.7655 35.6532 21.6573 35.5584C21.5491 35.4637 21.4622 35.3477 21.4021 35.2179C21.3419 35.0881 21.31 34.9474 21.3083 34.8047C21.3014 34.6613 21.3259 34.5181 21.3801 34.3848C21.4344 34.2516 21.5171 34.1314 21.6226 34.0325C21.7282 33.9336 21.8541 33.8582 21.9918 33.8116C22.1295 33.765 22.2757 33.7481 22.4206 33.7622C23.7768 33.7622 25.137 33.7622 26.5013 33.7622C26.65 33.7433 26.801 33.7569 26.9437 33.802C27.0864 33.8472 27.2173 33.9228 27.327 34.0235C27.4367 34.1242 27.5226 34.2474 27.5785 34.3846C27.6344 34.5217 27.6591 34.6693 27.6506 34.8168C27.6457 34.9608 27.6105 35.1021 27.5472 35.2318C27.4839 35.3616 27.3938 35.4769 27.2828 35.5704C27.1718 35.664 27.0422 35.7336 26.9024 35.775C26.7626 35.8164 26.6155 35.8286 26.4706 35.8109C25.8069 35.8109 25.1247 35.8109 24.4487 35.8109Z" fill="white"/>
<ellipse cx="16.5461" cy="25.0316" rx="5.33606" ry="3.2528" transform="rotate(37.6925 16.5461 25.0316)" fill="white"/>
<ellipse cx="5.33606" cy="3.2528" rx="5.33606" ry="3.2528" transform="matrix(-0.791303 0.611424 0.611424 0.791303 35.6484 19.1951)" fill="white"/>
</svg>
