<svg width="26" height="26" viewBox="0 0 26 26" fill="none" xmlns="http://www.w3.org/2000/svg">
<g clip-path="url(#clip0_299_31815)">
<path d="M18.0021 3.21002V3.98415V4.04609C17.9456 4.48162 17.7959 4.90031 17.563 5.27437C17.2121 5.86072 16.7672 6.38707 16.2458 6.83296C15.3467 7.62774 14.4372 8.40187 13.5276 9.18632C13.4689 9.2594 13.3942 9.31843 13.3091 9.35901C13.224 9.39959 13.1308 9.42067 13.0363 9.42067C12.9418 9.42067 12.8485 9.39959 12.7634 9.35901C12.6784 9.31843 12.6037 9.2594 12.5449 9.18632L10.9872 7.86514C10.1923 7.23336 9.4669 6.52067 8.82317 5.73886C8.4873 5.34382 8.24915 4.87702 8.12758 4.37541C8.00601 3.87379 8.00435 3.35112 8.12273 2.84876C8.21713 2.37004 8.44089 1.92544 8.77032 1.56203C9.09975 1.19862 9.52259 0.929922 9.99407 0.784407C10.4586 0.626132 10.9597 0.604299 11.4366 0.72155C11.9135 0.838801 12.3457 1.0901 12.6808 1.445C12.8105 1.56852 12.9327 1.69949 13.0467 1.83723L13.2767 1.55854C13.6767 1.10313 14.2229 0.797073 14.824 0.691515C15.4781 0.588707 16.1478 0.723423 16.7091 1.07071C17.2704 1.41801 17.6852 1.95434 17.8767 2.5804C17.8976 2.76619 17.9394 2.99326 18.0021 3.21002Z" fill="#B962FD"/>
<g clip-path="url(#clip1_299_31815)">
<path fill-rule="evenodd" clip-rule="evenodd" d="M16.0193 12.6047C17.2468 13.3918 18.1277 14.6178 18.4821 16.0324C18.7495 17.0987 18.7316 18.2166 18.4301 19.2738C17.9759 21.0347 17.0049 22.6194 15.6421 23.8236C15.5381 23.9166 15.4321 24.0002 15.3318 24.0764C14.211 24.8496 13.4936 24.9908 12.9918 25.0354H12.9639H12.6944C11.9534 24.9307 11.2505 24.6419 10.6499 24.1953C10.4306 24.0336 10.2596 23.8998 10.0924 23.7456C8.59203 22.3954 7.59027 20.5791 7.24869 18.5898C7.01392 17.3806 7.17286 16.128 7.70219 15.0157C8.57388 13.2259 9.97898 12.1423 11.8766 11.7966C13.31 11.5285 14.7917 11.8175 16.0193 12.6047ZM12.2995 22.2938H12.8998C12.9686 22.2938 13.0375 22.2941 13.1062 22.2943C13.2436 22.2947 13.3806 22.2951 13.5169 22.2938C13.5604 22.299 13.6046 22.2951 13.6466 22.2822C13.6886 22.2694 13.7274 22.2479 13.7606 22.2193C13.7938 22.1906 13.8207 22.1553 13.8395 22.1157C13.8584 22.076 13.8687 22.0329 13.87 21.989C13.8723 21.9437 13.8646 21.8984 13.8474 21.8564C13.8303 21.8143 13.8041 21.7766 13.7708 21.7457C13.7375 21.7149 13.6978 21.6917 13.6546 21.6779C13.6113 21.6641 13.5656 21.6599 13.5206 21.6656H12.2883C12.2444 21.6613 12.2001 21.6665 12.1584 21.6808C12.1166 21.6951 12.0785 21.7182 12.0464 21.7485C12.0144 21.7788 11.9892 21.8156 11.9725 21.8564C11.9559 21.8973 11.9483 21.9412 11.9501 21.9853C11.9508 22.0291 11.9607 22.0723 11.9791 22.1121C11.9975 22.152 12.024 22.1875 12.0568 22.2165C12.0897 22.2455 12.1282 22.2674 12.17 22.2807C12.2118 22.294 12.2559 22.2985 12.2995 22.2938ZM12.5833 19.6302C12.4777 18.9299 12.1012 18.2992 11.535 17.8738C11.1343 17.5286 10.627 17.3317 10.0983 17.3162C10.0106 17.3176 9.92301 17.3251 9.83627 17.3385C9.6683 17.3691 9.50836 17.4337 9.36632 17.5284C9.22427 17.6231 9.10311 17.7459 9.01031 17.8892C8.9175 18.0325 8.85502 18.1933 8.82669 18.3616C8.79837 18.53 8.80482 18.7024 8.84563 18.8681C8.9581 19.4205 9.23355 19.9264 9.63641 20.3207C10.0393 20.7149 10.551 20.9794 11.1057 21.0799C11.3054 21.117 11.511 21.1054 11.7053 21.0461C11.8995 20.9869 12.0767 20.8817 12.2216 20.7394C12.3666 20.5972 12.4752 20.4221 12.5381 20.229C12.6011 20.0359 12.6166 19.8305 12.5833 19.6302ZM15.4267 17.3388C15.5327 17.3221 15.6219 17.3128 15.7185 17.3128C16.5754 17.3221 17.1292 18.0023 16.975 18.8629C16.862 19.4179 16.5849 19.9262 16.1796 20.3219C15.7743 20.7176 15.2595 20.9824 14.7019 21.082C14.5019 21.1155 14.2968 21.1007 14.1036 21.039C13.9105 20.9773 13.7348 20.8704 13.5913 20.7272C13.4477 20.584 13.3403 20.4086 13.2781 20.2156C13.2159 20.0226 13.2007 19.8175 13.2336 19.6174C13.3525 18.6398 14.3116 17.5247 15.4267 17.3388Z" fill="#B962FD"/>
<path fill-rule="evenodd" clip-rule="evenodd" d="M2.10438 13.6864C1.1301 14.3116 0.430974 15.2848 0.149595 16.4077C-0.0625985 17.2554 -0.046567 18.1442 0.19606 18.9837C0.557031 20.3823 1.32867 21.6408 2.41151 22.5968C2.49329 22.6693 2.57693 22.7362 2.65685 22.7957C3.54712 23.4053 4.11771 23.5224 4.51545 23.5596H4.53217H4.74592C5.33706 23.4779 5.89785 23.2476 6.37592 22.8905C6.52757 22.7791 6.67336 22.66 6.81268 22.5336C6.97396 22.3679 7.12246 22.1902 7.25689 22.0021C6.76717 21.32 6.5024 20.4943 6.27507 19.6552C6.30716 19.7747 6.33421 19.8749 6.35501 19.9477C6.35995 19.9652 6.36485 19.9823 6.3697 19.9993C6.39587 20.0911 6.42071 20.1782 6.44423 20.2786C6.30473 20.35 6.15481 20.3989 6.00002 20.4235C5.84151 20.4527 5.67829 20.4434 5.52413 20.3963C5.36997 20.3493 5.2294 20.2658 5.11425 20.153C4.9991 20.0402 4.91274 19.9014 4.86247 19.7483C4.8122 19.5951 4.79948 19.4322 4.82539 19.2731C4.91031 18.7166 5.20989 18.2155 5.6599 17.8773C5.7287 17.8203 5.80136 17.7681 5.87735 17.7211C5.88787 17.8714 5.90447 18.0217 5.92715 18.172C5.82295 17.4164 5.86388 16.6452 6.05066 15.9003C6.23529 15.0962 6.5895 14.3409 7.08961 13.6848C6.57722 13.3505 5.99817 13.1317 5.39271 13.0436C4.25473 12.8314 3.07867 13.0613 2.10438 13.6864ZM6.08889 18.9543C6.11556 19.0615 6.14276 19.1649 6.16915 19.2619C6.19194 19.3457 6.21352 19.4258 6.23368 19.5008C6.20609 19.3971 6.17889 19.2932 6.15174 19.1896L6.15174 19.1895L6.10456 19.0097C6.09924 18.9913 6.09402 18.9728 6.08889 18.9543ZM5.05919 21.381H4.58153C4.50091 21.381 4.41983 21.3814 4.33852 21.3819H4.33847H4.33842C4.25667 21.3824 4.1747 21.3828 4.09272 21.3828C4.05803 21.3867 4.02292 21.3833 3.98959 21.373C3.95626 21.3626 3.92544 21.3454 3.89908 21.3225C3.87271 21.2997 3.85138 21.2716 3.8364 21.2401C3.82143 21.2085 3.81314 21.1742 3.81207 21.1394C3.81012 21.1034 3.81613 21.0674 3.82966 21.034C3.84319 21.0006 3.8639 20.9706 3.89034 20.9461C3.91678 20.9216 3.94828 20.9033 3.98261 20.8923C4.01695 20.8814 4.05327 20.8782 4.089 20.8829H5.06849C5.10323 20.8794 5.13831 20.8834 5.17136 20.8946C5.20442 20.9059 5.23467 20.9241 5.26005 20.9481C5.28544 20.9721 5.30537 21.0012 5.3185 21.0336C5.33162 21.0659 5.33763 21.1007 5.33612 21.1356C5.33582 21.1705 5.32821 21.2049 5.31375 21.2367C5.2993 21.2684 5.27834 21.2968 5.25224 21.3199C5.22613 21.343 5.19545 21.3604 5.1622 21.3709C5.12894 21.3815 5.09385 21.3849 5.05919 21.381ZM4.31821 19.2547C4.22343 18.4778 3.46326 17.595 2.5767 17.4463C2.52011 17.4366 2.46147 17.4331 2.40382 17.4297C2.38385 17.4285 2.36399 17.4273 2.34438 17.4259C2.19103 17.4209 2.03859 17.4515 1.89902 17.5152C1.75946 17.5789 1.63653 17.6741 1.53987 17.7933C1.44321 17.9124 1.37544 18.0523 1.34186 18.2021C1.30828 18.3518 1.30981 18.5072 1.34631 18.6563C1.43584 19.097 1.65578 19.5007 1.97759 19.8149C2.29941 20.1291 2.70823 20.3393 3.15101 20.4182C3.30995 20.4449 3.47296 20.4333 3.6265 20.3843C3.78005 20.3353 3.91969 20.2504 4.03383 20.1366C4.14797 20.0229 4.23333 19.8835 4.28279 19.7301C4.33225 19.5767 4.34439 19.4137 4.31821 19.2547Z" fill="#05E4BC"/>
<path fill-rule="evenodd" clip-rule="evenodd" d="M23.8971 13.6886C24.8701 14.3136 25.5684 15.2859 25.8498 16.4076C26.0635 17.2548 26.05 18.1434 25.8107 18.9837C25.4487 20.3819 24.6772 21.64 23.5953 22.5968C23.5117 22.6693 23.428 22.7362 23.3481 22.7957C22.4578 23.4053 21.8872 23.5224 21.4895 23.5596H21.4728H21.259C20.6679 23.4778 20.1071 23.2476 19.629 22.8905C19.4774 22.7791 19.3316 22.66 19.1923 22.5336C19.031 22.3679 18.8825 22.1902 18.748 22.0021C19.1169 21.4883 19.3582 20.893 19.5519 20.2719C19.6912 20.3431 19.8408 20.3918 19.9952 20.4164C20.1538 20.446 20.3172 20.437 20.4716 20.3901C20.6259 20.3432 20.7667 20.2598 20.8819 20.1469C20.9972 20.034 21.0836 19.895 21.1337 19.7416C21.1838 19.5883 21.1962 19.4251 21.1698 19.2659C21.1099 18.9505 20.986 18.6507 20.8057 18.3851C20.6256 18.1198 20.3932 17.8941 20.1226 17.7221C20.1601 17.1123 20.1041 16.4978 19.9543 15.9003C19.7706 15.0959 19.4163 14.3404 18.9153 13.6848C19.4279 13.3507 20.0068 13.1319 20.6122 13.0436C21.7494 12.833 22.924 13.0636 23.8971 13.6886ZM20.1226 17.7221C20.1223 17.7218 20.1219 17.7216 20.1216 17.7214C20.1086 17.9073 20.0844 18.0931 20.0547 18.279C19.9971 18.6154 19.9097 18.9685 19.8298 19.2622C19.7973 19.3816 19.7672 19.4937 19.7403 19.5942C19.701 19.7409 19.6682 19.8631 19.6439 19.948C19.6281 20.0038 19.6128 20.0568 19.5974 20.1098C19.5821 20.1628 19.5668 20.2157 19.551 20.2714C19.5513 20.2716 19.5516 20.2717 19.5519 20.2719C19.6629 19.9161 19.7583 19.5518 19.8532 19.1895L19.9004 19.0097C20.0218 18.5881 20.0959 18.1563 20.1226 17.7221ZM20.9399 21.3813H21.4176C21.4996 21.3813 21.5816 21.3817 21.6633 21.3822H21.6634H21.6634C21.7447 21.3827 21.8258 21.3831 21.9064 21.3831C21.9411 21.387 21.9762 21.3836 22.0095 21.3732C22.0429 21.3629 22.0737 21.3457 22.1 21.3228C22.1264 21.3 22.1478 21.2719 22.1627 21.2403C22.1777 21.2088 22.186 21.1745 22.187 21.1396C22.189 21.1037 22.183 21.0677 22.1695 21.0343C22.1559 21.0009 22.1352 20.9709 22.1088 20.9464C22.0824 20.9219 22.0508 20.9036 22.0165 20.8926C21.9822 20.8817 21.9458 20.8785 21.9101 20.8832H20.9306C20.8959 20.8797 20.8608 20.8837 20.8278 20.8949C20.7947 20.9062 20.7645 20.9244 20.7391 20.9484C20.7137 20.9724 20.6938 21.0015 20.6806 21.0339C20.6675 21.0662 20.6615 21.101 20.663 21.1359C20.6633 21.1708 20.6709 21.2052 20.6854 21.237C20.6998 21.2687 20.7208 21.2971 20.7469 21.3202C20.773 21.3433 20.8037 21.3607 20.8369 21.3712C20.8702 21.3817 20.9053 21.3852 20.9399 21.3813ZM21.6808 19.255C21.7622 18.8159 21.9708 18.4104 22.2808 18.0889C22.5907 17.7674 22.9883 17.544 23.4242 17.4466C23.481 17.4369 23.5389 17.4334 23.5963 17.4299C23.6158 17.4287 23.6353 17.4276 23.6546 17.4261C23.808 17.4212 23.9604 17.4517 24.1 17.5155C24.2395 17.5792 24.3625 17.6744 24.4591 17.7936C24.5558 17.9127 24.6236 18.0526 24.6571 18.2023C24.6907 18.3521 24.6892 18.5075 24.6527 18.6565C24.563 19.0982 24.3423 19.5025 24.0194 19.8168C23.6965 20.1311 23.2863 20.3408 22.8424 20.4185C22.6839 20.4442 22.5215 20.4318 22.3687 20.3824C22.2159 20.333 22.0771 20.2479 21.9636 20.1343C21.8501 20.0206 21.7653 19.8816 21.7162 19.7288C21.667 19.5759 21.6549 19.4135 21.6808 19.255Z" fill="#05E4BC"/>
</g>
</g>
<defs>
<clipPath id="clip0_299_31815">
<rect width="26" height="26" fill="white"/>
</clipPath>
<clipPath id="clip1_299_31815">
<rect width="26" height="13.3466" fill="white" transform="translate(0 11.6997)"/>
</clipPath>
</defs>
</svg>
