<svg width="26" height="26" viewBox="0 0 26 26" fill="none" xmlns="http://www.w3.org/2000/svg">
<path fill-rule="evenodd" clip-rule="evenodd" d="M20.5037 7.34308C19.9444 5.1394 18.5535 3.22928 16.6149 2.00254C14.6763 0.775803 12.3361 0.324913 10.0718 0.741888C7.07326 1.28064 4.85297 2.96931 3.47556 5.75868C2.64102 7.48952 2.38991 9.43832 2.75895 11.32C3.29646 14.4197 4.87739 17.2504 7.24654 19.355C7.51087 19.5954 7.784 19.804 8.12761 20.056C9.07576 20.7538 10.1868 21.205 11.3582 21.3681H11.7841H11.8193C12.1912 21.3354 12.6392 21.2693 13.1941 21.0828C13.0673 20.5761 13 20.0459 13 19.5C13 15.9102 15.9102 13 19.5 13C19.7445 13 19.9859 13.0135 20.2234 13.0398C20.2906 12.8256 20.3527 12.6095 20.4098 12.3917C20.8905 10.7463 20.9229 9.00486 20.5037 7.34308Z" fill="#B962FD"/>
<path d="M16.5453 8.68433C17.7593 8.69991 18.544 9.65306 18.3255 10.8503C18.1654 11.626 17.7729 12.3363 17.1986 12.8892C16.6244 13.4421 15.8949 13.8122 15.1049 13.9513C14.8214 13.9987 14.5306 13.9785 14.2566 13.8925C13.9826 13.8064 13.7335 13.6571 13.53 13.4568C13.3264 13.2566 13.1743 13.0112 13.0864 12.7413C12.9985 12.4713 12.9773 12.1845 13.0245 11.9048C13.1931 10.5361 14.5519 8.98559 16.1319 8.72068C16.2688 8.69731 16.4084 8.69731 16.5453 8.68433ZM16.4927 9.55956C16.4742 9.55956 16.4163 9.55956 16.3584 9.55956C15.2734 9.69721 14.0911 10.8296 13.9251 11.897C13.804 12.6632 14.2096 13.154 14.9127 13.0943C16.1161 12.993 17.3617 11.7671 17.4696 10.5802C17.5249 9.96472 17.151 9.55956 16.4927 9.55956Z" fill="white"/>
<path d="M7.04457 8.68701C7.79365 8.70866 8.51238 8.98376 9.08015 9.46616C9.88164 10.0616 10.4155 10.9423 10.568 11.9205C10.6147 12.2014 10.5919 12.4893 10.5016 12.7597C10.4113 13.0301 10.2562 13.275 10.0494 13.4736C9.84257 13.6722 9.5902 13.8187 9.31372 13.9005C9.03725 13.9823 8.74483 13.9971 8.46132 13.9436C7.67548 13.8032 6.95036 13.4337 6.37956 12.8828C5.80877 12.3318 5.41851 11.6249 5.25916 10.853C5.06429 9.81417 5.64363 8.91815 6.66273 8.71558C6.79967 8.6948 6.93397 8.6974 7.04457 8.68701ZM9.67792 12.1334C9.65159 10.9829 8.33491 9.63497 7.16834 9.55965C6.43364 9.5155 5.9886 9.98818 6.14134 10.6946C6.24644 11.2534 6.51199 11.7707 6.90644 12.1851C7.30088 12.5994 7.80765 12.8934 8.36651 13.032C9.16178 13.2684 9.70425 12.8684 9.68582 12.1334H9.67792Z" fill="white"/>
<path d="M11.6844 16.6197C11.3672 16.6197 11.05 16.6197 10.7328 16.6197C10.6641 16.627 10.5946 16.62 10.5287 16.5992C10.4629 16.5785 10.4021 16.5443 10.3504 16.4991C10.2987 16.4538 10.2572 16.3984 10.2285 16.3363C10.1997 16.2743 10.1845 16.2071 10.1836 16.1389C10.1804 16.0703 10.1921 16.0019 10.218 15.9382C10.2439 15.8745 10.2834 15.8171 10.3339 15.7699C10.3843 15.7226 10.4445 15.6866 10.5103 15.6643C10.5761 15.642 10.646 15.6339 10.7152 15.6407C11.3633 15.6407 12.0133 15.6407 12.6653 15.6407C12.7364 15.6316 12.8085 15.6381 12.8767 15.6597C12.9449 15.6813 13.0075 15.7174 13.0599 15.7655C13.1123 15.8137 13.1534 15.8726 13.1801 15.9381C13.2068 16.0036 13.2186 16.0742 13.2145 16.1447C13.2122 16.2134 13.1954 16.281 13.1651 16.343C13.1349 16.405 13.0918 16.4601 13.0388 16.5048C12.9857 16.5495 12.9238 16.5828 12.857 16.6026C12.7902 16.6224 12.7199 16.6282 12.6506 16.6197C12.3335 16.6197 12.0075 16.6197 11.6844 16.6197Z" fill="white"/>
<ellipse cx="7.90724" cy="11.3075" rx="2.55001" ry="1.55445" transform="rotate(37.6925 7.90724 11.3075)" fill="white"/>
<ellipse cx="2.55001" cy="1.55445" rx="2.55001" ry="1.55445" transform="matrix(-0.791303 0.611424 0.611424 0.791303 17.0356 8.51831)" fill="white"/>
<circle cx="19.657" cy="19.565" r="5.07638" fill="white" stroke="#05E4BC" stroke-width="1.3"/>
<line x1="16.1595" y1="16.1834" x2="23.2244" y2="23.8612" stroke="#05E4BC" stroke-width="1.3"/>
</svg>
