<svg width="32" height="32" viewBox="0 0 32 32" fill="none" xmlns="http://www.w3.org/2000/svg">
<g clip-path="url(#clip0_496_36579)">
<path d="M22.4954 9.70915L21.1621 4.37581L18.4954 1.70915L14.4954 1.04248L9.16211 3.70915L7.16211 6.37581V11.0425L10.4954 14.3758H19.1621L22.4954 9.70915Z" fill="#05E4BC"/>
<path d="M16.8096 0.204235C19.9134 1.0019 22.0105 2.92852 23.0462 5.94873C23.4012 6.97409 23.5498 8.05955 23.4836 9.14259C23.4173 10.2256 23.1375 11.2849 22.6602 12.2593C22.4227 12.7631 22.1418 13.2452 21.8208 13.7003C21.4991 14.1538 21.1196 14.5591 20.7529 14.9869C20.9009 15.1187 21.0746 15.257 21.2161 15.4114C21.3974 15.5917 21.5025 15.8348 21.5097 16.0904C21.5169 16.346 21.4256 16.5946 21.2547 16.7848C21.175 16.8839 21.0766 16.9663 20.965 17.0273C20.8534 17.0883 20.7309 17.1266 20.6045 17.14C20.4781 17.1535 20.3502 17.1418 20.2283 17.1057C20.1064 17.0695 19.9928 17.0097 19.8941 16.9295C18.733 15.8874 17.321 15.598 15.8382 15.5047C14.3028 15.3682 12.7562 15.5736 11.3095 16.1062C10.865 16.2925 10.4483 16.5393 10.0712 16.8395C9.58234 17.2094 9.02591 17.2416 8.62386 16.8395C8.52677 16.7426 8.45015 16.6272 8.39857 16.5001C8.34698 16.373 8.32148 16.2369 8.32358 16.0998C8.32568 15.9626 8.35534 15.8273 8.41079 15.7019C8.46624 15.5765 8.54636 15.4634 8.64637 15.3696C8.77181 15.2345 8.89082 15.0898 9.01947 14.9418C8.76216 14.6556 8.46303 14.35 8.18964 14.0187C7.47449 13.195 6.92883 12.2384 6.58388 11.2035C6.23893 10.1687 6.10148 9.07599 6.17939 7.98796C6.31629 5.82246 7.28009 3.79238 8.87152 2.31743C10.0429 1.18476 11.5197 0.41899 13.1204 0.114205C14.3464 -0.0639227 15.5937 -0.0335037 16.8096 0.204235ZM14.5195 2.00223C13.3516 2.03307 12.2172 2.39927 11.2517 3.05718C9.05485 4.54959 7.99344 6.63061 8.25718 9.28736C8.44052 11.1368 9.41187 12.597 10.8303 13.7903C10.9139 13.8712 11.0188 13.9266 11.1327 13.95C11.2467 13.9734 11.3649 13.9637 11.4736 13.9222C13.8039 13.2967 16.258 13.2967 18.5883 13.9222C18.6491 13.9352 18.7121 13.9353 18.773 13.9226C18.8339 13.9098 18.8915 13.8845 18.9421 13.8482C20.9491 12.1275 21.8111 9.94674 21.3319 7.34146C20.7304 4.23441 17.9739 2.01188 14.5195 2.00223Z" fill="#05E4BC"/>
<path d="M31.6035 18.7004C31.6031 18.443 31.5228 18.192 31.3735 17.9823C31.2243 17.7725 31.0135 17.6143 30.7704 17.5296C30.5732 17.4456 30.358 17.4121 30.1446 17.4323C29.9311 17.4526 29.7261 17.5258 29.5482 17.6454C29.3568 17.7777 29.2006 17.9546 29.0929 18.1608C28.9853 18.3671 28.9296 18.5964 28.9306 18.829C28.9306 19.6439 28.9306 20.4576 28.9306 21.2703V22.3189H27.6023C26.6888 22.3189 26.3157 22.5858 25.9748 23.4639C25.8602 23.7805 25.7033 24.0803 25.5084 24.3548C25.0098 24.9981 24.2926 25.3198 23.2569 25.4098C22.3756 25.4741 21.9478 25.873 21.8288 26.7382C21.7348 27.3911 21.4708 28.0078 21.0633 28.5265C20.8467 28.8677 20.5331 29.1366 20.1627 29.2984C20.1285 29.3107 20.0928 29.3183 20.0566 29.321C19.9533 29.065 19.8737 28.8002 19.8186 28.5297C19.9022 28.4654 19.989 28.4043 20.0791 28.3432C20.2674 28.2214 20.445 28.0836 20.6098 27.9315C20.8369 27.7229 21.0102 27.4625 21.1148 27.1724C21.1963 26.8983 21.1825 26.6047 21.0756 26.3394C20.9687 26.0742 20.775 25.8531 20.5262 25.7121C20.2867 25.5698 20.0098 25.5034 19.7318 25.5218C19.4539 25.5402 19.188 25.6425 18.9694 25.8151L18.8697 25.8826C18.4694 26.1723 18.0379 26.4162 17.5832 26.6095C16.4703 27.0148 15.232 27.0952 13.6817 26.8669C12.6685 26.7157 11.5074 26.4487 10.581 25.6221C10.3196 25.4093 9.98512 25.3076 9.64948 25.3389C9.31385 25.3702 9.0039 25.5319 8.78629 25.7893C8.56183 26.0324 8.43717 26.3511 8.43717 26.6819C8.43717 27.0127 8.56183 27.3314 8.78629 27.5745C8.96758 27.7677 9.16682 27.9432 9.38132 28.0987C9.47872 28.1674 9.57215 28.2414 9.66115 28.3206C9.65051 28.4495 9.6257 28.5768 9.58717 28.7002C9.56205 28.8616 9.47849 29.0081 9.35238 29.1119C9.19619 29.1579 9.02838 29.143 8.88278 29.0701C8.41987 28.8592 8.03103 28.514 7.76669 28.0794C6.33768 26.2121 5.45373 23.9856 5.21286 21.6466C5.03597 20.1181 5.27488 18.5702 5.90439 17.1662C6.20183 16.5593 6.53699 15.9717 6.90791 15.4068L7.22955 14.8825C7.35044 14.7199 7.43558 14.5335 7.47937 14.3356C7.52316 14.1377 7.52462 13.9328 7.48365 13.7343C7.42875 13.4823 7.30049 13.2523 7.11503 13.0731C6.92957 12.894 6.69522 12.7737 6.44153 12.7275C6.1899 12.6701 5.92683 12.6898 5.68649 12.7838C5.44616 12.8779 5.23967 13.0421 5.09386 13.255C4.37257 14.1693 3.78355 15.1806 3.34413 16.2591C3.29589 16.3781 3.22513 16.4168 3.02249 16.4489C2.98696 16.3952 2.95474 16.3393 2.926 16.2817C2.79302 16.0072 2.57171 15.7854 2.29757 15.6519C2.02343 15.5183 1.71236 15.4807 1.41429 15.5451C1.10556 15.6093 0.831164 15.7847 0.643201 16.0378C0.455238 16.291 0.366804 16.6044 0.394692 16.9185C0.418478 17.3292 0.549881 17.7263 0.775706 18.0702C1.00153 18.414 1.31383 18.6923 1.68125 18.8773C1.93667 18.9949 2.20413 19.0845 2.47892 19.1443L2.5722 19.17C2.40612 20.44 2.43977 21.7282 2.67191 22.9879C3.15379 25.7506 4.39181 28.3257 6.24855 30.4274C6.91524 31.2029 7.85534 31.6914 8.87313 31.7912C10.462 31.9423 11.7518 31.0096 12.1603 29.4174L12.1892 29.3049H12.26C13.2804 29.5603 14.3321 29.6686 15.3831 29.6265C15.8688 29.604 16.3481 29.5622 16.8434 29.5172L17.2326 29.485C17.4738 30.4853 17.937 31.1704 18.651 31.5885C19.0883 31.8519 19.5879 31.9941 20.0984 32.0002C20.7822 31.9823 21.4424 31.7468 21.9832 31.328C23.0821 30.5109 23.8831 29.3563 24.2636 28.0408C24.2894 27.9604 24.2894 27.9604 24.3794 27.9411C26.1935 27.5487 27.4897 26.5709 28.2391 25.0464L28.2648 24.9981H28.3195C28.9628 24.9981 29.635 24.9981 30.2815 24.9981C30.4537 25.0033 30.6252 24.9738 30.7857 24.9115C30.9463 24.8492 31.0927 24.7552 31.2163 24.6352C31.3399 24.5152 31.4381 24.3716 31.5052 24.213C31.5722 24.0543 31.6068 23.8838 31.6067 23.7116C31.6131 22.1259 31.6131 20.4855 31.6035 18.7004Z" fill="white"/>
<path d="M23.994 13.6345C24.1119 13.7737 24.2603 13.8838 24.4276 13.9563C24.595 14.0288 24.7768 14.0618 24.9589 14.0527C25.1471 14.0406 25.33 13.9849 25.493 13.89C25.656 13.7951 25.7947 13.6636 25.8981 13.5059C25.9463 13.4319 25.9882 13.3579 26.03 13.2807C26.0541 13.2342 26.081 13.1891 26.1104 13.1456C26.245 12.9104 26.4281 12.7064 26.6475 12.5474C26.4481 12.8883 26.2551 13.2132 26.0493 13.5316C25.857 13.7915 25.7514 14.1053 25.7473 14.4286C25.7433 14.7518 25.8411 15.0682 26.0268 15.3328C26.4295 15.9604 26.6623 16.682 26.7022 17.4267C26.7005 17.7503 26.8265 18.0616 27.053 18.2929C27.2794 18.5241 27.5879 18.6567 27.9116 18.6618V18.6618C28.0755 18.6572 28.2368 18.6202 28.3864 18.553C28.5359 18.4857 28.6706 18.3895 28.7828 18.2698C28.8949 18.1502 28.9822 18.0096 29.0397 17.8561C29.0972 17.7025 29.1237 17.5391 29.1177 17.3752C29.1361 16.5834 28.95 15.8002 28.5774 15.1012C28.3168 14.6445 28.349 14.3132 28.7157 13.7857C29.0823 13.2582 29.3589 12.7629 29.642 12.2515L29.8543 11.8752C29.9467 11.7198 30.0054 11.5467 30.0265 11.3671C30.0475 11.1876 30.0305 11.0056 29.9765 10.833C29.9232 10.6741 29.8365 10.5285 29.7222 10.4059C29.6079 10.2833 29.4687 10.1866 29.3139 10.1222C29.0783 10.0202 28.8325 9.94364 28.5806 9.89384C27.9013 9.74073 27.1946 9.75968 26.5245 9.94897C25.8544 10.1383 25.2422 10.4919 24.7434 10.9778V10.9778C24.5056 10.8994 24.2492 10.8973 24.0101 10.9716C23.7709 11.0459 23.5609 11.193 23.4094 11.3923C23.2578 11.5917 23.1723 11.8333 23.1646 12.0836C23.157 12.3339 23.2277 12.5804 23.3668 12.7886C23.5588 13.0829 23.7682 13.3653 23.994 13.6345V13.6345Z" fill="white"/>
<path d="M24.8693 17.8448C24.8693 18.2082 24.7249 18.5567 24.468 18.8136C24.211 19.0706 23.8625 19.215 23.4991 19.215C23.1357 19.215 22.7872 19.0706 22.5302 18.8136C22.2733 18.5567 22.1289 18.2082 22.1289 17.8448C22.1289 17.4814 22.2733 17.1329 22.5302 16.8759C22.7872 16.619 23.1357 16.4746 23.4991 16.4746C23.8625 16.4746 24.211 16.619 24.468 16.8759C24.7249 17.1329 24.8693 17.4814 24.8693 17.8448V17.8448Z" fill="white"/>
<path d="M12.8225 5.99881C12.6584 6.47461 13.7331 6.60589 14.2294 6.73715C15.14 6.97505 16.0834 7.11861 16.9776 7.40164C17.5915 7.59134 18.1706 7.87947 18.6921 8.25479C19.0769 8.52977 19.3857 8.89764 19.5899 9.32415C19.7941 9.75067 19.887 10.222 19.86 10.6941C19.833 11.1662 19.6869 11.6238 19.4354 12.0242C19.1838 12.4247 18.835 12.7549 18.4214 12.9842C17.3341 13.6105 16.0838 13.8963 14.8323 13.8045C13.737 13.787 12.662 13.5056 11.6986 12.9842C11.2389 12.7668 10.8332 12.4502 10.5105 12.0573C10.1878 11.6644 9.95616 11.2049 9.83226 10.7118C9.74938 10.3828 9.79874 10.0345 9.96975 9.74159C10.1408 9.44865 10.4198 9.23445 10.747 9.1449C11.0657 9.05812 11.4053 9.09429 11.6986 9.24624C11.9919 9.3982 12.2174 9.65485 12.3303 9.96526C12.4311 10.2309 12.6135 10.4577 12.8512 10.6133C13.4271 10.9322 14.0639 11.1259 14.7198 11.1818C15.3758 11.2376 16.0361 11.1544 16.6576 10.9374C16.8709 10.8718 17.2114 10.7569 17.2237 10.5026C17.236 10.2483 16.8915 10.0924 16.6823 10.0473C15.8619 9.80117 15.0415 9.58653 14.2212 9.40332C13.2759 9.23907 12.3717 8.89211 11.5591 8.38192C11.1485 8.12066 10.8135 7.75641 10.5876 7.32538C10.3616 6.89435 10.2525 6.41162 10.2712 5.9253C10.2898 5.43898 10.4356 4.96605 10.694 4.55361C10.9523 4.14118 11.3143 3.80363 11.7437 3.57463C12.2501 3.30156 12.789 3.09345 13.3475 2.95525C13.6551 2.86912 13.7577 2.78708 13.7577 2.44664C13.7403 2.22928 13.7778 2.01105 13.8668 1.81199C13.9558 1.61293 14.0934 1.43947 14.267 1.30753C14.4406 1.17559 14.6446 1.08943 14.8602 1.05697C15.0759 1.02451 15.2962 1.04678 15.5009 1.12176C15.7707 1.21739 15.9999 1.40178 16.1512 1.6447C16.3025 1.88763 16.3668 2.17471 16.3336 2.45895C16.3336 2.83632 16.4403 2.98397 16.8053 3.10702C17.3975 3.27095 17.9427 3.5722 18.3966 3.98626C18.8506 4.40032 19.2006 4.91556 19.4182 5.49019C19.4845 5.64817 19.5189 5.81773 19.5193 5.98909C19.5197 6.16045 19.4862 6.33019 19.4206 6.4885C19.355 6.6468 19.2586 6.79052 19.1371 6.91134C19.0156 7.03217 18.8713 7.12773 18.7127 7.19244C18.5582 7.25987 18.3917 7.2955 18.2232 7.29719C18.0546 7.29888 17.8874 7.26657 17.7316 7.20226C17.5758 7.13794 17.4346 7.04295 17.3163 6.92286C17.198 6.80278 17.1052 6.66008 17.0432 6.50332C16.9283 6.24393 16.7522 6.01628 16.53 5.83983C16.3078 5.66338 16.0462 5.54342 15.7676 5.49019C14.979 5.27383 14.1431 5.30388 13.3721 5.57631C13.1957 5.66245 12.8471 5.87575 12.8225 5.99881Z" fill="#B962FD"/>
</g>
<defs>
<clipPath id="clip0_496_36579">
<rect width="32" height="32" fill="white"/>
</clipPath>
</defs>
</svg>
