<svg width="54" height="54" viewBox="0 0 54 54" fill="none" xmlns="http://www.w3.org/2000/svg">
<path fill-rule="evenodd" clip-rule="evenodd" d="M42.5839 15.251C41.4222 10.6741 38.5334 6.70697 34.5071 4.15913C30.4807 1.61128 25.6203 0.674819 20.9177 1.54084C14.6899 2.6598 10.0785 6.16704 7.21772 11.9603C5.48444 15.5552 4.9629 19.6027 5.72938 23.5108C6.84575 29.9487 10.1292 35.8277 15.0498 40.1988C15.5987 40.6982 16.166 41.1313 16.8797 41.6547C18.8489 43.104 21.1564 44.0412 23.5894 44.3799H24.4738H24.547C25.3196 44.3119 26.2504 44.1746 27.403 43.7871C27.1398 42.7349 27 41.6338 27 40.5C27 33.0442 33.0442 27 40.5 27C41.0076 27 41.5086 27.028 42.0016 27.0826C42.1412 26.6378 42.2703 26.189 42.3887 25.7367C43.3872 22.3192 43.4545 18.7024 42.5839 15.251Z" fill="#6C757D"/>
<path d="M34.3634 18.0364C36.8847 18.0687 38.5145 20.0484 38.0606 22.535C37.7282 24.1459 36.9128 25.6212 35.7202 26.7696C34.5275 27.918 33.0125 28.6865 31.3717 28.9756C30.7829 29.0739 30.1789 29.0319 29.6099 28.8533C29.0409 28.6746 28.5234 28.3644 28.1007 27.9485C27.6779 27.5326 27.362 27.023 27.1795 26.4623C26.9969 25.9016 26.9528 25.3059 27.051 24.725C27.401 21.8824 30.2231 18.6621 33.5047 18.1119C33.7891 18.0633 34.079 18.0633 34.3634 18.0364ZM34.254 19.8542C34.2157 19.8542 34.0954 19.8542 33.9751 19.8542C31.7217 20.1401 29.266 22.4919 28.9215 24.7089C28.6699 26.3001 29.5121 27.3196 30.9724 27.1955C33.4719 26.9852 36.0588 24.4391 36.2831 21.974C36.3979 20.6957 35.6213 19.8542 34.254 19.8542Z" fill="white"/>
<path d="M14.6307 18.0425C16.1865 18.0874 17.6792 18.6588 18.8585 19.6607C20.5231 20.8974 21.632 22.7265 21.9486 24.7581C22.0456 25.3416 21.9983 25.9396 21.8107 26.5012C21.6232 27.0628 21.301 27.5714 20.8715 27.9839C20.442 28.3964 19.9178 28.7006 19.3436 28.8705C18.7694 29.0405 18.162 29.0712 17.5732 28.9601C15.9411 28.6684 14.4351 27.9009 13.2496 26.7567C12.0641 25.6125 11.2535 24.1442 10.9226 22.5411C10.5178 20.3835 11.7211 18.5225 13.8377 18.1018C14.1221 18.0587 14.401 18.0641 14.6307 18.0425ZM20.1 25.2004C20.0453 22.8108 17.3107 20.0113 14.8878 19.8549C13.3619 19.7632 12.4376 20.7449 12.7548 22.2121C12.9731 23.3727 13.5246 24.4471 14.3438 25.3077C15.1631 26.1683 16.2156 26.7788 17.3763 27.0668C19.028 27.5576 20.1547 26.7269 20.1164 25.2004H20.1Z" fill="white"/>
<path d="M24.267 34.5182C23.6082 34.5182 22.9495 34.5182 22.2907 34.5182C22.1479 34.5333 22.0035 34.5188 21.8667 34.4756C21.73 34.4325 21.6039 34.3616 21.4965 34.2676C21.3891 34.1736 21.3028 34.0585 21.2431 33.9296C21.1835 33.8008 21.1518 33.6611 21.15 33.5195C21.1432 33.3772 21.1676 33.235 21.2214 33.1028C21.2752 32.9705 21.3573 32.8512 21.4621 32.7531C21.5668 32.6549 21.6918 32.5801 21.8285 32.5338C21.9651 32.4875 22.1103 32.4708 22.2541 32.4848C23.6001 32.4848 24.9502 32.4848 26.3043 32.4848C26.4518 32.466 26.6017 32.4795 26.7434 32.5243C26.885 32.5691 27.0149 32.6442 27.1238 32.7441C27.2327 32.844 27.3179 32.9664 27.3734 33.1025C27.4289 33.2386 27.4534 33.3851 27.445 33.5315C27.4401 33.6744 27.4052 33.8147 27.3423 33.9434C27.2795 34.0722 27.1901 34.1867 27.0799 34.2795C26.9697 34.3723 26.8412 34.4415 26.7024 34.4826C26.5636 34.5237 26.4176 34.5358 26.2738 34.5182C25.615 34.5182 24.938 34.5182 24.267 34.5182Z" fill="white"/>
<ellipse cx="16.422" cy="23.4846" rx="5.29616" ry="3.22848" transform="rotate(37.6925 16.422 23.4846)" fill="white"/>
<ellipse cx="5.29616" cy="3.22848" rx="5.29616" ry="3.22848" transform="matrix(-0.791303 0.611424 0.611424 0.791303 35.3823 17.6917)" fill="white"/>
<circle cx="40.8259" cy="40.6347" r="10.5432" stroke="#6C757D" stroke-width="2.7"/>
<line x1="33.5623" y1="33.6118" x2="48.2356" y2="49.5579" stroke="#6C757D" stroke-width="2.7"/>
</svg>
