<svg width="28" height="28" viewBox="0 0 28 28" fill="none" xmlns="http://www.w3.org/2000/svg">
<path d="M25.375 5.25C25.8582 5.25 26.25 5.64175 26.25 6.125V21.875C26.25 22.3582 25.8582 22.75 25.375 22.75H2.625C2.14175 22.75 1.75 22.3582 1.75 21.875V6.125C1.75 5.64175 2.14175 5.25 2.625 5.25H25.375ZM2.625 3.5C1.17525 3.5 0 4.67525 0 6.125V21.875C0 23.3247 1.17525 24.5 2.625 24.5H25.375C26.8247 24.5 28 23.3247 28 21.875V6.125C28 4.67525 26.8247 3.5 25.375 3.5H2.625Z" fill="#B962FD"/>
<path d="M8.75 14C8.75 13.5168 9.14175 13.125 9.625 13.125H15.75H21.875C22.3582 13.125 22.75 13.5168 22.75 14C22.75 14.4832 22.3582 14.875 21.875 14.875H9.625C9.14175 14.875 8.75 14.4832 8.75 14Z" fill="#05E4BC"/>
<path d="M8.75 9.625C8.75 9.14175 9.14175 8.75 9.625 8.75H21.875C22.3582 8.75 22.75 9.14175 22.75 9.625C22.75 10.1082 22.3582 10.5 21.875 10.5H9.625C9.14175 10.5 8.75 10.1082 8.75 9.625Z" fill="#05E4BC"/>
<path d="M8.75 18.375C8.75 17.8918 9.14175 17.5 9.625 17.5H21.875C22.3582 17.5 22.75 17.8918 22.75 18.375C22.75 18.8582 22.3582 19.25 21.875 19.25H15.75H9.625C9.14175 19.25 8.75 18.8582 8.75 18.375Z" fill="#05E4BC"/>
<path d="M7 9.625C7 10.1082 6.60825 10.5 6.125 10.5C5.64175 10.5 5.25 10.1082 5.25 9.625C5.25 9.14175 5.64175 8.75 6.125 8.75C6.60825 8.75 7 9.14175 7 9.625Z" fill="#B962FD"/>
<path d="M7 14C7 14.4832 6.60825 14.875 6.125 14.875C5.64175 14.875 5.25 14.4832 5.25 14C5.25 13.5168 5.64175 13.125 6.125 13.125C6.60825 13.125 7 13.5168 7 14Z" fill="#B962FD"/>
<path d="M7 18.375C7 18.8582 6.60825 19.25 6.125 19.25C5.64175 19.25 5.25 18.8582 5.25 18.375C5.25 17.8918 5.64175 17.5 6.125 17.5C6.60825 17.5 7 17.8918 7 18.375Z" fill="#B962FD"/>
</svg>
