<svg width="26" height="26" viewBox="0 0 26 26" fill="none" xmlns="http://www.w3.org/2000/svg">
<path d="M12.0397 0.510304C12.4993 -0.170101 13.5012 -0.170102 13.9609 0.510303L15.5462 2.85687C15.8438 3.29735 16.4029 3.479 16.9025 3.29756L19.5644 2.33099C20.3362 2.05073 21.1467 2.6396 21.1187 3.46026L21.022 6.29051C21.0038 6.82179 21.3493 7.29734 21.8602 7.44425L24.5818 8.22687C25.371 8.4538 25.6806 9.40663 25.1755 10.0541L23.4337 12.287C23.1067 12.7061 23.1067 13.2939 23.4337 13.713L25.1755 15.9459C25.6806 16.5934 25.371 17.5462 24.5818 17.7731L21.8602 18.5558C21.3493 18.7027 21.0038 19.1782 21.022 19.7095L21.1187 22.5397C21.1467 23.3604 20.3362 23.9493 19.5644 23.669L16.9025 22.7024C16.4029 22.521 15.8438 22.7026 15.5462 23.1431L13.9609 25.4897C13.5012 26.1701 12.4993 26.1701 12.0397 25.4897L10.4543 23.1431C10.1567 22.7026 9.59768 22.521 9.09801 22.7024L6.43616 23.669C5.66434 23.9493 4.85382 23.3604 4.88186 22.5397L4.97856 19.7095C4.99672 19.1782 4.65121 18.7027 4.14033 18.5558L1.41871 17.7731C0.629557 17.5462 0.319964 16.5934 0.825018 15.9459L2.56684 13.713C2.8938 13.2939 2.8938 12.7061 2.56684 12.287L0.825018 10.0541C0.319965 9.40663 0.629555 8.4538 1.41871 8.22687L4.14033 7.44425C4.65121 7.29734 4.99672 6.82179 4.97856 6.29051L4.88186 3.46026C4.85382 2.6396 5.66434 2.05073 6.43616 2.33099L9.09801 3.29756C9.59768 3.479 10.1567 3.29735 10.4543 2.85687L12.0397 0.510304Z" fill="#B962FD"/>
<path d="M13.0197 8.75221C13.0197 6.81683 14.5843 5.27785 16.5442 5.28077C18.462 5.28077 20.0022 6.85472 19.9999 8.80001C19.9999 10.7092 18.4259 12.2645 16.5074 12.261C16.0473 12.2621 15.5915 12.172 15.1665 11.9959C14.7414 11.8197 14.3555 11.5609 14.0311 11.2346C13.7068 10.9083 13.4503 10.5208 13.2767 10.0947C13.1031 9.66863 13.0157 9.21232 13.0197 8.75221ZM19.3021 8.76854C19.3061 7.26046 18.0441 5.98905 16.5342 5.97797C14.9976 5.9669 13.7192 7.23072 13.7174 8.76212C13.7204 9.50333 14.0161 10.2134 14.5402 10.7375C15.0643 11.2616 15.7744 11.5573 16.5156 11.5603C18.0388 11.5626 19.298 10.2994 19.3021 8.76854Z" fill="white"/>
<path fill-rule="evenodd" clip-rule="evenodd" d="M16.5105 11.8332C18.2017 11.8332 19.5727 10.4622 19.5727 8.77095C19.5727 7.07974 18.2017 5.70874 16.5105 5.70874C14.8192 5.70874 13.4482 7.07974 13.4482 8.77095C13.4482 10.4622 14.8192 11.8332 16.5105 11.8332ZM17.2401 8.42121C17.4389 8.40488 17.5584 8.25565 17.5555 7.96418C17.5409 7.731 17.4424 7.44594 17.1929 7.29029C16.9288 7.1259 16.8123 6.94752 16.8478 6.6339C16.8694 6.45202 16.6858 6.31853 16.498 6.32785C16.4131 6.32531 16.3305 6.35617 16.2681 6.41383C16.2056 6.47149 16.1683 6.55133 16.164 6.63623C16.1541 6.723 16.1541 6.81061 16.164 6.89739C16.1745 7.01922 16.1355 7.09209 16.0189 7.15039C15.8605 7.2266 15.7257 7.3442 15.6288 7.49074C15.5318 7.63727 15.4762 7.8073 15.468 7.98283C15.4254 8.60134 15.8492 9.07411 16.4706 9.11842C16.7575 9.1394 16.9213 9.34809 16.8303 9.58127C16.7668 9.74275 16.6438 9.83077 16.4753 9.80862C16.2754 9.78297 16.1838 9.64598 16.1588 9.44894C16.1285 9.22159 15.9839 9.10325 15.7787 9.12074C15.5875 9.13707 15.4651 9.27931 15.4651 9.49441C15.4639 9.80629 15.5659 10.0861 15.8271 10.2522C16.0882 10.4184 16.2095 10.595 16.1716 10.9092C16.1518 11.0818 16.3237 11.2106 16.5015 11.2147C16.5894 11.2192 16.6756 11.1894 16.7419 11.1315C16.8081 11.0736 16.8493 10.9922 16.8566 10.9046C16.8659 10.825 16.8659 10.7446 16.8566 10.665C16.8385 10.5227 16.895 10.4504 17.0233 10.3811C17.2359 10.2654 17.4011 10.0788 17.4902 9.85384C17.5792 9.62883 17.5865 9.37969 17.5106 9.14989C17.3777 8.73017 17.0145 8.4556 16.5511 8.42354C16.3313 8.40838 16.1885 8.29238 16.1652 8.10992C16.1596 8.02585 16.1837 7.94248 16.2332 7.87432C16.2827 7.80616 16.3546 7.7575 16.4363 7.73683C16.6409 7.6832 16.8163 7.83127 16.8595 8.09126C16.8974 8.31861 17.0413 8.43753 17.2401 8.42121Z" fill="white"/>
<g clip-path="url(#clip0_350_39975)">
<path d="M19.9998 13.7082C19.9998 13.3015 19.8189 13.121 19.421 13.121H14.0095C14.2425 12.6806 14.1542 12.2285 13.7592 11.8204C13.4119 11.4662 13.0637 11.1129 12.7145 10.7606C12.237 10.2806 11.6177 10.2806 11.1402 10.7606C10.7988 11.1041 10.4573 11.4491 10.1274 11.797C10.1014 11.8234 10.0768 11.8498 10.0522 11.8777C9.71213 11.0601 9.11455 10.6417 8.34044 10.6902C7.95224 10.7108 7.58284 10.8663 7.29431 11.1305C7.109 11.2986 6.96142 11.5052 6.86157 11.7361C6.76172 11.9671 6.71192 12.2171 6.71554 12.4693C5.80976 12.5338 5.16443 13.0491 5.00816 13.852C4.92348 14.2632 4.98769 14.6916 5.18903 15.0586C5.38865 15.4377 5.72275 15.7258 6.12374 15.8645L6.00365 15.9848C5.71426 16.2784 5.44369 16.55 5.16877 16.8304C4.69707 17.3133 4.69562 17.9357 5.16877 18.4157C5.46684 18.721 5.7678 19.0249 6.06731 19.3272L6.2366 19.499C6.72567 19.9937 7.33338 19.9922 7.82823 19.499L9.17532 18.1324L10.2562 17.0359V19.1555C10.2493 19.3736 10.2867 19.5908 10.366 19.7936C10.4453 19.9965 10.5648 20.1806 10.7172 20.3346C10.8695 20.4886 11.0515 20.6092 11.2517 20.689C11.4519 20.7687 11.6661 20.8058 11.8811 20.7981H18.3923C18.6072 20.8056 18.8214 20.7683 19.0216 20.6884C19.2217 20.6085 19.4035 20.4877 19.5558 20.3335C19.708 20.1794 19.8274 19.9951 19.9065 19.7922C19.9856 19.5893 20.0228 19.3721 20.0157 19.154V13.7082H19.9998ZM11.2169 17.4513H14.6693V19.7999H11.9071C11.4629 19.7999 11.2184 19.5504 11.2184 19.0968V18.8795C11.2169 18.4113 11.2169 17.9313 11.2169 17.4513ZM19.0173 14.1221V16.4237H15.6822V14.1133H17.4055V14.1221H19.0173ZM11.2227 16.0905C11.226 16.0594 11.238 16.0298 11.2575 16.0054C11.8362 15.4006 12.4584 14.7768 13.0864 14.15C13.1111 14.1324 13.1402 14.1222 13.1703 14.1206C13.2354 14.1206 13.3005 14.1206 13.3656 14.1206H14.6679V16.4311H11.2213C11.2213 16.3122 11.2213 16.2006 11.2227 16.0905ZM15.6822 19.8028V17.4542H19.0173V19.0689C19.0173 19.5724 18.7873 19.8028 18.2939 19.8028H15.6822ZM13.1486 12.6395C13.1282 12.6787 13.1007 12.7135 13.0676 12.7423C11.0853 14.7562 9.10104 16.7682 7.11489 18.7782C7.08234 18.8071 7.0475 18.8331 7.01071 18.8561C6.99028 18.8452 6.9709 18.8324 6.95284 18.8179C6.59255 18.4597 6.21779 18.0839 5.84015 17.6905C5.82166 17.6723 5.80516 17.6522 5.79095 17.6304C5.8104 17.5894 5.83798 17.5529 5.87198 17.5232L6.98033 16.4032L8.68626 14.677L10.6931 12.6351L11.7972 11.5122C11.8357 11.4733 11.8763 11.4366 11.9187 11.4021C11.9187 11.4021 11.9607 11.4168 12.0634 11.5166L12.2819 11.7397L13.0676 12.5382C13.0989 12.5682 13.1262 12.6023 13.1486 12.6395ZM7.14528 13.6318C7.31312 13.7786 7.46939 13.9518 7.63579 14.128L7.71826 14.2161L7.64157 14.2968C7.47807 14.4685 7.32325 14.6315 7.15685 14.7856C7.01319 14.9047 6.83103 14.9654 6.64573 14.9559C6.46044 14.9464 6.28523 14.8674 6.15413 14.7342C6.02523 14.5951 5.95347 14.4114 5.95347 14.2204C5.95347 14.0295 6.02523 13.8458 6.15413 13.7067C6.27865 13.5681 6.45072 13.4832 6.63503 13.4693C6.81933 13.4553 7.0019 13.5135 7.14528 13.6318ZM8.96262 12.961C8.81793 13.1195 8.65587 13.2766 8.50539 13.4278L8.4533 13.4806L8.34912 13.3852C8.1681 13.2274 7.99793 13.0572 7.8398 12.8759C7.78545 12.809 7.74468 12.732 7.71985 12.6491C7.69502 12.5662 7.68661 12.4791 7.69511 12.3929C7.70497 12.2909 7.73458 12.1918 7.78226 12.1014C7.82993 12.0109 7.89472 11.9309 7.97292 11.866C8.10346 11.7562 8.26785 11.6965 8.43738 11.6971C8.53824 11.6973 8.638 11.7183 8.73055 11.759C8.8231 11.7996 8.90651 11.859 8.97564 11.9335C9.10477 12.0733 9.17554 12.2583 9.17311 12.4499C9.17069 12.6415 9.09525 12.8246 8.96262 12.961Z" fill="white"/>
<path d="M11.8346 11.0776L13.5478 12.7275L7.08293 19.176C7.08293 19.176 5.15273 17.6582 5.26125 17.5701C5.36977 17.482 11.8346 11.0776 11.8346 11.0776Z" fill="white"/>
</g>
<defs>
<clipPath id="clip0_350_39975">
<rect width="15.2" height="10.4" fill="white" transform="translate(4.7998 10.3997)"/>
</clipPath>
</defs>
</svg>
