<svg width="124" height="124" viewBox="0 0 124 124" fill="none" xmlns="http://www.w3.org/2000/svg">
<path d="M122.363 61.7946C122.363 95.2727 95.2347 122.411 61.7707 122.411C28.3067 122.411 1.17805 95.2727 1.17805 61.7946C1.17805 28.3166 28.3067 1.17805 61.7707 1.17805C95.2347 1.17805 122.363 28.3166 122.363 61.7946Z" fill="#272536" stroke="white" stroke-width="2.3561"/>
<g clip-path="url(#clip0_346_34726)">
<path d="M36.7069 98.8714C36.3685 98.7127 36.0879 98.4524 35.9042 98.1268C35.7205 97.8013 35.6427 97.4265 35.6816 97.0547C35.6816 92.3609 38.0276 89.1795 42.7978 87.4932C44.9353 86.7283 47.1423 86.1633 49.3145 85.4331C50.1721 85.1258 50.9914 84.7204 51.756 84.2249C52.249 83.8318 52.7003 83.3891 53.1028 82.9037C51.7039 81.7911 50.3398 80.8349 49.132 79.7136C42.248 73.5383 37.6545 65.2149 36.0987 56.0968C35.0405 50.6066 35.7809 44.9214 38.2101 39.8858C42.0853 31.9324 48.3587 26.8995 57.0997 25.3002C63.5823 24.0911 70.2818 25.402 75.8314 28.9653C81.3809 32.5286 85.3624 38.0758 86.9634 44.4753C88.1654 49.3399 88.0725 54.4346 86.6941 59.2521C84.6183 67.3296 80.1656 74.5973 73.9127 80.1135C73.374 80.5916 72.8005 81.0349 72.2271 81.4695C71.6536 81.9041 71.0541 82.3387 70.4198 82.7472C70.7493 83.5462 71.3707 84.1896 72.1576 84.5465C73.5391 85.155 74.9641 85.6592 76.389 86.1633C78.3006 86.8413 80.299 87.3367 82.1498 88.1625C86.1119 89.901 87.7802 93.1953 87.7454 97.4371C87.7303 97.7505 87.6269 98.0531 87.4469 98.31C87.267 98.5669 87.018 98.7676 86.7288 98.8887L36.7069 98.8714ZM38.4447 51.064C38.6445 52.8025 38.7662 54.5409 39.0616 56.2185C40.079 61.7737 42.3493 67.0236 45.6999 71.569C48.3298 75.4549 51.8168 78.6845 55.892 81.0088C58.0635 82.3446 60.6288 82.891 63.1559 82.556C65.4107 82.1345 67.5407 81.2073 69.3858 79.844C75.7321 75.2893 80.4788 68.8463 82.9492 61.4339C84.8525 56.495 85.3076 51.1155 84.2612 45.9269C82.9489 40.0108 79.3731 34.844 74.2996 31.5329C69.2262 28.2218 63.0583 27.0298 57.1171 28.2121C51.877 29.313 47.1711 32.1739 43.7808 36.3197C40.3905 40.4656 38.5198 45.6469 38.4794 51.0032L38.4447 51.064ZM38.6793 95.9682H84.6522C84.6522 95.8117 84.6522 95.69 84.6522 95.577C84.4861 94.4728 84.0244 93.4341 83.3162 92.571C82.608 91.708 81.6795 91.0527 80.6292 90.6746C78.8914 89.9792 77.0841 89.4664 75.3029 88.9361C72.3574 88.0669 69.4206 87.1281 67.7262 84.1641C65.8568 85.1152 63.7891 85.611 61.6918 85.611C59.5944 85.611 57.5268 85.1152 55.6574 84.1641C54.7537 85.7951 53.3002 87.052 51.5562 87.7105C50.2789 88.2407 48.9495 88.5797 47.6201 89.0752C45.6562 89.6892 43.7247 90.4029 41.8333 91.2135C40.9455 91.66 40.1902 92.3316 39.6429 93.1613C39.0956 93.9911 38.7753 94.9499 38.714 95.9421L38.6793 95.9682Z" fill="#414141"/>
<path d="M38.48 51.0029C38.5124 45.6406 40.3795 40.4512 43.7705 36.2982C47.1615 32.1452 51.8718 29.2792 57.1176 28.177C63.0638 26.9957 69.2359 28.1925 74.3102 31.5106C79.3846 34.8288 82.9572 40.0041 84.2617 45.9266C85.3082 51.1152 84.853 56.4947 82.9497 61.4336C80.4919 68.8477 75.7574 75.2966 69.4211 79.8611C67.576 81.2244 65.446 82.1516 63.1912 82.5731C60.6641 82.9081 58.0988 82.3617 55.9273 81.0259C51.8521 78.7016 48.3651 75.472 45.7352 71.5861C42.376 67.0372 40.0996 61.7809 39.0795 56.2182C38.8015 54.4798 38.6798 52.7413 38.48 51.0029ZM74.843 50.2119C74.3911 50.2553 73.9741 50.264 73.4788 50.3335C68.2655 51.2028 63.7733 56.4181 63.2172 60.9902C63.0629 61.9269 63.1344 62.8868 63.4256 63.7902C63.7169 64.6936 64.2195 65.5144 64.8917 66.1844C65.5639 66.8543 66.3863 67.354 67.2905 67.6419C68.1947 67.9298 69.1545 67.9977 70.0901 67.8397C72.6965 67.3785 75.1036 66.1425 76.9975 64.2928C78.8915 62.4431 80.1845 60.0655 80.708 57.4699C81.4378 53.4888 78.8485 50.2988 74.843 50.2466V50.2119ZM48.5678 50.2119C48.1575 50.2185 47.7482 50.2534 47.3426 50.3162C46.5583 50.4592 45.8116 50.7612 45.1482 51.2036C44.4848 51.6459 43.9189 52.2193 43.4852 52.8885C43.0514 53.5577 42.7591 54.3085 42.626 55.0949C42.4929 55.8812 42.522 56.6865 42.7115 57.4612C43.2373 60.0438 44.5238 62.4098 46.4052 64.2548C48.2866 66.0998 50.6769 67.3392 53.2685 67.8137C54.2048 67.9931 55.1706 67.9436 56.0836 67.6693C56.9967 67.395 57.83 66.904 58.5126 66.2383C59.1951 65.5725 59.7068 64.7516 60.004 63.8454C60.3012 62.9392 60.3752 61.9746 60.2196 61.0337C59.7255 57.7613 57.9654 54.8142 55.319 52.8282C53.4327 51.2183 51.0469 50.3121 48.5678 50.264V50.2119ZM61.6706 73.5418C62.6351 73.5418 63.5909 73.5418 64.5553 73.5418C64.7595 73.5648 64.9663 73.5451 65.1625 73.484C65.3587 73.4229 65.5401 73.3218 65.6953 73.187C65.8504 73.0522 65.9759 72.8867 66.0639 72.7009C66.1518 72.5151 66.2003 72.3131 66.2062 72.1076C66.2168 71.8956 66.1808 71.6838 66.1007 71.4872C66.0206 71.2906 65.8984 71.1139 65.7426 70.9697C65.5869 70.8255 65.4014 70.7172 65.1992 70.6525C64.9971 70.5878 64.7832 70.5682 64.5727 70.5952C62.6525 70.5952 60.7322 70.5952 58.812 70.5952C58.6072 70.5738 58.4002 70.5968 58.2051 70.6625C58.01 70.7283 57.8314 70.8354 57.6813 70.9764C57.5313 71.1174 57.4134 71.2891 57.3356 71.4798C57.2578 71.6705 57.222 71.8758 57.2306 72.0816C57.2331 72.2873 57.2785 72.4903 57.3639 72.6774C57.4493 72.8646 57.5728 73.0319 57.7266 73.1685C57.8804 73.3052 58.061 73.4082 58.2569 73.471C58.4528 73.5338 58.6596 73.555 58.8641 73.5332C59.7938 73.6027 60.7235 73.5418 61.6706 73.5418ZM43.9018 41.5283C43.8617 41.8682 43.9437 42.2113 44.1331 42.4963C44.3225 42.7813 44.607 42.9897 44.9358 43.0842C45.2455 43.194 45.5845 43.1875 45.8898 43.066C46.195 42.9445 46.4458 42.7162 46.5954 42.4236C47.5538 40.7777 48.7482 39.2813 50.1405 37.9819C50.2976 37.8579 50.4265 37.7019 50.5186 37.5242C50.6107 37.3465 50.6639 37.1512 50.6745 36.9513C50.6852 36.7514 50.6532 36.5516 50.5806 36.3651C50.508 36.1785 50.3964 36.0096 50.2534 35.8696C50.1191 35.722 49.9554 35.6041 49.7728 35.5234C49.5903 35.4427 49.3929 35.4011 49.1934 35.4011C48.9938 35.4011 48.7965 35.4427 48.6139 35.5234C48.4314 35.6041 48.2677 35.722 48.1333 35.8696C46.5563 37.2897 45.221 38.9573 44.1799 40.8069C44.0603 41.0361 43.967 41.2781 43.9018 41.5283ZM54.763 34.8613C54.9547 34.858 55.1438 34.8168 55.3196 34.7403C55.4954 34.6637 55.6544 34.5533 55.7876 34.4153C55.9207 34.2772 56.0254 34.1143 56.0955 33.9358C56.1657 33.7573 56.2001 33.5668 56.1966 33.375C56.1711 33.0002 56.0079 32.6481 55.7384 32.3865C55.4689 32.1249 55.1121 31.9723 54.7369 31.9581C54.5452 31.9593 54.3556 31.9982 54.1789 32.0726C54.0023 32.1471 53.842 32.2556 53.7072 32.392C53.5725 32.5284 53.4659 32.69 53.3936 32.8676C53.3213 33.0452 53.2847 33.2354 53.2858 33.4271C53.2833 33.6199 53.3201 33.8111 53.394 33.9892C53.4679 34.1672 53.5773 34.3283 53.7156 34.4625C53.8539 34.5968 54.0181 34.7014 54.1982 34.77C54.3783 34.8386 54.5704 34.8696 54.763 34.8613Z" fill="white"/>
<path d="M38.7144 95.9421C38.769 94.9414 39.0871 93.973 39.6364 93.1349C40.1858 92.2969 40.9468 91.619 41.8423 91.17C43.7337 90.3594 45.6652 89.6458 47.6291 89.0317C48.9412 88.571 50.2879 88.1625 51.5652 87.667C53.3092 87.0086 54.7627 85.7517 55.6664 84.1206C57.5358 85.0718 59.6035 85.5675 61.7008 85.5675C63.7981 85.5675 65.8658 85.0718 67.7352 84.1206C69.473 87.0847 72.3664 87.9886 75.3119 88.8926C77.0932 89.4403 78.9005 89.9531 80.6382 90.6311C81.6885 91.0092 82.617 91.6645 83.3252 92.5276C84.0335 93.3906 84.4951 94.4293 84.6612 95.5335C84.6612 95.6465 84.6612 95.7682 84.6612 95.9247L38.7144 95.9421Z" fill="white"/>
<path d="M74.8423 50.2471C78.8479 50.2992 81.4371 53.4893 80.7073 57.5051C80.1838 60.1007 78.8908 62.4783 76.9969 64.328C75.1029 66.1777 72.6959 67.4137 70.0895 67.8749C69.1538 68.0329 68.194 67.9651 67.2898 67.6771C66.3857 67.3892 65.5633 66.8895 64.891 66.2196C64.2188 65.5496 63.7162 64.7288 63.4249 63.8254C63.1337 62.922 63.0622 61.9621 63.2166 61.0255C63.7726 56.4533 68.2561 51.2554 73.4781 50.3688C73.9299 50.2992 74.3905 50.2905 74.8423 50.2471ZM74.6685 53.1764C74.6077 53.1764 74.4165 53.1764 74.2254 53.1764C70.6455 53.6284 66.7442 57.4182 66.1968 60.9559C65.7972 63.5636 67.1266 65.163 69.4552 64.9717C73.4173 64.6241 77.5358 60.5213 77.8834 56.549C78.0659 54.541 76.832 53.185 74.7033 53.1764H74.6685Z" fill="#414141"/>
<path d="M48.5673 50.2642C51.0398 50.3324 53.4127 51.2536 55.2838 52.8718C57.9302 54.8579 59.6903 57.8049 60.1844 61.0773C60.34 62.0182 60.2661 62.9828 59.9688 63.889C59.6716 64.7952 59.16 65.6161 58.4774 66.2819C57.7948 66.9477 56.9615 67.4386 56.0484 67.7129C55.1354 67.9872 54.1696 68.0367 53.2333 67.8573C50.6417 67.3828 48.2514 66.1434 46.37 64.2984C44.4886 62.4534 43.2021 60.0874 42.6763 57.5048C42.4868 56.7301 42.4577 55.9248 42.5908 55.1385C42.7238 54.3521 43.0162 53.6013 43.45 52.9321C43.8837 52.2629 44.4496 51.6896 45.113 51.2472C45.7764 50.8048 46.5231 50.5028 47.3075 50.3598C47.7246 50.2983 48.1456 50.2664 48.5673 50.2642ZM57.2562 61.7988C57.1693 57.9481 52.8249 53.4281 48.9757 53.1848C46.5515 53.0283 45.0744 54.6103 45.5871 56.9833C45.9322 58.8529 46.8068 60.584 48.1068 61.9708C49.4068 63.3576 51.0776 64.3418 52.9205 64.8063C55.5879 65.5973 57.3257 64.2587 57.3257 61.7988H57.2562Z" fill="#414141"/>
<path d="M61.6708 73.5425C60.7324 73.5425 59.8027 73.5425 58.8643 73.5425C58.6597 73.5643 58.4529 73.5431 58.257 73.4803C58.0612 73.4176 57.8805 73.3146 57.7268 73.1779C57.573 73.0413 57.4494 72.874 57.364 72.6868C57.2786 72.4996 57.2332 72.2966 57.2307 72.0909C57.2221 71.8851 57.2579 71.6799 57.3357 71.4892C57.4135 71.2985 57.5314 71.1268 57.6815 70.9857C57.8315 70.8447 58.0102 70.7377 58.2053 70.6719C58.4004 70.6061 58.6074 70.5831 58.8121 70.6045C60.7324 70.6045 62.6526 70.6045 64.5728 70.6045C64.7834 70.5776 64.9972 70.5971 65.1994 70.6618C65.4015 70.7265 65.587 70.8348 65.7428 70.979C65.8985 71.1232 66.0208 71.2999 66.1009 71.4965C66.181 71.6931 66.217 71.9049 66.2064 72.117C66.2004 72.3225 66.152 72.5245 66.064 72.7103C65.9761 72.8961 65.8506 73.0616 65.6954 73.1964C65.5403 73.3311 65.3588 73.4323 65.1626 73.4933C64.9664 73.5544 64.7597 73.5741 64.5555 73.5512C63.5823 73.6034 62.6265 73.5425 61.6708 73.5425Z" fill="#414141"/>
<path d="M43.9011 41.5287C43.9669 41.2815 44.0601 41.0424 44.1791 40.816C45.2203 38.9664 46.5556 37.2989 48.1326 35.8788C48.2669 35.7312 48.4306 35.6132 48.6132 35.5325C48.7957 35.4518 48.9931 35.4102 49.1926 35.4102C49.3922 35.4102 49.5896 35.4518 49.7721 35.5325C49.9546 35.6132 50.1183 35.7312 50.2527 35.8788C50.3957 36.0188 50.5072 36.1876 50.5798 36.3742C50.6524 36.5607 50.6845 36.7605 50.6738 36.9604C50.6631 37.1603 50.6099 37.3556 50.5178 37.5333C50.4257 37.711 50.2968 37.867 50.1397 37.991C48.7475 39.2904 47.5531 40.7868 46.5946 42.4327C46.445 42.7253 46.1943 42.9536 45.889 43.0751C45.5837 43.1967 45.2448 43.2031 44.9351 43.0933C44.6046 42.9986 44.3189 42.7889 44.1293 42.502C43.9397 42.2152 43.8588 41.87 43.9011 41.5287Z" fill="#414141"/>
<path d="M54.7634 34.8617C54.5708 34.87 54.3787 34.8389 54.1986 34.7703C54.0185 34.7018 53.8543 34.5971 53.716 34.4629C53.5777 34.3286 53.4683 34.1676 53.3944 33.9895C53.3205 33.8115 53.2837 33.6202 53.2863 33.4275C53.2851 33.2357 53.3217 33.0456 53.394 32.868C53.4663 32.6904 53.5729 32.5288 53.7076 32.3924C53.8424 32.2559 54.0027 32.1474 54.1793 32.073C54.356 31.9985 54.5456 31.9596 54.7373 31.9585C55.1126 31.9727 55.4693 32.1252 55.7388 32.3868C56.0083 32.6484 56.1715 33.0005 56.197 33.3753C56.2005 33.5671 56.1661 33.7577 56.0959 33.9362C56.0258 34.1147 55.9211 34.2776 55.788 34.4156C55.6548 34.5537 55.4958 34.6641 55.32 34.7406C55.1442 34.8172 54.9551 34.8583 54.7634 34.8617Z" fill="#414141"/>
<path d="M74.7037 53.1763C76.8673 53.1763 78.1011 54.541 77.9186 56.5749C77.5711 60.5473 73.4525 64.65 69.4904 64.9977C67.1618 65.189 65.8324 63.5548 66.2321 60.9819C66.7795 57.4442 70.6808 53.6543 74.2606 53.2023C74.417 53.1763 74.6082 53.185 74.7037 53.1763Z" fill="#B962FD"/>
<path d="M57.3261 61.7991C57.3783 64.259 55.5884 65.5976 52.9817 64.8153C51.1388 64.3508 49.468 63.3666 48.168 61.9798C46.868 60.593 45.9934 58.8619 45.6483 56.9923C45.1356 54.6193 46.6128 53.0373 49.037 53.1938C52.8514 53.4284 57.1958 57.9571 57.3261 61.7991Z" fill="#B962FD"/>
</g>
<defs>
<clipPath id="clip0_346_34726">
<rect width="74.1249" height="74.1536" fill="white" transform="translate(24.708 24.7178)"/>
</clipPath>
</defs>
</svg>
